<svg width="43.38711668mm" height="55.79002812mm" viewBox="0 0 17081542 21964578"  version="1.1" xmlns="http://www.w3.org/2000/svg" xmlns:xlink="http://www.w3.org/1999/xlink">
<desc>
Origin 0 0 Bound 10000000 10000000 17081542 21964578
</desc>
<g fill-rule="evenodd" fill="rgb(255, 0, 255)" stroke="black" stroke-width="1" transform="translate(0, 21964578) scale(1, -1) translate(-10000000, -10000000)">
<path id="N" d="M 19972604.00 31950845.00 L 20134058.00 31906415.00 L 20295205.00 31857128.00 L 20456014.00 31802966.00 L 20616455.00 31743912.00 L 20776495.00 31679949.00 L 20936105.00 31611060.00 L 21095252.00 31537227.00 L 21253906.00 31458433.00 L 21412035.00 31374662.00 L 21569608.00 31285895.00 L 21726594.00 31192116.00 L 21882951.00 31093319.00 L 22038600.00 30989534.00 L 22193455.00 30880799.00 L 22398547.00 30728185.00 L 22601871.00 30566930.00 L 22803226.00 30397124.00 L 23002407.00 30218857.00 L 23199212.00 30032220.00 L 23393437.00 29837302.00 L 23584878.00 29634194.00 L 23773332.00 29422987.00 L 23958596.00 29203771.00 L 24140466.00 28976635.00 L 24318739.00 28741672.00 L 24493212.00 28498969.00 L 24663683.00 28248622.00 L 24829982.00 27990790.00 L 24991979.00 27725708.00 L 25149541.00 27453609.00 L 25302537.00 27174730.00 L 25450837.00 26889308.00 L 25594310.00 26597576.00 L 25732824.00 26299772.00 L 25866248.00 25996132.00 L 25994451.00 25686890.00 L 26117302.00 25372283.00 L 26234671.00 25052546.00 L 26346425.00 24727916.00 L 26452434.00 24398627.00 L 26552567.00 24064916.00 L 26646697.00 23727020.00 L 26734737.00 23385176.00 L 26816629.00 23039628.00 L 26892314.00 22690618.00 L 26961733.00 22338388.00 L 27024829.00 21983179.00 L 27081542.00 21625234.00 L 27081542.00 16703974.00 L 27037528.00 16510885.00 A 8762217.90 8762217.90 0 0 0 26670168.00 15381693.00 L 26592144.00 15199667.00 L 26570887.00 15247446.00 A 354333.64 354333.64 0 1 1 26383273.00 14748223.00 L 26267248.00 14515061.00 A 8763267.58 8763267.58 0 0 0 20175916.00 10040967.00 L 19918723.00 10000000.00 L 17162818.00 10000000.00 L 16905625.00 10040967.00 A 8763780.75 8763780.75 0 0 0 10814293.00 14515061.00 L 10698268.00 14748223.00 L 10748445.00 14733495.00 A 354333.49 354333.49 0 1 1 10489395.00 15199667.00 L 10411372.00 15381693.00 A 8762423.51 8762423.51 0 0 0 10044013.00 16510885.00 L 9999999.00 16703974.00 L 10000000.00 21625234.00 L 10013577.00 21714964.00 L 10071891.00 22072247.00 L 10136573.00 22426734.00 L 10207564.00 22778182.00 L 10284806.00 23126349.00 L 10368241.00 23470994.00 L 10457809.00 23811873.00 L 10553450.00 24148746.00 L 10655064.00 24481373.00 L 10762522.00 24809519.00 L 10875692.00 25132948.00 L 10994444.00 25451425.00 L 11118645.00 25764713.00 L 11248166.00 26072576.00 L 11382875.00 26374780.00 L 11522640.00 26671088.00 L 11667332.00 26961264.00 L 11816819.00 27245073.00 L 11970969.00 27522278.00 L 12129652.00 27792645.00 L 12292736.00 28055937.00 L 12460091.00 28311919.00 L 12631581.00 28560365.00 L 12807022.00 28801142.00 L 12986214.00 29034157.00 L 13168952.00 29259321.00 L 13355032.00 29476543.00 L 13544252.00 29685734.00 L 13736408.00 29886803.00 L 13931297.00 30079659.00 L 14128715.00 30264212.00 L 14328459.00 30440372.00 L 14530325.00 30608049.00 L 14734111.00 30767152.00 L 14939612.00 30917591.00 L 15094741.00 31024681.00 L 15250636.00 31126807.00 L 15407209.00 31223934.00 L 15564394.00 31316040.00 L 15722156.00 31403140.00 L 15880464.00 31485250.00 L 16039285.00 31562388.00 L 16198590.00 31634571.00 L 16358347.00 31701816.00 L 16518525.00 31764141.00 L 16679092.00 31821562.00 L 16840017.00 31874098.00 L 17001270.00 31921764.00 L 17162818.00 31964578.00 L 18196905.00 31964577.00 L 18187952.00 31911806.00 A 354328.76 354328.76 0 1 1 18884636.00 31964577.00 L 19918724.00 31964578.00 L 19972604.00 31950845.00  zM 14911242.00 11268583.00 L 14611242.00 11268583.00 L 14611242.00 11013583.00 L 14911242.00 11013583.00 L 14911242.00 11268583.00  zM 14911242.00 11663583.00 L 14611242.00 11663583.00 L 14611242.00 11408583.00 L 14911242.00 11408583.00 L 14911242.00 11663583.00  zM 15509745.00 11171732.00 L 15095415.00 11171732.00 L 15095415.00 10796772.00 L 15509745.00 10796772.00 L 15509745.00 11171732.00  zM 15509745.00 11880393.00 L 15095415.00 11880393.00 L 15095415.00 11505433.00 L 15509745.00 11505433.00 L 15509745.00 11880393.00  zM 16297147.00 11526063.00 L 15882817.00 11526063.00 L 15882817.00 11151103.00 L 16297147.00 11151103.00 L 16297147.00 11526063.00  zM 17114077.00 12864645.00 L 16542267.00 12864645.00 L 16542267.00 11466063.00 L 17114077.00 11466063.00 L 17114077.00 12864645.00  zM 16356202.00 13346929.00 L 15725336.00 13346929.00 L 15725336.00 12794803.00 L 16356202.00 12794803.00 L 16356202.00 13346929.00  zM 16356202.00 14016220.00 L 15725336.00 14016220.00 L 15725336.00 13464094.00 L 16356202.00 13464094.00 L 16356202.00 14016220.00  zM 16718801.00 14421653.00 L 16463801.00 14421653.00 L 16463801.00 14121653.00 L 16718801.00 14121653.00 L 16718801.00 14421653.00  zM 10996850.59 18164596.43 m -231297.57 0 a 231297.57 231297.57 0 1 1 462595.15 0a 231297.57 231297.57 0 1 1 -462595.15 0M 10996850.59 18664596.43 m -231297.57 0 a 231297.57 231297.57 0 1 1 462595.15 0a 231297.57 231297.57 0 1 1 -462595.15 0M 11496850.59 18164596.43 m -231297.57 0 a 231297.57 231297.57 0 1 1 462595.15 0a 231297.57 231297.57 0 1 1 -462595.15 0M 10996850.59 19164596.43 m -231297.57 0 a 231297.57 231297.57 0 1 1 462595.15 0a 231297.57 231297.57 0 1 1 -462595.15 0M 11496850.59 18664596.43 m -231297.57 0 a 231297.57 231297.57 0 1 1 462595.15 0a 231297.57 231297.57 0 1 1 -462595.15 0M 11496850.59 19164596.43 m -231297.57 0 a 231297.57 231297.57 0 1 1 462595.15 0a 231297.57 231297.57 0 1 1 -462595.15 0M 14539370.00 19384724.00 L 14239370.00 19384724.00 L 14239370.00 19129724.00 L 14539370.00 19129724.00 L 14539370.00 19384724.00  zM 17122441.00 18561272.00 L 16689371.00 18561272.00 A 90798.59 90798.59 0 0 1 16689371.00 18379672.00 L 17122441.00 18379672.00 A 90798.59 90798.59 0 0 1 17122441.00 18561272.00  zM 17122441.00 18758122.00 L 16689371.00 18758122.00 A 90798.59 90798.59 0 0 1 16689371.00 18576522.00 L 17122441.00 18576522.00 A 90798.59 90798.59 0 0 1 17122441.00 18758122.00  zM 10996850.59 19664596.43 m -231297.57 0 a 231297.57 231297.57 0 1 1 462595.15 0a 231297.57 231297.57 0 1 1 -462595.15 0M 10996850.59 20164596.43 m -231297.57 0 a 231297.57 231297.57 0 1 1 462595.15 0a 231297.57 231297.57 0 1 1 -462595.15 0M 11496850.59 20164596.43 m -231297.57 0 a 231297.57 231297.57 0 1 1 462595.15 0a 231297.57 231297.57 0 1 1 -462595.15 0M 10393699.67 20909523.00 m -198899.00 0 a 198899.00 198899.00 0 1 1 397798.01 0a 198899.00 198899.00 0 1 1 -397798.01 0M 11181101.67 20909523.00 m -198899.00 0 a 198899.00 198899.00 0 1 1 397798.01 0a 198899.00 198899.00 0 1 1 -397798.01 0M 11496850.59 19664596.43 m -231297.57 0 a 231297.57 231297.57 0 1 1 462595.15 0a 231297.57 231297.57 0 1 1 -462595.15 0M 13506772.00 21256022.00 L 13179056.00 21256022.00 L 13179056.00 20940274.00 L 13506772.00 20940274.00 L 13506772.00 21256022.00  zM 13721429.00 20379920.00 L 13721429.00 20045274.00 A 151013.49 151013.49 0 0 1 14023453.00 20045274.00 L 14023453.00 20379920.00 A 151013.49 151013.49 0 0 1 13721429.00 20379920.00  zM 13506772.00 21630588.00 L 13179056.00 21630588.00 L 13179056.00 21314840.00 L 13506772.00 21314840.00 L 13506772.00 21630588.00  zM 14539370.00 19779724.00 L 14239370.00 19779724.00 L 14239370.00 19524724.00 L 14539370.00 19524724.00 L 14539370.00 19779724.00  zM 14221429.00 20379920.00 L 14221429.00 20045274.00 A 151013.49 151013.49 0 0 1 14523453.00 20045274.00 L 14523453.00 20379920.00 A 151013.49 151013.49 0 1 1 14221429.00 20379920.00  zM 14721429.00 20379920.00 L 14721429.00 20045274.00 A 151013.49 151013.49 0 0 1 15023453.00 20045274.00 L 15023453.00 20379920.00 A 151013.49 151013.49 0 1 1 14721429.00 20379920.00  zM 15750867.00 19799880.00 L 15423151.00 19799880.00 L 15423151.00 19484132.00 L 15750867.00 19484132.00 L 15750867.00 19799880.00  zM 15221429.00 20379920.00 L 15221429.00 20045274.00 A 151013.49 151013.49 0 1 1 15523453.00 20045274.00 L 15523453.00 20379920.00 A 151013.49 151013.49 0 1 1 15221429.00 20379920.00  zM 15750867.00 19425314.00 L 15423151.00 19425314.00 L 15423151.00 19109566.00 L 15750867.00 19109566.00 L 15750867.00 19425314.00  zM 16503031.00 19618581.00 L 16187283.00 19618581.00 L 16187283.00 19290865.00 L 16503031.00 19290865.00 L 16503031.00 19618581.00  zM 16128465.00 19618581.00 L 15812717.00 19618581.00 L 15812717.00 19290865.00 L 16128465.00 19290865.00 L 16128465.00 19618581.00  zM 17122441.00 21317177.00 L 16689371.00 21317177.00 A 90798.59 90798.59 0 0 1 16689371.00 21135577.00 L 17122441.00 21135577.00 A 90798.59 90798.59 0 0 1 17122441.00 21317177.00  zM 17113801.00 14421653.00 L 16858801.00 14421653.00 L 16858801.00 14121653.00 L 17113801.00 14121653.00 L 17113801.00 14421653.00  zM 20539273.00 12864645.00 L 19967463.00 12864645.00 L 19967463.00 11466063.00 L 20539273.00 11466063.00 L 20539273.00 12864645.00  zM 17617835.00 17098897.00 L 17302087.00 17098897.00 L 17302087.00 16771181.00 L 17617835.00 16771181.00 L 17617835.00 17098897.00  zM 17992401.00 17098897.00 L 17676653.00 17098897.00 L 17676653.00 16771181.00 L 17992401.00 16771181.00 L 17992401.00 17098897.00  zM 20873110.00 17104881.00 L 20557362.00 17104881.00 L 20557362.00 16777165.00 L 20873110.00 16777165.00 L 20873110.00 17104881.00  zM 17976523.00 17722440.00 L 17976523.00 17289370.00 A 90798.59 90798.59 0 0 1 18158123.00 17289370.00 L 18158123.00 17722440.00 A 90798.59 90798.59 0 0 1 17976523.00 17722440.00  zM 18763925.00 17722440.00 L 18763925.00 17289370.00 A 90798.59 90798.59 0 0 1 18945525.00 17289370.00 L 18945525.00 17722440.00 A 90798.59 90798.59 0 0 1 18763925.00 17722440.00  zM 20498544.00 17104881.00 L 20182796.00 17104881.00 L 20182796.00 16777165.00 L 20498544.00 16777165.00 L 20498544.00 17104881.00  zM 20141878.00 17722440.00 L 20141878.00 17289370.00 A 90798.59 90798.59 0 0 1 20323478.00 17289370.00 L 20323478.00 17722440.00 A 90798.59 90798.59 0 0 1 20141878.00 17722440.00  zM 17582823.00 17722440.00 L 17582823.00 17289370.00 A 90798.59 90798.59 0 0 1 17764423.00 17289370.00 L 17764423.00 17722440.00 A 90798.59 90798.59 0 0 1 17582823.00 17722440.00  zM 17779673.00 17722440.00 L 17779673.00 17289370.00 A 90798.59 90798.59 0 0 1 17961273.00 17289370.00 L 17961273.00 17722440.00 A 90798.59 90798.59 0 0 1 17779673.00 17722440.00  zM 18173374.00 17722440.00 L 18173374.00 17289370.00 A 90798.59 90798.59 0 0 1 18354974.00 17289370.00 L 18354974.00 17722440.00 A 90798.59 90798.59 0 0 1 18173374.00 17722440.00  zM 18370224.00 17722440.00 L 18370224.00 17289370.00 A 90798.59 90798.59 0 0 1 18551824.00 17289370.00 L 18551824.00 17722440.00 A 90798.59 90798.59 0 0 1 18370224.00 17722440.00  zM 18567075.00 17722440.00 L 18567075.00 17289370.00 A 90798.59 90798.59 0 0 1 18748675.00 17289370.00 L 18748675.00 17722440.00 A 90798.59 90798.59 0 0 1 18567075.00 17722440.00  zM 18960775.00 17722440.00 L 18960775.00 17289370.00 A 90798.59 90798.59 0 0 1 19142375.00 17289370.00 L 19142375.00 17722440.00 A 90798.59 90798.59 0 0 1 18960775.00 17722440.00  zM 19551326.00 17722440.00 L 19551326.00 17289370.00 A 90798.59 90798.59 0 0 1 19732926.00 17289370.00 L 19732926.00 17722440.00 A 90798.59 90798.59 0 0 1 19551326.00 17722440.00  zM 19748177.00 17722440.00 L 19748177.00 17289370.00 A 90798.59 90798.59 0 0 1 19929777.00 17289370.00 L 19929777.00 17722440.00 A 90798.59 90798.59 0 0 1 19748177.00 17722440.00  zM 20535578.00 17722440.00 L 20535578.00 17289370.00 A 90798.59 90798.59 0 0 1 20717178.00 17289370.00 L 20717178.00 17722440.00 A 90798.59 90798.59 0 0 1 20535578.00 17722440.00  zM 17122441.00 18364422.00 L 16689371.00 18364422.00 A 90798.59 90798.59 0 0 1 16689371.00 18182822.00 L 17122441.00 18182822.00 A 90798.59 90798.59 0 0 1 17122441.00 18364422.00  zM 17122441.00 18954973.00 L 16689371.00 18954973.00 A 90798.59 90798.59 0 0 1 16689371.00 18773373.00 L 17122441.00 18773373.00 A 90798.59 90798.59 0 0 1 17122441.00 18954973.00  zM 17122441.00 19545524.00 L 16689371.00 19545524.00 A 90798.59 90798.59 0 0 1 16689371.00 19363924.00 L 17122441.00 19363924.00 A 90798.59 90798.59 0 0 1 17122441.00 19545524.00  zM 17122441.00 19742374.00 L 16689371.00 19742374.00 A 90798.59 90798.59 0 0 1 16689371.00 19560774.00 L 17122441.00 19560774.00 A 90798.59 90798.59 0 0 1 17122441.00 19742374.00  zM 17122441.00 19939225.00 L 16689371.00 19939225.00 A 90798.59 90798.59 0 0 1 16689371.00 19757625.00 L 17122441.00 19757625.00 A 90798.59 90798.59 0 0 1 17122441.00 19939225.00  zM 17122441.00 20136075.00 L 16689371.00 20136075.00 A 90798.59 90798.59 0 0 1 16689371.00 19954475.00 L 17122441.00 19954475.00 A 90798.59 90798.59 0 0 1 17122441.00 20136075.00  zM 17122441.00 20332925.00 L 16689371.00 20332925.00 A 90798.59 90798.59 0 0 1 16689371.00 20151325.00 L 17122441.00 20151325.00 A 90798.59 90798.59 0 0 1 17122441.00 20332925.00  zM 17122441.00 20726626.00 L 16689371.00 20726626.00 A 90798.59 90798.59 0 1 1 16689371.00 20545026.00 L 17122441.00 20545026.00 A 90798.59 90798.59 0 0 1 17122441.00 20726626.00  zM 17122441.00 20923477.00 L 16689371.00 20923477.00 A 90798.59 90798.59 0 0 1 16689371.00 20741877.00 L 17122441.00 20741877.00 A 90798.59 90798.59 0 0 1 17122441.00 20923477.00  zM 17122441.00 19151823.00 L 16689371.00 19151823.00 A 90798.59 90798.59 0 1 1 16689371.00 18970223.00 L 17122441.00 18970223.00 A 90798.59 90798.59 0 0 1 17122441.00 19151823.00  zM 17122441.00 19348674.00 L 16689371.00 19348674.00 A 90798.59 90798.59 0 0 1 16689371.00 19167074.00 L 17122441.00 19167074.00 A 90798.59 90798.59 0 0 1 17122441.00 19348674.00  zM 17122441.00 20529776.00 L 16689371.00 20529776.00 A 90798.59 90798.59 0 0 1 16689371.00 20348176.00 L 17122441.00 20348176.00 A 90798.59 90798.59 0 0 1 17122441.00 20529776.00  zM 17122441.00 21120327.00 L 16689371.00 21120327.00 A 90798.59 90798.59 0 0 1 16689371.00 20938727.00 L 17122441.00 20938727.00 A 90798.59 90798.59 0 0 1 17122441.00 21120327.00  zM 19157626.00 17722440.00 L 19157626.00 17289370.00 A 90798.59 90798.59 0 0 1 19339226.00 17289370.00 L 19339226.00 17722440.00 A 90798.59 90798.59 0 0 1 19157626.00 17722440.00  zM 19354476.00 17722440.00 L 19354476.00 17289370.00 A 90798.59 90798.59 0 0 1 19536076.00 17289370.00 L 19536076.00 17722440.00 A 90798.59 90798.59 0 0 1 19354476.00 17722440.00  zM 19945027.00 17722440.00 L 19945027.00 17289370.00 A 90798.59 90798.59 0 0 1 20126627.00 17289370.00 L 20126627.00 17722440.00 A 90798.59 90798.59 0 0 1 19945027.00 17722440.00  zM 20338728.00 17722440.00 L 20338728.00 17289370.00 A 90798.59 90798.59 0 0 1 20520328.00 17289370.00 L 20520328.00 17722440.00 A 90798.59 90798.59 0 0 1 20338728.00 17722440.00  zM 21374613.00 12110420.00 L 21110049.00 11945102.00 L 21504859.00 11313274.00 L 21769423.00 11478592.00 L 21374613.00 12110420.00  zM 21147735.00 12466258.00 L 20879966.00 12298937.00 L 21053629.00 12021018.00 L 21321398.00 12188339.00 L 21147735.00 12466258.00  zM 21691796.00 12308618.00 L 21427232.00 12143300.00 L 21822042.00 11511472.00 L 22086606.00 11676790.00 L 21691796.00 12308618.00  zM 20939105.00 12800135.00 L 20671336.00 12632814.00 L 20844999.00 12354895.00 L 21112768.00 12522216.00 L 20939105.00 12800135.00  zM 21465385.00 12664748.00 L 21197616.00 12497427.00 L 21371279.00 12219508.00 L 21639048.00 12386829.00 L 21465385.00 12664748.00  zM 22008979.00 12506816.00 L 21744415.00 12341498.00 L 22139225.00 11709670.00 L 22403789.00 11874988.00 L 22008979.00 12506816.00  zM 22326163.00 12705014.00 L 22061599.00 12539696.00 L 22456409.00 11907868.00 L 22720973.00 12073186.00 L 22326163.00 12705014.00  zM 22643346.00 12903212.00 L 22378782.00 12737894.00 L 22773592.00 12106066.00 L 23038156.00 12271384.00 L 22643346.00 12903212.00  zM 22960529.00 13101410.00 L 22695965.00 12936092.00 L 23090775.00 12304264.00 L 23355339.00 12469582.00 L 22960529.00 13101410.00  zM 21256755.00 12998625.00 L 20988986.00 12831304.00 L 21162649.00 12553385.00 L 21430418.00 12720706.00 L 21256755.00 12998625.00  zM 21924066.00 13326954.00 L 21669651.00 13167978.00 L 21804780.00 12951726.00 L 22059195.00 13110702.00 L 21924066.00 13326954.00  zM 22133384.00 12991976.00 L 21878969.00 12833000.00 L 22014098.00 12616748.00 L 22268513.00 12775724.00 L 22133384.00 12991976.00  zM 23277712.00 13299608.00 L 23013148.00 13134290.00 L 23407958.00 12502462.00 L 23672522.00 12667780.00 L 23277712.00 13299608.00  zM 23084932.00 13586565.00 L 22830517.00 13427589.00 L 22965646.00 13211337.00 L 23220061.00 13370313.00 L 23084932.00 13586565.00  zM 22875614.00 13921543.00 L 22621199.00 13762567.00 L 22756328.00 13546315.00 L 23010743.00 13705291.00 L 22875614.00 13921543.00  zM 23418808.00 13795194.00 L 23164393.00 13636218.00 L 23299522.00 13419966.00 L 23553937.00 13578942.00 L 23418808.00 13795194.00  zM 23209490.00 14130172.00 L 22955075.00 13971196.00 L 23090204.00 13754944.00 L 23344619.00 13913920.00 L 23209490.00 14130172.00  zM 23274488.00 17161889.00 L 22663308.00 17161889.00 L 22663308.00 16668819.00 L 23274488.00 16668819.00 L 23274488.00 17161889.00  zM 21735118.00 17200906.00 L 21407402.00 17200906.00 L 21407402.00 16885158.00 L 21735118.00 16885158.00 L 21735118.00 17200906.00  zM 21735118.00 17575472.00 L 21407402.00 17575472.00 L 21407402.00 17259724.00 L 21735118.00 17259724.00 L 21735118.00 17575472.00  zM 21610630.00 18364422.00 L 21177560.00 18364422.00 A 90798.59 90798.59 0 0 1 21177560.00 18182822.00 L 21610630.00 18182822.00 A 90798.59 90798.59 0 0 1 21610630.00 18364422.00  zM 21610630.00 18561272.00 L 21177560.00 18561272.00 A 90798.59 90798.59 0 0 1 21177560.00 18379672.00 L 21610630.00 18379672.00 A 90798.59 90798.59 0 0 1 21610630.00 18561272.00  zM 21610630.00 18758122.00 L 21177560.00 18758122.00 A 90798.59 90798.59 0 0 1 21177560.00 18576522.00 L 21610630.00 18576522.00 A 90798.59 90798.59 0 0 1 21610630.00 18758122.00  zM 22408346.00 17161889.00 L 21797166.00 17161889.00 L 21797166.00 16668819.00 L 22408346.00 16668819.00 L 22408346.00 17161889.00  zM 22408346.00 17791811.00 L 21797166.00 17791811.00 L 21797166.00 17298741.00 L 22408346.00 17298741.00 L 22408346.00 17791811.00  zM 23274488.00 17791811.00 L 22663308.00 17791811.00 L 22663308.00 17298741.00 L 23274488.00 17298741.00 L 23274488.00 17791811.00  zM 23664253.00 17575471.00 L 23336537.00 17575471.00 L 23336537.00 17259723.00 L 23664253.00 17259723.00 L 23664253.00 17575471.00  zM 23664253.00 17200905.00 L 23336537.00 17200905.00 L 23336537.00 16885157.00 L 23664253.00 16885157.00 L 23664253.00 17200905.00  zM 24973733.00 18052872.00 L 24460977.00 18052872.00 L 24460977.00 17756652.00 L 24973733.00 17756652.00 L 24973733.00 18052872.00  zM 24973733.00 18367833.00 L 24460977.00 18367833.00 L 24460977.00 18071613.00 L 24973733.00 18071613.00 L 24973733.00 18367833.00  zM 23966614.00 18625629.00 L 23711614.00 18625629.00 L 23711614.00 18325629.00 L 23966614.00 18325629.00 L 23966614.00 18625629.00  zM 24361614.00 18625629.00 L 24106614.00 18625629.00 L 24106614.00 18325629.00 L 24361614.00 18325629.00 L 24361614.00 18625629.00  zM 25367434.00 17611928.00 L 24520032.00 17611928.00 L 24520032.00 16693660.00 L 25367434.00 16693660.00 L 25367434.00 17611928.00  zM 24973733.00 18564684.00 L 24460977.00 18564684.00 L 24460977.00 18386574.00 L 24973733.00 18386574.00 L 24973733.00 18564684.00  zM 25140584.00 18026808.32 m -130461.68 0 a 130461.68 130461.68 0 1 1 260923.35 0a 130461.68 130461.68 0 1 1 -260923.35 0M 26914678.00 17611928.00 L 26067276.00 17611928.00 L 26067276.00 16693660.00 L 26914678.00 16693660.00 L 26914678.00 17611928.00  zM 21610630.00 18954973.00 L 21177560.00 18954973.00 A 90798.59 90798.59 0 0 1 21177560.00 18773373.00 L 21610630.00 18773373.00 A 90798.59 90798.59 0 0 1 21610630.00 18954973.00  zM 21610630.00 19151823.00 L 21177560.00 19151823.00 A 90798.59 90798.59 0 0 1 21177560.00 18970223.00 L 21610630.00 18970223.00 A 90798.59 90798.59 0 0 1 21610630.00 19151823.00  zM 21610630.00 19348674.00 L 21177560.00 19348674.00 A 90798.59 90798.59 0 0 1 21177560.00 19167074.00 L 21610630.00 19167074.00 A 90798.59 90798.59 0 0 1 21610630.00 19348674.00  zM 21610630.00 19545524.00 L 21177560.00 19545524.00 A 90798.59 90798.59 0 0 1 21177560.00 19363924.00 L 21610630.00 19363924.00 A 90798.59 90798.59 0 0 1 21610630.00 19545524.00  zM 21610630.00 19742374.00 L 21177560.00 19742374.00 A 90798.59 90798.59 0 0 1 21177560.00 19560774.00 L 21610630.00 19560774.00 A 90798.59 90798.59 0 0 1 21610630.00 19742374.00  zM 21610630.00 19939225.00 L 21177560.00 19939225.00 A 90798.59 90798.59 0 0 1 21177560.00 19757625.00 L 21610630.00 19757625.00 A 90798.59 90798.59 0 0 1 21610630.00 19939225.00  zM 21610630.00 20136075.00 L 21177560.00 20136075.00 A 90798.59 90798.59 0 0 1 21177560.00 19954475.00 L 21610630.00 19954475.00 A 90798.59 90798.59 0 0 1 21610630.00 20136075.00  zM 21610630.00 20332925.00 L 21177560.00 20332925.00 A 90798.59 90798.59 0 0 1 21177560.00 20151325.00 L 21610630.00 20151325.00 A 90798.59 90798.59 0 0 1 21610630.00 20332925.00  zM 22128820.00 20311142.00 L 21801104.00 20311142.00 L 21801104.00 19995394.00 L 22128820.00 19995394.00 L 22128820.00 20311142.00  zM 21610630.00 20726626.00 L 21177560.00 20726626.00 A 90798.59 90798.59 0 0 1 21177560.00 20545026.00 L 21610630.00 20545026.00 A 90798.59 90798.59 0 0 1 21610630.00 20726626.00  zM 21610630.00 20529776.00 L 21177560.00 20529776.00 A 90798.59 90798.59 0 0 1 21177560.00 20348176.00 L 21610630.00 20348176.00 A 90798.59 90798.59 0 0 1 21610630.00 20529776.00  zM 21610630.00 20923477.00 L 21177560.00 20923477.00 A 90798.59 90798.59 0 0 1 21177560.00 20741877.00 L 21610630.00 20741877.00 A 90798.59 90798.59 0 0 1 21610630.00 20923477.00  zM 21610630.00 21120327.00 L 21177560.00 21120327.00 A 90798.59 90798.59 0 0 1 21177560.00 20938727.00 L 21610630.00 20938727.00 A 90798.59 90798.59 0 0 1 21610630.00 21120327.00  zM 21610630.00 21317177.00 L 21177560.00 21317177.00 A 90798.59 90798.59 0 0 1 21177560.00 21135577.00 L 21610630.00 21135577.00 A 90798.59 90798.59 0 0 1 21610630.00 21317177.00  zM 22128820.00 20685708.00 L 21801104.00 20685708.00 L 21801104.00 20369960.00 L 22128820.00 20369960.00 L 22128820.00 20685708.00  zM 22128819.00 21059174.00 L 21801103.00 21059174.00 L 21801103.00 20743426.00 L 22128819.00 20743426.00 L 22128819.00 21059174.00  zM 22128819.00 21433740.00 L 21801103.00 21433740.00 L 21801103.00 21117992.00 L 22128819.00 21117992.00 L 22128819.00 21433740.00  zM 22446143.00 21435433.00 L 22191143.00 21435433.00 L 22191143.00 21135433.00 L 22446143.00 21135433.00 L 22446143.00 21435433.00  zM 22446143.00 21041733.00 L 22191143.00 21041733.00 L 22191143.00 20741733.00 L 22446143.00 20741733.00 L 22446143.00 21041733.00  zM 22841143.00 21041733.00 L 22586143.00 21041733.00 L 22586143.00 20741733.00 L 22841143.00 20741733.00 L 22841143.00 21041733.00  zM 22841143.00 21435433.00 L 22586143.00 21435433.00 L 22586143.00 21135433.00 L 22841143.00 21135433.00 L 22841143.00 21435433.00  zM 23966614.00 19806731.00 L 23711614.00 19806731.00 L 23711614.00 19506731.00 L 23966614.00 19506731.00 L 23966614.00 19806731.00  zM 24361614.00 19806731.00 L 24106614.00 19806731.00 L 24106614.00 19506731.00 L 24361614.00 19506731.00 L 24361614.00 19806731.00  zM 24973733.00 18958384.00 L 24460977.00 18958384.00 L 24460977.00 18780274.00 L 24973733.00 18780274.00 L 24973733.00 18958384.00  zM 24973733.00 19352085.00 L 24460977.00 19352085.00 L 24460977.00 19173975.00 L 24973733.00 19173975.00 L 24973733.00 19352085.00  zM 24973733.00 19745786.00 L 24460977.00 19745786.00 L 24460977.00 19567676.00 L 24973733.00 19567676.00 L 24973733.00 19745786.00  zM 24973733.00 20572558.00 L 24460977.00 20572558.00 L 24460977.00 20276338.00 L 24973733.00 20276338.00 L 24973733.00 20572558.00  zM 24973733.00 18761534.00 L 24460977.00 18761534.00 L 24460977.00 18583424.00 L 24973733.00 18583424.00 L 24973733.00 18761534.00  zM 24973733.00 19155235.00 L 24460977.00 19155235.00 L 24460977.00 18977125.00 L 24973733.00 18977125.00 L 24973733.00 19155235.00  zM 24973733.00 19548936.00 L 24460977.00 19548936.00 L 24460977.00 19370826.00 L 24973733.00 19370826.00 L 24973733.00 19548936.00  zM 24973733.00 19942636.00 L 24460977.00 19942636.00 L 24460977.00 19764526.00 L 24973733.00 19764526.00 L 24973733.00 19942636.00  zM 24973733.00 20257597.00 L 24460977.00 20257597.00 L 24460977.00 19961377.00 L 24973733.00 19961377.00 L 24973733.00 20257597.00  zM 25367434.00 21635550.00 L 24520032.00 21635550.00 L 24520032.00 20717282.00 L 25367434.00 20717282.00 L 25367434.00 21635550.00  zM 25140584.00 20302398.32 m -130461.68 0 a 130461.68 130461.68 0 1 1 260923.35 0a 130461.68 130461.68 0 1 1 -260923.35 0M 26914678.00 21635550.00 L 26067276.00 21635550.00 L 26067276.00 20717282.00 L 26914678.00 20717282.00 L 26914678.00 21635550.00  zM 10787399.67 22909523.00 m -198899.00 0 a 198899.00 198899.00 0 1 1 397798.01 0a 198899.00 198899.00 0 1 1 -397798.01 0M 11631654.00 23183937.00 L 11331654.00 23183937.00 L 11331654.00 22928937.00 L 11631654.00 22928937.00 L 11631654.00 23183937.00  zM 11631654.00 23578937.00 L 11331654.00 23578937.00 L 11331654.00 23323937.00 L 11631654.00 23323937.00 L 11631654.00 23578937.00  zM 11948073.00 22866614.00 L 11632325.00 22866614.00 L 11632325.00 22538898.00 L 11948073.00 22538898.00 L 11948073.00 22866614.00  zM 12145354.00 23893700.00 L 11849134.00 23893700.00 L 11849134.00 23696850.00 L 12145354.00 23696850.00 L 12145354.00 23893700.00  zM 12322639.00 22866614.00 L 12006891.00 22866614.00 L 12006891.00 22538898.00 L 12322639.00 22538898.00 L 12322639.00 22866614.00  zM 12745275.00 23293779.00 L 12154725.00 23293779.00 L 12154725.00 22997559.00 L 12745275.00 22997559.00 L 12745275.00 23293779.00  zM 12145354.00 23696849.00 L 11849134.00 23696849.00 L 11849134.00 23106299.00 L 12145354.00 23106299.00 L 12145354.00 23696849.00  zM 12745275.00 24002440.00 L 12154725.00 24002440.00 L 12154725.00 23706220.00 L 12745275.00 23706220.00 L 12745275.00 24002440.00  zM 12696103.00 22866613.00 L 12380355.00 22866613.00 L 12380355.00 22538897.00 L 12696103.00 22538897.00 L 12696103.00 22866613.00  zM 13070669.00 22866613.00 L 12754921.00 22866613.00 L 12754921.00 22538897.00 L 13070669.00 22538897.00 L 13070669.00 22866613.00  zM 13721429.00 22525589.00 L 13721429.00 22190943.00 A 151013.49 151013.49 0 0 1 14023453.00 22190943.00 L 14023453.00 22525589.00 A 151013.49 151013.49 0 0 1 13721429.00 22525589.00  zM 13050866.00 23696849.00 L 12754646.00 23696849.00 L 12754646.00 23106299.00 L 13050866.00 23106299.00 L 13050866.00 23696849.00  zM 13050866.00 23893700.00 L 12754646.00 23893700.00 L 12754646.00 23696850.00 L 13050866.00 23696850.00 L 13050866.00 23893700.00  zM 14221429.00 22525589.00 L 14221429.00 22190943.00 A 151013.49 151013.49 0 0 1 14523453.00 22190943.00 L 14523453.00 22525589.00 A 151013.49 151013.49 0 0 1 14221429.00 22525589.00  zM 14721429.00 22525589.00 L 14721429.00 22190943.00 A 151013.49 151013.49 0 0 1 15023453.00 22190943.00 L 15023453.00 22525589.00 A 151013.49 151013.49 0 0 1 14721429.00 22525589.00  zM 14181968.00 24820660.00 L 13926968.00 24820660.00 L 13926968.00 24520660.00 L 14181968.00 24520660.00 L 14181968.00 24820660.00  zM 15285630.00 24820660.00 L 15030630.00 24820660.00 L 15030630.00 24520660.00 L 15285630.00 24520660.00 L 15285630.00 24820660.00  zM 12976378.00 24945323.00 L 12676378.00 24945323.00 L 12676378.00 24690323.00 L 12976378.00 24690323.00 L 12976378.00 24945323.00  zM 12976378.00 25340323.00 L 12676378.00 25340323.00 L 12676378.00 25085323.00 L 12976378.00 25085323.00 L 12976378.00 25340323.00  zM 13545354.00 25321188.00 L 13091654.00 25321188.00 L 13091654.00 25044654.00 L 13545354.00 25044654.00 L 13545354.00 25321188.00  zM 12990236.00 25714260.00 L 12662520.00 25714260.00 L 12662520.00 25398512.00 L 12990236.00 25398512.00 L 12990236.00 25714260.00  zM 12990236.00 26088826.00 L 12662520.00 26088826.00 L 12662520.00 25773078.00 L 12990236.00 25773078.00 L 12990236.00 26088826.00  zM 14576968.00 24820660.00 L 14321968.00 24820660.00 L 14321968.00 24520660.00 L 14576968.00 24520660.00 L 14576968.00 24820660.00  zM 14890630.00 24820660.00 L 14635630.00 24820660.00 L 14635630.00 24520660.00 L 14890630.00 24520660.00 L 14890630.00 24820660.00  zM 14608346.00 25321188.00 L 14154646.00 25321188.00 L 14154646.00 25044654.00 L 14608346.00 25044654.00 L 14608346.00 25321188.00  zM 14608346.00 25695203.00 L 14154646.00 25695203.00 L 14154646.00 25418669.00 L 14608346.00 25418669.00 L 14608346.00 25695203.00  zM 13545354.00 26069219.00 L 13091654.00 26069219.00 L 13091654.00 25792685.00 L 13545354.00 25792685.00 L 13545354.00 26069219.00  zM 12789448.00 27460952.00 L 12186142.00 27460952.00 L 12186142.00 26330086.00 L 12789448.00 26330086.00 L 12789448.00 27460952.00  zM 13860314.00 27460952.00 L 13257008.00 27460952.00 L 13257008.00 26330086.00 L 13860314.00 26330086.00 L 13860314.00 27460952.00  zM 12903622.00 28106621.00 L 12528662.00 28106621.00 L 12528662.00 27652921.00 L 12903622.00 27652921.00 L 12903622.00 28106621.00  zM 13887875.00 28126306.00 L 13040473.00 28126306.00 L 13040473.00 27633236.00 L 13887875.00 27633236.00 L 13887875.00 28126306.00  zM 14608346.00 26069219.00 L 14154646.00 26069219.00 L 14154646.00 25792685.00 L 14608346.00 25792685.00 L 14608346.00 26069219.00  zM 15292911.59 26591635.48 m -160563.52 0 a 160563.52 160563.52 0 1 1 321127.04 0a 160563.52 160563.52 0 1 1 -321127.04 0M 14637874.00 27762677.00 L 14007008.00 27762677.00 L 14007008.00 27210551.00 L 14637874.00 27210551.00 L 14637874.00 27762677.00  zM 14637874.00 28431968.00 L 14007008.00 28431968.00 L 14007008.00 27879842.00 L 14637874.00 27879842.00 L 14637874.00 28431968.00  zM 15989449.00 21961024.00 L 15734449.00 21961024.00 L 15734449.00 21661024.00 L 15989449.00 21661024.00 L 15989449.00 21961024.00  zM 15221429.00 22525589.00 L 15221429.00 22190943.00 A 151013.49 151013.49 0 1 1 15523453.00 22190943.00 L 15523453.00 22525589.00 A 151013.49 151013.49 0 0 1 15221429.00 22525589.00  zM 16238267.00 23716614.00 L 15607401.00 23716614.00 L 15607401.00 23164488.00 L 16238267.00 23164488.00 L 16238267.00 23716614.00  zM 16384449.00 21961024.00 L 16129449.00 21961024.00 L 16129449.00 21661024.00 L 16384449.00 21661024.00 L 16384449.00 21961024.00  zM 17446931.00 23284724.00 L 16993231.00 23284724.00 L 16993231.00 22516064.00 L 17446931.00 22516064.00 L 17446931.00 23284724.00  zM 17308783.00 23674488.00 L 16993035.00 23674488.00 L 16993035.00 23346772.00 L 17308783.00 23346772.00 L 17308783.00 23674488.00  zM 17683349.00 23674488.00 L 17367601.00 23674488.00 L 17367601.00 23346772.00 L 17683349.00 23346772.00 L 17683349.00 23674488.00  zM 16238267.00 24385905.00 L 15607401.00 24385905.00 L 15607401.00 23833779.00 L 16238267.00 23833779.00 L 16238267.00 24385905.00  zM 16533542.00 26149192.00 L 16335748.00 26149192.00 L 16335748.00 24514390.00 L 16533542.00 24514390.00 L 16533542.00 26149192.00  zM 16021731.00 26149192.00 L 15823937.00 26149192.00 L 15823937.00 24514390.00 L 16021731.00 24514390.00 L 16021731.00 26149192.00  zM 15765826.00 26149192.00 L 15568032.00 26149192.00 L 15568032.00 24514390.00 L 15765826.00 24514390.00 L 15765826.00 26149192.00  zM 16277637.00 26149192.00 L 16079843.00 26149192.00 L 16079843.00 24514390.00 L 16277637.00 24514390.00 L 16277637.00 26149192.00  zM 17045353.00 26149192.00 L 16847559.00 26149192.00 L 16847559.00 24514390.00 L 17045353.00 24514390.00 L 17045353.00 26149192.00  zM 17301259.00 26149192.00 L 17103465.00 26149192.00 L 17103465.00 24514390.00 L 17301259.00 24514390.00 L 17301259.00 26149192.00  zM 17557164.00 26149192.00 L 17359370.00 26149192.00 L 17359370.00 24514390.00 L 17557164.00 24514390.00 L 17557164.00 26149192.00  zM 16789448.00 26149192.00 L 16591654.00 26149192.00 L 16591654.00 24514390.00 L 16789448.00 24514390.00 L 16789448.00 26149192.00  zM 15818525.08 29834006.71 m -308222.86 0 a 308222.86 308222.86 0 1 1 616445.72 0a 308222.86 308222.86 0 1 1 -616445.72 0M 16113491.08 30564072.71 m -308222.86 0 a 308222.86 308222.86 0 1 1 616445.72 0a 308222.86 308222.86 0 1 1 -616445.72 0M 17582823.00 22210629.00 L 17582823.00 21777559.00 A 90798.59 90798.59 0 0 1 17764423.00 21777559.00 L 17764423.00 22210629.00 A 90798.59 90798.59 0 1 1 17582823.00 22210629.00  zM 17976523.00 22210629.00 L 17976523.00 21777559.00 A 90798.59 90798.59 0 0 1 18158123.00 21777559.00 L 18158123.00 22210629.00 A 90798.59 90798.59 0 1 1 17976523.00 22210629.00  zM 18173374.00 22210629.00 L 18173374.00 21777559.00 A 90798.59 90798.59 0 0 1 18354974.00 21777559.00 L 18354974.00 22210629.00 A 90798.59 90798.59 0 0 1 18173374.00 22210629.00  zM 17779673.00 22210629.00 L 17779673.00 21777559.00 A 90798.59 90798.59 0 0 1 17961273.00 21777559.00 L 17961273.00 22210629.00 A 90798.59 90798.59 0 1 1 17779673.00 22210629.00  zM 18431183.00 23284724.00 L 17977483.00 23284724.00 L 17977483.00 22516064.00 L 18431183.00 22516064.00 L 18431183.00 23284724.00  zM 18056813.00 23674487.00 L 17741065.00 23674487.00 L 17741065.00 23346771.00 L 18056813.00 23346771.00 L 18056813.00 23674487.00  zM 18068975.00 26149192.00 L 17871181.00 26149192.00 L 17871181.00 24514390.00 L 18068975.00 24514390.00 L 18068975.00 26149192.00  zM 17813070.00 26149192.00 L 17615276.00 26149192.00 L 17615276.00 24514390.00 L 17813070.00 24514390.00 L 17813070.00 26149192.00  zM 18324881.00 26149192.00 L 18127087.00 26149192.00 L 18127087.00 24514390.00 L 18324881.00 24514390.00 L 18324881.00 26149192.00  zM 18370224.00 22210629.00 L 18370224.00 21777559.00 A 90798.59 90798.59 0 0 1 18551824.00 21777559.00 L 18551824.00 22210629.00 A 90798.59 90798.59 0 1 1 18370224.00 22210629.00  zM 18567075.00 22210629.00 L 18567075.00 21777559.00 A 90798.59 90798.59 0 0 1 18748675.00 21777559.00 L 18748675.00 22210629.00 A 90798.59 90798.59 0 1 1 18567075.00 22210629.00  zM 18431379.00 23674487.00 L 18115631.00 23674487.00 L 18115631.00 23346771.00 L 18431379.00 23346771.00 L 18431379.00 23674487.00  zM 18580787.00 26149192.00 L 18382993.00 26149192.00 L 18382993.00 24514390.00 L 18580787.00 24514390.00 L 18580787.00 26149192.00  zM 18836692.00 26149192.00 L 18638898.00 26149192.00 L 18638898.00 24514390.00 L 18836692.00 24514390.00 L 18836692.00 26149192.00  zM 14978167.00 27721161.00 A 200698.75 200698.75 0 0 1 14978168.00 27327460.00 L 22497424.00 27327460.00 A 200710.13 200710.13 0 0 1 22497425.00 27721159.00 L 14978167.00 27721161.00  zM 18763925.00 22210629.00 L 18763925.00 21777559.00 A 90798.59 90798.59 0 0 1 18945525.00 21777559.00 L 18945525.00 22210629.00 A 90798.59 90798.59 0 1 1 18763925.00 22210629.00  zM 18923741.00 22728819.00 L 18607993.00 22728819.00 L 18607993.00 22401103.00 L 18923741.00 22401103.00 L 18923741.00 22728819.00  zM 19157626.00 22210629.00 L 19157626.00 21777559.00 A 90798.59 90798.59 0 0 1 19339226.00 21777559.00 L 19339226.00 22210629.00 A 90798.59 90798.59 0 1 1 19157626.00 22210629.00  zM 18960775.00 22210629.00 L 18960775.00 21777559.00 A 90798.59 90798.59 0 0 1 19142375.00 21777559.00 L 19142375.00 22210629.00 A 90798.59 90798.59 0 1 1 18960775.00 22210629.00  zM 19354476.00 22210629.00 L 19354476.00 21777559.00 A 90798.59 90798.59 0 0 1 19536076.00 21777559.00 L 19536076.00 22210629.00 A 90798.59 90798.59 0 1 1 19354476.00 22210629.00  zM 19748177.00 22210629.00 L 19748177.00 21777559.00 A 90798.59 90798.59 0 0 1 19929777.00 21777559.00 L 19929777.00 22210629.00 A 90798.59 90798.59 0 1 1 19748177.00 22210629.00  zM 19945027.00 22210629.00 L 19945027.00 21777559.00 A 90798.59 90798.59 0 0 1 20126627.00 21777559.00 L 20126627.00 22210629.00 A 90798.59 90798.59 0 1 1 19945027.00 22210629.00  zM 19551326.00 22210629.00 L 19551326.00 21777559.00 A 90798.59 90798.59 0 0 1 19732926.00 21777559.00 L 19732926.00 22210629.00 A 90798.59 90798.59 0 1 1 19551326.00 22210629.00  zM 19298307.00 22728819.00 L 18982559.00 22728819.00 L 18982559.00 22401103.00 L 19298307.00 22401103.00 L 19298307.00 22728819.00  zM 19655512.00 24020157.00 L 19355512.00 24020157.00 L 19355512.00 23765157.00 L 19655512.00 23765157.00 L 19655512.00 24020157.00  zM 19655512.00 24415157.00 L 19355512.00 24415157.00 L 19355512.00 24160157.00 L 19655512.00 24160157.00 L 19655512.00 24415157.00  zM 20535578.00 22210629.00 L 20535578.00 21777559.00 A 90798.59 90798.59 0 0 1 20717178.00 21777559.00 L 20717178.00 22210629.00 A 90798.59 90798.59 0 1 1 20535578.00 22210629.00  zM 20141878.00 22210629.00 L 20141878.00 21777559.00 A 90798.59 90798.59 0 0 1 20323478.00 21777559.00 L 20323478.00 22210629.00 A 90798.59 90798.59 0 1 1 20141878.00 22210629.00  zM 20338728.00 22210629.00 L 20338728.00 21777559.00 A 90798.59 90798.59 0 0 1 20520328.00 21777559.00 L 20520328.00 22210629.00 A 90798.59 90798.59 0 1 1 20338728.00 22210629.00  zM 20624094.00 24041063.00 L 20296378.00 24041063.00 L 20296378.00 23725315.00 L 20624094.00 23725315.00 L 20624094.00 24041063.00  zM 21759921.00 23716614.00 L 21129055.00 23716614.00 L 21129055.00 23164488.00 L 21759921.00 23164488.00 L 21759921.00 23716614.00  zM 20624094.00 24415629.00 L 20296378.00 24415629.00 L 20296378.00 24099881.00 L 20624094.00 24099881.00 L 20624094.00 24415629.00  zM 21017795.00 24041063.00 L 20690079.00 24041063.00 L 20690079.00 23725315.00 L 21017795.00 23725315.00 L 21017795.00 24041063.00  zM 21017795.00 24415629.00 L 20690079.00 24415629.00 L 20690079.00 24099881.00 L 21017795.00 24099881.00 L 21017795.00 24415629.00  zM 21759921.00 24385905.00 L 21129055.00 24385905.00 L 21129055.00 23833779.00 L 21759921.00 23833779.00 L 21759921.00 24385905.00  zM 22547323.00 23716614.00 L 21916457.00 23716614.00 L 21916457.00 23164488.00 L 22547323.00 23164488.00 L 22547323.00 23716614.00  zM 22547323.00 24385905.00 L 21916457.00 24385905.00 L 21916457.00 23833779.00 L 22547323.00 23833779.00 L 22547323.00 24385905.00  zM 23844488.00 24138202.00 L 23544488.00 24138202.00 L 23544488.00 23883202.00 L 23844488.00 23883202.00 L 23844488.00 24138202.00  zM 23844488.00 23743202.00 L 23544488.00 23743202.00 L 23544488.00 23488202.00 L 23844488.00 23488202.00 L 23844488.00 23743202.00  zM 23603688.00 24738399.00 L 23603688.00 24325013.00 A 90798.59 90798.59 0 0 1 23785288.00 24325013.00 L 23785288.00 24738399.00 A 90798.59 90798.59 0 1 1 23603688.00 24738399.00  zM 24238189.00 23743202.00 L 23938189.00 23743202.00 L 23938189.00 23488202.00 L 24238189.00 23488202.00 L 24238189.00 23743202.00  zM 24238189.00 24138202.00 L 23938189.00 24138202.00 L 23938189.00 23883202.00 L 24238189.00 23883202.00 L 24238189.00 24138202.00  zM 23800538.00 24738399.00 L 23800538.00 24325013.00 A 90798.59 90798.59 0 0 1 23982138.00 24325013.00 L 23982138.00 24738399.00 A 90798.59 90798.59 0 1 1 23800538.00 24738399.00  zM 23997389.00 24738399.00 L 23997389.00 24325013.00 A 90798.59 90798.59 0 0 1 24178989.00 24325013.00 L 24178989.00 24738399.00 A 90798.59 90798.59 0 1 1 23997389.00 24738399.00  zM 25671523.00 22958884.00 L 25421642.00 22908045.00 L 25481453.00 22614068.00 L 25731334.00 22664907.00 L 25671523.00 22958884.00  zM 26058593.00 23037634.00 L 25808712.00 22986795.00 L 25868523.00 22692818.00 L 26118404.00 22743657.00 L 26058593.00 23037634.00  zM 26691401.00 22397091.00 L 26285389.00 22314487.00 L 26383691.00 21831315.00 L 26789703.00 21913919.00 L 26691401.00 22397091.00  zM 26534419.00 23168685.00 L 26128407.00 23086081.00 L 26226709.00 22602909.00 L 26632721.00 22685513.00 L 26534419.00 23168685.00  zM 26371201.00 23755007.00 L 25972921.00 23640802.00 L 26108829.00 23166833.00 L 26507109.00 23281038.00 L 26371201.00 23755007.00  zM 24194239.00 24738399.00 L 24194239.00 24325013.00 A 90798.59 90798.59 0 0 1 24375839.00 24325013.00 L 24375839.00 24738399.00 A 90798.59 90798.59 0 1 1 24194239.00 24738399.00  zM 25311986.00 24229477.00 L 25066865.00 24159189.00 L 25149556.00 23870811.00 L 25394677.00 23941099.00 L 25311986.00 24229477.00  zM 25691684.00 24338353.00 L 25446563.00 24268065.00 L 25529254.00 23979687.00 L 25774375.00 24049975.00 L 25691684.00 24338353.00  zM 26154163.00 24511907.00 L 25755883.00 24397702.00 L 25891791.00 23923733.00 L 26290071.00 24037938.00 L 26154163.00 24511907.00  zM 19092598.00 26149192.00 L 18894804.00 26149192.00 L 18894804.00 24514390.00 L 19092598.00 24514390.00 L 19092598.00 26149192.00  zM 19604409.00 26149192.00 L 19406615.00 26149192.00 L 19406615.00 24514390.00 L 19604409.00 24514390.00 L 19604409.00 26149192.00  zM 19860314.00 26149192.00 L 19662520.00 26149192.00 L 19662520.00 24514390.00 L 19860314.00 24514390.00 L 19860314.00 26149192.00  zM 19348503.00 26149192.00 L 19150709.00 26149192.00 L 19150709.00 24514390.00 L 19348503.00 24514390.00 L 19348503.00 26149192.00  zM 20116220.00 26149192.00 L 19918426.00 26149192.00 L 19918426.00 24514390.00 L 20116220.00 24514390.00 L 20116220.00 26149192.00  zM 20628031.00 26149192.00 L 20430237.00 26149192.00 L 20430237.00 24514390.00 L 20628031.00 24514390.00 L 20628031.00 26149192.00  zM 20883936.00 26149192.00 L 20686142.00 26149192.00 L 20686142.00 24514390.00 L 20883936.00 24514390.00 L 20883936.00 26149192.00  zM 20372125.00 26149192.00 L 20174331.00 26149192.00 L 20174331.00 24514390.00 L 20372125.00 24514390.00 L 20372125.00 26149192.00  zM 21139842.00 26149192.00 L 20942048.00 26149192.00 L 20942048.00 24514390.00 L 21139842.00 24514390.00 L 21139842.00 26149192.00  zM 21651653.00 26149192.00 L 21453859.00 26149192.00 L 21453859.00 24514390.00 L 21651653.00 24514390.00 L 21651653.00 26149192.00  zM 21395747.00 26149192.00 L 21197953.00 26149192.00 L 21197953.00 24514390.00 L 21395747.00 24514390.00 L 21395747.00 26149192.00  zM 21907558.00 26149192.00 L 21709764.00 26149192.00 L 21709764.00 24514390.00 L 21907558.00 24514390.00 L 21907558.00 26149192.00  zM 23406837.00 24738399.00 L 23406837.00 24325013.00 A 90798.59 90798.59 0 0 1 23588437.00 24325013.00 L 23588437.00 24738399.00 A 90798.59 90798.59 0 1 1 23406837.00 24738399.00  zM 23603688.00 26490368.00 L 23603688.00 26076982.00 A 90798.59 90798.59 0 0 1 23785288.00 26076982.00 L 23785288.00 26490368.00 A 90798.59 90798.59 0 0 1 23603688.00 26490368.00  zM 24293385.00 25797926.00 L 23489291.00 25797926.00 L 23489291.00 25017454.00 L 24293385.00 25017454.00 L 24293385.00 25797926.00  zM 24960708.00 25190998.00 L 24632992.00 25190998.00 L 24632992.00 24875250.00 L 24960708.00 24875250.00 L 24960708.00 25190998.00  zM 24960708.00 25565564.00 L 24632992.00 25565564.00 L 24632992.00 25249816.00 L 24960708.00 25249816.00 L 24960708.00 25565564.00  zM 23997389.00 26490368.00 L 23997389.00 26076982.00 A 90798.59 90798.59 0 0 1 24178989.00 26076982.00 L 24178989.00 26490368.00 A 90798.59 90798.59 0 0 1 23997389.00 26490368.00  zM 22182675.59 26591635.48 m -160563.52 0 a 160563.52 160563.52 0 1 1 321127.04 0a 160563.52 160563.52 0 1 1 -321127.04 0M 23406837.00 26490368.00 L 23406837.00 26076982.00 A 90798.59 90798.59 0 1 1 23588437.00 26076982.00 L 23588437.00 26490368.00 A 90798.59 90798.59 0 0 1 23406837.00 26490368.00  zM 23800538.00 26490368.00 L 23800538.00 26076982.00 A 90798.59 90798.59 0 0 1 23982138.00 26076982.00 L 23982138.00 26490368.00 A 90798.59 90798.59 0 0 1 23800538.00 26490368.00  zM 24194239.00 26490368.00 L 24194239.00 26076982.00 A 90798.59 90798.59 0 0 1 24375839.00 26076982.00 L 24375839.00 26490368.00 A 90798.59 90798.59 0 0 1 24194239.00 26490368.00  zM 24216339.00 26994698.00 L 23961339.00 26994698.00 L 23961339.00 26694698.00 L 24216339.00 26694698.00 L 24216339.00 26994698.00  zM 23821339.00 26994698.00 L 23566339.00 26994698.00 L 23566339.00 26694698.00 L 23821339.00 26694698.00 L 23821339.00 26994698.00  zM 23130000.00 29880000.00 L 21570000.00 29880000.00 L 21570000.00 29020000.00 L 23130000.00 29020000.00 L 23130000.00 29880000.00  zM 20312284.00 30592204.00 L 20047560.00 30592204.00 L 20047560.00 30414094.00 L 20312284.00 30414094.00 L 20312284.00 30592204.00  zM 21052441.00 30592204.00 L 20787717.00 30592204.00 L 20787717.00 30414094.00 L 21052441.00 30414094.00 L 21052441.00 30592204.00  zM 19971733.00 30769016.00 L 19644017.00 30769016.00 L 19644017.00 30453268.00 L 19971733.00 30453268.00 L 19971733.00 30769016.00  zM 20312284.00 30789055.00 L 20047560.00 30789055.00 L 20047560.00 30610945.00 L 20312284.00 30610945.00 L 20312284.00 30789055.00  zM 19971733.00 31143582.00 L 19644017.00 31143582.00 L 19644017.00 30827834.00 L 19971733.00 30827834.00 L 19971733.00 31143582.00  zM 20312284.00 30985905.00 L 20047560.00 30985905.00 L 20047560.00 30807795.00 L 20312284.00 30807795.00 L 20312284.00 30985905.00  zM 21052441.00 30789055.00 L 20787717.00 30789055.00 L 20787717.00 30610945.00 L 21052441.00 30610945.00 L 21052441.00 30789055.00  zM 21455985.00 30769016.00 L 21128269.00 30769016.00 L 21128269.00 30453268.00 L 21455985.00 30453268.00 L 21455985.00 30769016.00  zM 21052441.00 30985905.00 L 20787717.00 30985905.00 L 20787717.00 30807795.00 L 21052441.00 30807795.00 L 21052441.00 30985905.00  zM 21455985.00 31143582.00 L 21128269.00 31143582.00 L 21128269.00 30827834.00 L 21455985.00 30827834.00 L 21455985.00 31143582.00  z"/>
</g>
</svg>
