<svg width="43.38711668mm" height="55.79002812mm" viewBox="0 0 17081542 21964578"  version="1.1" xmlns="http://www.w3.org/2000/svg" xmlns:xlink="http://www.w3.org/1999/xlink">
<desc>
Origin 0 0 Bound 10000000 10000000 17081542 21964578
</desc>
<g fill-rule="evenodd" fill="rgb(128, 0, 128)" stroke="black" stroke-width="1" transform="translate(0, 21964578) scale(1, -1) translate(-10000000, -10000000)">
<path id="N" d="M 19972604.00 31950845.00 L 20134058.00 31906415.00 L 20295205.00 31857128.00 L 20456014.00 31802966.00 L 20616455.00 31743912.00 L 20776495.00 31679949.00 L 20936105.00 31611060.00 L 21095252.00 31537227.00 L 21253906.00 31458433.00 L 21412035.00 31374662.00 L 21569608.00 31285895.00 L 21726594.00 31192116.00 L 21882951.00 31093319.00 L 22038600.00 30989534.00 L 22193455.00 30880799.00 L 22398547.00 30728185.00 L 22601871.00 30566930.00 L 22803226.00 30397124.00 L 23002407.00 30218857.00 L 23199212.00 30032220.00 L 23393437.00 29837302.00 L 23584878.00 29634194.00 L 23773332.00 29422987.00 L 23958596.00 29203771.00 L 24140466.00 28976635.00 L 24318739.00 28741672.00 L 24493212.00 28498969.00 L 24663683.00 28248622.00 L 24829982.00 27990790.00 L 24991979.00 27725708.00 L 25149541.00 27453609.00 L 25302537.00 27174730.00 L 25450837.00 26889308.00 L 25594310.00 26597576.00 L 25732824.00 26299772.00 L 25866248.00 25996132.00 L 25994451.00 25686890.00 L 26117302.00 25372283.00 L 26234671.00 25052546.00 L 26346425.00 24727916.00 L 26452434.00 24398627.00 L 26552567.00 24064916.00 L 26646697.00 23727020.00 L 26734737.00 23385176.00 L 26816629.00 23039628.00 L 26892314.00 22690618.00 L 26961733.00 22338388.00 L 27024829.00 21983179.00 L 27081542.00 21625234.00 L 27081542.00 16703974.00 L 27037528.00 16510885.00 A 8762217.90 8762217.90 0 0 0 26670168.00 15381693.00 L 26592144.00 15199667.00 L 26570887.00 15247446.00 A 354333.64 354333.64 0 1 1 26383273.00 14748223.00 L 26267248.00 14515061.00 A 8763267.58 8763267.58 0 0 0 20175916.00 10040967.00 L 19918723.00 10000000.00 L 17162818.00 10000000.00 L 16905625.00 10040967.00 A 8763780.75 8763780.75 0 0 0 10814293.00 14515061.00 L 10698268.00 14748223.00 L 10748445.00 14733495.00 A 354333.49 354333.49 0 1 1 10489395.00 15199667.00 L 10411372.00 15381693.00 A 8762423.51 8762423.51 0 0 0 10044013.00 16510885.00 L 9999999.00 16703974.00 L 10000000.00 21625234.00 L 10013577.00 21714964.00 L 10071891.00 22072247.00 L 10136573.00 22426734.00 L 10207564.00 22778182.00 L 10284806.00 23126349.00 L 10368241.00 23470994.00 L 10457809.00 23811873.00 L 10553450.00 24148746.00 L 10655064.00 24481373.00 L 10762522.00 24809519.00 L 10875692.00 25132948.00 L 10994444.00 25451425.00 L 11118645.00 25764713.00 L 11248166.00 26072576.00 L 11382875.00 26374780.00 L 11522640.00 26671088.00 L 11667332.00 26961264.00 L 11816819.00 27245073.00 L 11970969.00 27522278.00 L 12129652.00 27792645.00 L 12292736.00 28055937.00 L 12460091.00 28311919.00 L 12631581.00 28560365.00 L 12807022.00 28801142.00 L 12986214.00 29034157.00 L 13168952.00 29259321.00 L 13355032.00 29476543.00 L 13544252.00 29685734.00 L 13736408.00 29886803.00 L 13931297.00 30079659.00 L 14128715.00 30264212.00 L 14328459.00 30440372.00 L 14530325.00 30608049.00 L 14734111.00 30767152.00 L 14939612.00 30917591.00 L 15094741.00 31024681.00 L 15250636.00 31126807.00 L 15407209.00 31223934.00 L 15564394.00 31316040.00 L 15722156.00 31403140.00 L 15880464.00 31485250.00 L 16039285.00 31562388.00 L 16198590.00 31634571.00 L 16358347.00 31701816.00 L 16518525.00 31764141.00 L 16679092.00 31821562.00 L 16840017.00 31874098.00 L 17001270.00 31921764.00 L 17162818.00 31964578.00 L 18196905.00 31964577.00 L 18187952.00 31911806.00 A 354328.76 354328.76 0 1 1 18884636.00 31964577.00 L 19918724.00 31964578.00 L 19972604.00 31950845.00  zM 14313072.00 11673006.00 L 14159558.00 11352608.00 L 14462202.00 11207600.00 L 14615716.00 11527998.00 L 14313072.00 11673006.00  zM 15449231.00 11128630.00 L 15295717.00 10808232.00 L 15598361.00 10663224.00 L 15751875.00 10983622.00 L 15449231.00 11128630.00  zM 15729924.00 11714462.00 L 15576410.00 11394064.00 L 15879054.00 11249056.00 L 16032568.00 11569454.00 L 15729924.00 11714462.00  zM 14593765.00 12258838.00 L 14440251.00 11938440.00 L 14742895.00 11793432.00 L 14896409.00 12113830.00 L 14593765.00 12258838.00  zM 11496850.59 18164596.43 m -231297.57 0 a 231297.57 231297.57 0 1 1 462595.15 0a 231297.57 231297.57 0 1 1 -462595.15 0M 10996850.59 18164596.43 m -231297.57 0 a 231297.57 231297.57 0 1 1 462595.15 0a 231297.57 231297.57 0 1 1 -462595.15 0M 10996850.59 18664596.43 m -231297.57 0 a 231297.57 231297.57 0 1 1 462595.15 0a 231297.57 231297.57 0 1 1 -462595.15 0M 11496850.59 18664596.43 m -231297.57 0 a 231297.57 231297.57 0 1 1 462595.15 0a 231297.57 231297.57 0 1 1 -462595.15 0M 10996850.59 19164596.43 m -231297.57 0 a 231297.57 231297.57 0 1 1 462595.15 0a 231297.57 231297.57 0 1 1 -462595.15 0M 11496850.59 19164596.43 m -231297.57 0 a 231297.57 231297.57 0 1 1 462595.15 0a 231297.57 231297.57 0 1 1 -462595.15 0M 18078644.00 10531181.00 L 17743054.00 10531181.00 L 17743054.00 10175905.00 L 18078644.00 10175905.00 L 18078644.00 10531181.00  zM 18078644.00 11180787.00 L 17743054.00 11180787.00 L 17743054.00 10825511.00 L 18078644.00 10825511.00 L 18078644.00 11180787.00  zM 19338486.00 10531181.00 L 19002896.00 10531181.00 L 19002896.00 10175905.00 L 19338486.00 10175905.00 L 19338486.00 10531181.00  zM 19338486.00 11180787.00 L 19002896.00 11180787.00 L 19002896.00 10825511.00 L 19338486.00 10825511.00 L 19338486.00 11180787.00  zM 21632659.00 11128630.00 L 21330015.00 10983622.00 L 21483529.00 10663224.00 L 21786173.00 10808232.00 L 21632659.00 11128630.00  zM 21351966.00 11714462.00 L 21049322.00 11569454.00 L 21202836.00 11249056.00 L 21505480.00 11394064.00 L 21351966.00 11714462.00  zM 22768818.00 11673006.00 L 22466174.00 11527998.00 L 22619688.00 11207600.00 L 22922332.00 11352608.00 L 22768818.00 11673006.00  zM 22488125.00 12258838.00 L 22185481.00 12113830.00 L 22338995.00 11793432.00 L 22641639.00 11938440.00 L 22488125.00 12258838.00  zM 25140584.00 18026808.32 m -130461.68 0 a 130461.68 130461.68 0 1 1 260923.35 0a 130461.68 130461.68 0 1 1 -260923.35 0M 10996850.59 19664596.43 m -231297.57 0 a 231297.57 231297.57 0 1 1 462595.15 0a 231297.57 231297.57 0 1 1 -462595.15 0M 10996850.59 20164596.43 m -231297.57 0 a 231297.57 231297.57 0 1 1 462595.15 0a 231297.57 231297.57 0 1 1 -462595.15 0M 10393699.67 20909523.00 m -198899.00 0 a 198899.00 198899.00 0 1 1 397798.01 0a 198899.00 198899.00 0 1 1 -397798.01 0M 10537401.57 21409521.79 m -188544.21 0 a 188544.21 188544.21 0 1 1 377088.41 0a 188544.21 188544.21 0 1 1 -377088.41 0M 11037401.57 21409521.79 m -188544.21 0 a 188544.21 188544.21 0 1 1 377088.41 0a 188544.21 188544.21 0 1 1 -377088.41 0M 10537401.57 21909521.79 m -188544.21 0 a 188544.21 188544.21 0 1 1 377088.41 0a 188544.21 188544.21 0 1 1 -377088.41 0M 10537401.57 22409521.79 m -188544.21 0 a 188544.21 188544.21 0 1 1 377088.41 0a 188544.21 188544.21 0 1 1 -377088.41 0M 11037401.57 21909521.79 m -188544.21 0 a 188544.21 188544.21 0 1 1 377088.41 0a 188544.21 188544.21 0 1 1 -377088.41 0M 11037401.57 22409521.79 m -188544.21 0 a 188544.21 188544.21 0 1 1 377088.41 0a 188544.21 188544.21 0 1 1 -377088.41 0M 10787399.67 22909523.00 m -198899.00 0 a 198899.00 198899.00 0 1 1 397798.01 0a 198899.00 198899.00 0 1 1 -397798.01 0M 11496850.59 19664596.43 m -231297.57 0 a 231297.57 231297.57 0 1 1 462595.15 0a 231297.57 231297.57 0 1 1 -462595.15 0M 11496850.59 20164596.43 m -231297.57 0 a 231297.57 231297.57 0 1 1 462595.15 0a 231297.57 231297.57 0 1 1 -462595.15 0M 11181101.67 20909523.00 m -198899.00 0 a 198899.00 198899.00 0 1 1 397798.01 0a 198899.00 198899.00 0 1 1 -397798.01 0M 15292911.59 26591635.48 m -160563.52 0 a 160563.52 160563.52 0 1 1 321127.04 0a 160563.52 160563.52 0 1 1 -321127.04 0M 15818525.08 29834006.71 m -308222.86 0 a 308222.86 308222.86 0 1 1 616445.72 0a 308222.86 308222.86 0 1 1 -616445.72 0M 25140584.00 20302398.32 m -130461.68 0 a 130461.68 130461.68 0 1 1 260923.35 0a 130461.68 130461.68 0 1 1 -260923.35 0M 22182675.59 26591635.48 m -160563.52 0 a 160563.52 160563.52 0 1 1 321127.04 0a 160563.52 160563.52 0 1 1 -321127.04 0M 16113491.08 30564072.71 m -308222.86 0 a 308222.86 308222.86 0 1 1 616445.72 0a 308222.86 308222.86 0 1 1 -616445.72 0M 14978167.00 27721161.00 A 200698.75 200698.75 0 0 1 14978168.00 27327460.00 L 22497424.00 27327460.00 A 200710.13 200710.13 0 0 1 22497425.00 27721159.00 L 14978167.00 27721161.00  z"/>
</g>
</svg>
