<svg width="43.38711668mm" height="55.79002812mm" viewBox="0 0 17081542 21964578"  version="1.1" xmlns="http://www.w3.org/2000/svg" xmlns:xlink="http://www.w3.org/1999/xlink">
<desc>
Origin 0 0 Bound 10000000 10000000 17081542 21964578
</desc>
<g fill-rule="evenodd" fill="rgb(255, 0, 0)" stroke="black" stroke-width="1" transform="translate(0, 21964578) scale(1, -1) translate(-10000000, -10000000)">
<path id="N" d="M 13728951.00 24847021.00 L 13754997.00 24829618.00 L 13771231.38 24805321.00 L 14454904.00 24805321.00 L 14477865.00 24795810.00 L 14647217.95 24626458.00 L 14676193.00 24626458.00 L 14699154.00 24616947.00 L 14864889.00 24451212.00 L 15032279.50 24451212.00 L 15043957.00 24468689.00 A 80284.08 80284.08 0 1 0 15026554.00 24381197.00 L 15025545.35 24386268.00 L 14851439.00 24386268.00 L 14828478.00 24395779.00 L 14662743.00 24561514.00 L 14633767.00 24561514.00 L 14610805.00 24571025.00 L 14441453.95 24740377.00 L 13771231.38 24740377.00 A 77585.82 77585.82 0 1 0 13728951.00 24847021.00  z"/>
<path id="N" d="M 13227057.00 24285335.62 L 13227057.00 23673688.00 L 13217546.00 23650727.00 L 13215103.11 23648284.11 L 13217670.00 23646569.00 A 80284.08 80284.08 0 1 0 13130178.00 23663972.00 L 13150997.81 23668113.19 L 13156591.00 23681616.00 L 13162113.00 23687138.00 L 13162113.00 24285335.62 A 77585.82 77585.82 0 1 0 13227057.00 24285335.62  z"/>
<path id="N" d="M 15529384.00 24154567.00 L 15555430.00 24137164.00 L 15571664.38 24112867.00 L 16268586.00 24112867.00 L 16291547.00 24103356.00 L 16301953.87 24092949.13 L 16316284.00 24102524.00 A 80285.31 80285.31 0 1 0 16266724.00 24028352.00 L 16268048.43 24035010.57 L 16255136.00 24047923.00 L 15571664.38 24047923.00 A 77585.82 77585.82 0 1 0 15529384.00 24154567.00  z"/>
<path id="N" d="M 19214308.44 22818385.57 L 18887197.00 22491274.98 L 18887197.00 21652766.38 A 77585.82 77585.82 0 1 0 18797956.00 21636532.00 L 18822253.00 21652766.38 L 18822253.00 22504725.00 L 18831764.00 22527686.00 L 19168385.57 22864308.44 A 77591.08 77591.08 0 1 0 19214308.44 22818385.57  z"/>
<path id="N" d="M 17737771.29 23998455.71 L 18235765.00 23500462.00 L 18594942.62 23500462.00 A 77585.82 77585.82 0 1 0 18611177.00 23411221.00 L 18594942.62 23435518.00 L 18222315.00 23435518.00 L 18199354.00 23445029.00 L 17691849.29 23952533.71 A 77592.02 77592.02 0 1 0 17737771.29 23998455.71  z"/>
<path id="N" d="M 16330723.00 20219604.00 A 80279.37 80279.37 0 0 0 16331633.00 20071868.03 L 16331633.00 18767875.79 A 76295.10 76295.10 0 1 0 16266689.00 18768996.97 L 16266689.00 20072989.21 A 76295.10 76295.10 0 0 0 16330723.00 20219604.00  z"/>
<path id="N" d="M 20596254.56 31536412.67 L 20751064.79 31472896.66 L 20905574.80 31404550.12 L 21059668.27 31331386.90 L 21213504.57 31253294.97 L 21366886.43 31170329.99 L 21519803.77 31082458.65 L 21722979.49 30957592.00 L 21925306.64 30823864.08 L 22126296.79 30681537.31 L 22326004.35 30530506.56 L 22524151.89 30370895.89 L 22720415.55 30202876.40 L 22914745.54 30026394.02 L 23106815.22 29841633.40 L 23268875.00 29677296.03 L 23268875.00 27533361.00 L 22428832.54 26695962.47 L 22369994.07 26707714.49 L 22367048.00 26714827.00 A 221738.24 221738.24 0 1 1 22056863.12 26409883.88 L 22067736.95 26395180.40 L 22077526.48 26345762.09 L 21042257.00 25313751.00 L 21042257.00 23989871.00 L 19465752.00 22413366.00 L 19329003.00 22413366.00 L 19273859.00 22468510.00 L 19273859.00 22647124.00 L 20599999.00 23973264.00 L 20600000.00 26499885.00 L 20882568.22 26782453.22 L 20904695.00 26773288.00 A 141458.06 141458.06 0 0 1 21071032.00 26939625.00 L 21061866.78 26961751.78 L 21226869.00 27126754.00 L 21451497.57 27126754.00 L 21478641.00 27132153.00 L 22524571.61 27132153.00 L 22574233.00 27142032.00 L 22646583.00 27172000.00 L 22688678.95 27200128.62 L 22782447.28 27293896.61 L 22810578.00 27335997.00 L 22840548.00 27408352.00 L 22850425.00 27458010.50 L 22850425.00 29011956.00 L 20450000.00 31412382.00 L 20450000.00 31540284.52 L 20510000.51 31569609.51 L 20596254.56 31536412.67  z"/>
<path id="N" d="M 11191818.71 22982117.71 L 11104952.00 22895251.00 L 11104952.00 22791439.00 L 11095441.00 22768478.00 L 10928445.00 22601482.00 L 10905484.00 22591971.00 L 10765773.00 22591971.00 L 10667487.51 22493685.51 L 10683334.00 22469969.00 A 157951.45 157951.45 0 1 0 10597849.00 22555454.00 L 10621565.51 22539607.51 L 10729362.00 22647404.00 L 10752323.00 22656915.00 L 10892034.00 22656915.00 L 11040008.00 22804889.00 L 11040008.00 22908701.00 L 11049519.00 22931662.00 L 11145896.71 23028039.71 A 77592.02 77592.02 0 1 0 11191818.71 22982117.71  z"/>
<path id="N" d="M 10996847.94 18164597.94 m -200709.51 0 a 200709.51 200709.51 0 1 1 401419.02 0a 200709.51 200709.51 0 1 1 -401419.02 0M 10996850.88 18164595.97 m -127854.03 0 a 127854.03 127854.03 0 1 1 255708.07 0a 127854.03 127854.03 0 1 1 -255708.07 0"/>
<path id="N" d="M 14446613.00 20646837.00 L 14436362.00 20631494.96 L 14436362.00 19559608.00 L 14660974.49 19334995.51 L 14679071.00 19331396.00 A 80279.37 80279.37 0 1 0 14574176.00 19226501.00 L 14570576.49 19244597.51 L 14327242.00 19487932.00 L 14308520.00 19533131.00 L 14308520.00 20631494.96 L 14298269.00 20646837.00 A 80285.31 80285.31 0 1 0 14446613.00 20646837.00  z"/>
<path id="N" d="M 12668775.00 23054328.00 L 13251354.00 22471749.00 A 80284.08 80284.08 0 0 0 13137816.00 22358211.00 L 12578751.00 22917276.00 L 11998189.00 22917276.00 A 80284.08 80284.08 0 0 0 11998189.00 23077842.00 L 12612006.00 23077842.00 L 12642729.00 23071731.00 L 12668775.00 23054328.00  z"/>
<path id="N" d="M 17913309.00 26301499.00 L 17902137.97 26318218.00 L 17872473.97 26318218.00 L 17526921.00 25972665.97 L 17526921.00 23749225.00 L 17517410.00 23726264.00 L 16747984.00 22956838.00 L 16747984.00 22686470.00 L 20101938.00 19332515.00 L 20111449.00 19309554.00 L 20111449.00 18322320.00 L 20255639.00 18178130.00 L 20265150.00 18155169.00 L 20265150.00 17993477.38 A 77585.82 77585.82 0 1 0 20175909.00 17977243.00 L 20200206.00 17993477.38 L 20200206.00 18141719.00 L 20056016.00 18285909.00 L 20046505.00 18308870.00 L 20046505.00 19296104.00 L 16692551.00 22650059.00 L 16683040.00 22673020.00 L 16683040.00 22970288.00 L 16692551.00 22993249.00 L 17461977.00 23762675.00 L 17461977.00 25986116.00 L 17471488.00 26009077.00 L 17836061.00 26373651.00 L 17859023.00 26383162.00 L 17894746.57 26383162.00 L 17895906.00 26388991.00 A 80279.37 80279.37 0 1 0 17913309.00 26301499.00  z"/>
<path id="N" d="M 19163193.00 16725740.00 L 19146291.00 16722378.08 L 19146291.00 16712371.00 L 19136780.00 16689410.00 L 18618616.29 16171246.29 A 77592.02 77592.02 0 1 0 18544034.00 16222869.00 L 18572694.29 16217168.29 L 19081347.00 16725821.00 L 19081347.00 16739370.55 L 19075701.00 16743143.00 A 80284.08 80284.08 0 1 0 19163193.00 16725740.00  z"/>
<path id="N" d="M 21789336.00 13320822.00 L 21789336.00 13147577.95 L 22222199.00 12714715.00 A 80290.65 80290.65 0 1 0 22108658.99 12601180.01 L 21652284.00 13057554.00 L 21634881.00 13083600.00 L 21628770.00 13114323.00 L 21628770.00 13320822.00 A 80284.08 80284.08 0 0 0 21789336.00 13320822.00  z"/>
<path id="N" d="M 18006468.00 31734324.00 L 18044186.00 31634468.00 L 18060199.51 31608785.09 L 18073829.00 31581768.00 L 18139576.00 31497677.00 L 18162509.41 31477930.58 L 18183570.00 31456196.00 L 18271378.00 31395502.00 L 18299148.08 31383483.07 L 18325724.00 31369007.00 L 18427623.00 31337216.00 L 18457715.70 31334012.43 L 18487399.00 31328108.00 L 18594142.00 31328108.00 L 18623825.30 31334012.43 L 18653918.00 31337216.00 L 18755817.00 31369007.00 L 18782394.41 31383483.88 L 18810163.00 31395502.00 L 18897971.00 31456196.00 L 18919028.83 31477927.73 L 18941964.00 31497676.00 L 19007712.00 31581768.00 L 19021343.11 31608788.31 L 19037355.00 31634469.00 L 19075074.00 31734324.00 L 19079988.81 31763875.19 L 19893548.77 31763875.98 L 20026079.05 31728515.00 L 20182010.99 31682420.56 L 20362466.76 31622990.25 L 20374582.89 31605965.06 L 20388577.04 31561377.31 L 20389091.51 31550027.32 L 20385056.00 31540285.00 L 20385056.00 31412382.00 L 20404078.00 31366460.00 L 22788286.00 28982251.01 L 22788286.00 27841375.18 L 22728285.57 27816522.83 L 22711698.00 27833111.00 A 399475.34 399475.34 0 0 1 22497425.00 27921866.00 L 14978169.00 27921868.00 A 399483.99 399483.99 0 0 1 14708518.00 27270885.00 L 14723400.57 27256002.43 L 14698547.58 27196002.00 L 14099663.00 27196002.00 L 14090277.00 27205388.00 L 14090277.00 27978197.00 L 14087559.00 27991861.21 L 14087559.00 28005794.00 L 14082227.08 28018666.39 L 14079509.00 28032331.00 L 14071768.64 28043915.29 L 14066437.00 28056787.00 L 14056585.51 28066638.49 L 14048845.00 28078223.00 L 14037260.49 28085963.51 L 14027409.00 28095815.00 L 14014537.29 28101146.64 L 14002953.00 28108887.00 L 13989288.39 28111605.08 L 13976416.00 28116937.00 L 13962483.21 28116937.00 L 13948819.00 28119655.00 L 13935154.79 28116937.00 L 13921222.00 28116937.00 L 13908349.61 28111605.08 L 13894685.00 28108887.00 L 13883100.71 28101146.64 L 13870229.00 28095815.00 L 13860377.51 28085963.51 L 13848793.00 28078223.00 L 13841052.49 28066638.49 L 13831201.00 28056787.00 L 13825869.36 28043915.29 L 13818129.00 28032331.00 L 13815410.92 28018666.39 L 13810079.00 28005794.00 L 13810079.00 27991861.21 L 13807361.00 27978197.00 L 13807361.00 27146794.00 L 13818129.00 27092660.00 L 13848793.00 27046768.00 L 13941043.00 26954518.00 L 13986935.00 26923854.00 L 14041069.00 26913086.00 L 14917323.00 26913086.00 L 14930987.21 26915804.00 L 14944920.00 26915804.00 L 14957792.39 26921135.92 L 14971457.00 26923854.00 L 14983041.29 26931594.36 L 14995913.00 26936926.00 L 15005764.49 26946777.49 L 15017349.00 26954518.00 L 15025089.51 26966102.51 L 15034941.00 26975954.00 L 15040272.64 26988825.71 L 15048013.00 27000410.00 L 15050731.08 27014074.61 L 15056063.00 27026947.00 L 15056063.00 27040879.79 L 15058781.00 27054544.00 L 15056352.36 27066753.51 L 15056063.00 27082140.21 L 15090557.31 27119382.58 L 15102603.98 27126754.00 L 21056630.62 27126754.00 L 21079591.80 27071320.80 L 21015945.00 27007674.00 L 21011001.92 26995740.66 L 21001867.00 26986606.00 L 21001866.74 26973686.94 L 20996923.00 26961752.00 L 21001866.26 26949632.16 L 21006464.00 26942751.00 A 80285.31 80285.31 0 0 0 20882568.00 26847396.00 L 20870634.59 26842453.26 L 20857714.00 26842453.00 L 20848579.41 26833318.15 L 20836645.00 26828375.00 L 20554078.00 26545807.00 L 20535056.00 26499885.00 L 20535055.01 24000164.01 L 19441708.40 22906817.40 L 19411242.47 22913798.24 L 19378455.27 22928417.79 L 19360586.00 22971558.00 A 141458.06 141458.06 0 0 1 19104228.00 22920565.00 L 19104228.00 22884000.81 L 18789839.00 22569611.00 L 18769947.00 22539841.00 L 18762962.00 22504725.00 L 18762962.00 21684208.00 L 18737107.00 21658353.00 A 141458.06 141458.06 0 1 1 18972343.00 21658353.00 L 18946488.00 21684208.00 L 18946488.00 22466715.93 L 19156044.89 22676272.28 L 19201007.84 22651482.72 L 19208915.00 22644289.00 L 19208915.00 22468510.00 L 19227937.00 22422587.00 L 19283081.00 22367444.00 L 19329003.00 22348422.00 L 19465752.00 22348422.00 L 19511674.00 22367443.00 L 21088179.00 23943949.00 L 21107201.00 23989871.00 L 21107201.00 25286789.91 L 22123376.00 26299767.00 L 22125941.68 26305934.02 L 22131496.00 26309639.00 L 22135202.01 26328192.66 L 22142468.66 26345659.06 L 22191865.20 26372140.58 L 22199273.91 26374154.00 L 22225937.00 26374154.00 A 221738.24 221738.24 0 0 1 22400157.00 26548374.00 L 22400157.00 26574277.33 L 22402207.28 26581729.61 L 22428730.26 26631017.07 L 22446264.86 26638248.43 L 22464871.00 26641935.00 L 22468555.99 26647440.49 L 22474683.00 26649967.00 L 23314797.00 27487439.00 L 23333819.00 27533361.00 L 23333819.00 29521614.02 L 23381065.58 29544579.37 L 23393819.37 29545263.49 L 23436968.94 29498530.51 L 23621861.46 29291311.97 L 23803598.76 29076265.05 L 23982158.48 28853263.24 L 24157341.85 28622371.78 L 24328685.24 28384022.45 L 24496421.13 28137693.93 L 24660049.65 27883997.22 L 24819500.67 27623078.45 L 24974689.11 27355076.17 L 25125480.89 27080215.49 L 25271720.71 26798758.63 L 25413303.10 26510870.11 L 25549968.76 26217034.73 L 25681658.50 25917341.18 L 25808298.69 25611864.98 L 25929580.84 25301274.30 L 26045548.68 24985358.52 L 26155968.78 24664608.24 L 26260785.38 24339026.59 L 26359767.21 24009149.23 L 26452791.82 23675228.92 L 26539906.31 23336985.14 L 26620881.44 22995305.70 L 26695777.97 22649936.80 L 26764448.33 22301507.79 L 26826908.82 21949875.86 L 26880840.00 21610136.83 L 26880840.00 16726557.19 L 26842858.15 16559930.31 L 26739877.39 16186851.52 L 26620143.17 15818812.69 L 26545368.66 15620000.15 L 26491501.37 15582212.22 L 26393162.00 15616968.00 L 26363891.41 15621193.48 L 26335169.00 15628242.00 L 26230970.00 15632861.00 L 26201738.97 15628381.64 L 26172204.00 15626762.00 L 26071175.00 15600842.00 L 26044512.62 15588044.62 L 26016733.00 15577897.00 L 25927627.00 15523685.00 L 25905846.07 15503680.12 L 25882222.00 15485882.00 L 25812762.00 15408075.00 L 25797748.25 15382592.44 L 25780332.00 15358690.00 L 25736535.00 15264029.00 L 25729591.56 15235279.73 L 25719889.00 15207342.00 L 25705551.00 15104030.00 L 25707278.73 15074506.47 L 25706131.00 15044953.00 L 25722494.00 14941943.00 L 25732743.22 14914200.72 L 25740250.00 14885594.00 L 25785896.00 14791812.00 L 25803778.66 14768255.35 L 25819289.00 14743073.00 L 25890263.00 14666644.00 L 25914232.80 14649312.44 L 25936401.00 14629740.00 L 26026553.42 14577287.34 L 26033713.32 14511394.19 L 25836818.42 14168449.77 A 8563377.80 8563377.80 0 0 0 23402486.06 11601858.98 L 23042130.62 11368810.87 L 22984383.71 11385101.39 L 22930307.58 11497962.90 L 22840124.71 11454752.96 L 22882314.00 11366700.00 L 22633780.00 11247618.00 L 22591590.64 11335671.11 L 22501407.90 11292461.23 L 22586805.61 11114226.56 L 22542509.91 11080858.74 L 22075004.97 10851243.90 L 21881724.20 10770496.24 L 21794148.76 10953586.51 L 21703965.90 10910376.57 L 21746155.00 10822324.00 L 21497621.00 10703242.00 L 21455431.83 10791294.72 L 21365249.08 10748084.84 L 21418445.23 10637059.93 L 21395420.42 10581652.84 L 21124959.51 10487109.18 L 20635405.96 10348006.40 L 20138442.34 10238229.80 L 19902839.92 10200702.00 L 19408486.00 10200702.00 L 19408486.00 10303543.00 L 19308486.00 10303543.00 L 19308486.00 10205905.00 L 19032896.00 10205905.00 L 19032896.00 10303543.00 L 18932896.00 10303543.00 L 18932896.00 10200702.00 L 18148644.00 10200702.00 L 18148644.00 10303543.00 L 18048644.00 10303543.00 L 18048644.00 10205905.00 L 17773054.00 10205905.00 L 17773054.00 10303543.00 L 17673054.00 10303543.00 L 17673054.00 10200702.00 L 17178700.15 10200702.00 L 16943086.22 10238231.78 L 16446119.60 10348009.80 L 15956572.27 10487112.07 L 15686419.63 10581548.71 L 15663394.89 10636955.83 L 15716640.93 10748084.86 L 15626458.18 10791294.74 L 15584269.00 10703242.00 L 15335735.00 10822324.00 L 15377924.10 10910376.56 L 15287741.23 10953586.49 L 15200110.77 10770373.42 L 15006542.62 10851241.15 L 14539279.72 11080719.12 L 14495083.90 11114227.88 L 14580481.93 11292460.86 L 14490299.18 11335670.74 L 14448110.00 11247618.00 L 14199576.00 11366700.00 L 14241765.10 11454752.56 L 14151582.23 11497962.49 L 14097423.73 11384929.08 L 14039676.82 11368638.56 L 13679055.04 11601858.92 A 8562466.43 8562466.43 0 0 0 11244714.66 14168461.84 L 11047826.69 14511395.51 L 11054988.58 14577289.34 L 11145140.00 14629742.00 L 11167308.91 14649315.77 L 11191276.00 14666645.00 L 11262251.00 14743074.00 L 11277764.14 14768259.91 L 11295646.00 14791816.00 L 11341291.00 14885599.00 L 11348796.77 14914203.71 L 11359046.00 14941946.00 L 11375409.00 15044955.00 L 11374261.23 15074509.67 L 11375989.00 15104034.00 L 11361651.00 15207345.00 L 11351946.24 15235288.69 L 11345003.00 15264034.00 L 11301206.00 15358693.00 L 11283791.75 15382591.80 L 11268778.00 15408075.00 L 11199318.00 15485883.00 L 11175690.42 15503684.06 L 11153912.00 15523687.00 L 11064806.00 15577899.00 L 11037027.89 15588045.69 L 11010362.00 15600844.00 L 10909333.00 15626763.00 L 10879800.18 15628382.52 L 10850568.00 15632862.00 L 10746370.00 15628243.00 L 10717648.03 15621194.59 L 10688375.00 15616968.00 L 10590036.63 15582211.22 L 10536171.59 15620000.14 L 10461390.55 15818832.00 L 10341660.86 16186857.88 L 10238684.17 16559924.50 L 10200701.00 16726556.29 L 10200701.80 20663392.93 L 10260702.31 20688518.06 L 10342963.00 20654444.00 A 260071.41 260071.41 0 0 1 10609945.00 21054012.00 L 10569356.41 21094600.59 L 10588109.71 21154601.30 L 10681803.00 21193411.00 L 10753513.00 21265121.00 L 10776577.53 21320802.73 L 10841521.52 21320802.33 L 10855200.00 21287779.00 L 10915659.00 21227320.00 L 10994651.00 21194601.00 L 11046006.65 21194601.00 L 11057941.62 21134600.75 L 11036613.00 21125766.00 A 260078.49 260078.49 0 1 1 11231841.00 21164600.00 L 11164513.43 21164600.00 L 11152578.82 21224600.25 L 11159145.00 21227320.00 A 219128.58 219128.58 0 0 1 11252323.00 21452273.00 L 11232734.71 21499564.13 L 11283600.59 21533551.41 L 11691938.00 21125214.00 L 11691938.00 20412476.65 L 11631937.51 20383191.59 L 11595990.00 20403946.00 A 259062.69 259062.69 0 0 1 11291319.00 20322309.00 L 11281491.35 20305287.10 L 11212208.65 20305287.10 L 11202381.00 20322309.00 A 259069.45 259069.45 0 1 1 10839141.00 19959069.00 L 10856162.90 19949241.35 L 10856162.90 19879958.65 L 10839141.00 19870131.00 A 259069.45 259069.45 0 0 1 10791319.00 19506891.00 L 10822319.10 19475890.90 L 10821742.41 19406275.24 L 10814580.00 19402140.00 L 10759310.00 19346870.00 L 10720229.00 19279180.00 L 10702925.60 19214599.99 L 10806088.71 19214599.99 L 10811421.00 19241407.00 A 200709.51 200709.51 0 1 0 10811421.00 19087793.00 L 10806088.71 19114599.99 L 10702925.61 19114599.99 L 10720229.00 19050020.00 L 10759310.00 18982330.00 L 10786455.24 18955184.76 L 10807973.01 18914600.00 L 10786455.24 18874015.24 L 10759310.00 18846870.00 L 10720229.00 18779180.00 L 10702925.60 18714599.99 L 10806088.71 18714599.99 L 10811421.00 18741407.00 A 200709.51 200709.51 0 1 0 10811421.00 18587793.00 L 10806088.71 18614599.99 L 10702925.61 18614599.99 L 10720229.00 18550020.00 L 10759310.00 18482330.00 L 10814580.00 18427060.00 L 10821742.41 18422924.76 L 10822319.10 18353309.10 L 10791319.00 18322309.00 A 259066.18 259066.18 0 1 1 11202381.00 18006891.00 L 11212208.65 18023912.90 L 11281491.35 18023912.90 L 11291319.00 18006891.00 A 259069.45 259069.45 0 0 1 11736196.00 18263740.00 L 11732376.88 18270354.88 L 11968587.00 18506565.00 L 11988479.00 18536335.00 L 11995464.00 18571451.00 L 11995464.00 21212928.00 L 11988479.00 21248044.00 L 11968587.00 21277814.00 L 11374087.00 21872314.00 L 11374087.00 22164600.00 L 11367102.00 22199716.00 L 11347210.00 22229486.00 L 11239905.06 22336790.94 L 11252323.00 22366771.00 A 219135.30 219135.30 0 0 1 11159145.00 22591724.00 L 11108406.68 22612740.14 L 11090689.24 22679876.24 L 11137366.00 22726553.00 L 11157258.00 22756323.00 L 11164243.00 22791439.00 L 11164243.00 22870692.00 L 11211511.00 22917960.00 L 11248076.00 22917960.00 L 11299068.16 22939081.65 L 11315181.12 22937494.66 L 11337933.00 22903444.00 L 11416561.41 22824815.59 L 11434724.00 22812680.00 L 11446859.59 22794517.41 L 13270607.00 20970770.00 L 13270607.00 15971796.00 L 13281375.00 15917662.00 L 13312039.00 15871770.00 L 15514937.00 13668872.00 L 15526521.00 13661132.00 L 15536373.00 13651280.00 L 15549246.68 13645947.55 L 15560830.00 13638208.00 L 15574492.92 13635490.21 L 15587366.00 13630158.00 L 15601299.04 13630158.00 L 15614963.00 13627440.00 L 15628626.96 13630158.00 L 15642560.00 13630158.00 L 15655433.08 13635490.21 L 15669096.00 13638208.00 L 15680679.32 13645947.55 L 15693553.00 13651280.00 L 15703405.00 13661132.00 L 15714989.00 13668872.00 L 15722729.00 13680456.00 L 15732581.00 13690308.00 L 15737913.45 13703181.68 L 15745653.00 13714765.00 L 15748370.79 13728427.92 L 15753703.00 13741301.00 L 15753703.00 13755234.04 L 15756421.00 13768898.00 L 15753703.00 13782561.96 L 15753703.00 13796495.00 L 15748370.79 13809368.08 L 15745653.00 13823031.00 L 15737913.45 13834614.32 L 15732581.00 13847488.00 L 15722729.00 13857340.00 L 15714989.00 13868924.00 L 13553523.00 16030390.00 L 13553523.00 21029364.00 L 13542755.00 21083498.00 L 13512091.00 21129390.00 L 11579417.00 23062064.00 L 11579417.00 23146783.00 L 11568649.00 23200917.00 L 11537985.00 23246809.00 L 11484999.00 23299795.00 L 11484999.00 24507632.00 L 13123254.00 26145887.00 L 13153918.00 26191779.00 L 13164686.00 26245913.00 L 13163901.00 28086612.00 L 13153133.00 28140746.00 L 13122469.00 28186638.00 L 12973649.00 28335459.00 L 12962064.49 28343199.51 L 12952213.00 28353051.00 L 12939341.29 28358382.64 L 12927757.00 28366123.00 L 12914092.39 28368841.08 L 12901220.00 28374173.00 L 12887287.21 28374173.00 L 12873623.00 28376891.00 L 12859958.79 28374173.00 L 12846026.00 28374173.00 L 12833153.61 28368841.08 L 12819489.00 28366123.00 L 12807905.18 28358382.96 L 12765363.56 28401775.50 L 12924274.24 28622471.41 L 13099383.52 28853263.24 L 13278002.31 29076337.36 L 13459763.03 29291406.47 L 13644573.79 29498531.31 L 13832234.95 29697629.96 L 14022439.57 29888515.26 L 14215096.56 30071221.50 L 14409948.54 30245616.10 L 14606731.48 30411567.47 L 14805295.11 30569048.01 L 15005321.32 30717893.82 L 15206761.71 30858147.55 L 15409240.24 30989613.68 L 15612643.10 31112286.91 L 15765795.98 31198563.79 L 15919355.55 31279911.93 L 16073151.74 31356293.16 L 16227493.51 31427897.17 L 16382108.45 31494629.04 L 16536997.68 31556532.92 L 16692306.64 31613697.43 L 16847739.19 31666047.47 L 17003480.90 31713680.52 L 17187992.87 31763876.00 L 18001552.61 31763876.00 L 18006468.00 31734324.00  zM 14280191.00 11766380.00 L 14194792.07 11588145.14 L 14284974.82 11544935.26 L 14327164.00 11632988.00 L 14406339.85 11595051.87 L 14449549.60 11685234.37 L 14280191.00 11766380.00  zM 14539732.31 11642024.67 L 14496522.47 11551841.98 L 14575698.00 11513906.00 L 14533508.90 11425853.44 L 14623691.77 11382643.51 L 14709091.00 11560879.00 L 14539732.31 11642024.67  zM 15416350.00 11222004.00 L 15330951.07 11043769.14 L 15421133.82 11000559.26 L 15463323.00 11088612.00 L 15542498.85 11050675.87 L 15585708.60 11140858.37 L 15416350.00 11222004.00  zM 10996850.88 18664595.97 m -127854.03 0 a 127854.03 127854.03 0 1 1 255708.07 0a 127854.03 127854.03 0 1 1 -255708.07 0M 10996850.88 19164595.97 m -127854.03 0 a 127854.03 127854.03 0 1 1 255708.07 0a 127854.03 127854.03 0 1 1 -255708.07 0M 15669134.00 20104957.00 L 15669134.00 20090924.03 L 15617723.90 20047534.46 A 142853.26 142853.26 0 0 1 15451181.00 19936217.00 L 15451181.00 19932102.70 L 15398122.95 19909270.05 L 15395213.00 19912180.00 A 141458.06 141458.06 0 0 1 15199005.00 19715972.00 L 15219908.60 19695068.40 L 15215889.12 19667181.84 L 15202768.89 19631550.45 L 15160268.00 19613946.00 A 141458.06 141458.06 0 1 1 15317448.00 19378710.00 L 15343303.00 19404565.00 L 15416263.00 19404565.00 L 15451379.00 19411550.00 L 15481149.00 19431442.00 L 15872761.00 19823053.00 L 15892652.00 19852823.00 L 15899637.00 19887939.00 L 15899637.00 19972915.00 L 15925492.00 19998770.00 A 141458.06 141458.06 0 1 1 15669134.00 20104957.00  zM 15675891.31 11097648.67 L 15632681.47 11007465.98 L 15711857.00 10969530.00 L 15669667.90 10881477.44 L 15759850.77 10838267.51 L 15845250.00 11016503.00 L 15675891.31 11097648.67  zM 17860849.00 10601181.00 L 17673054.00 10601181.00 L 17673054.00 10403543.00 L 17773054.00 10403543.00 L 17773054.00 10501181.00 L 17860849.00 10501181.00 L 17860849.00 10601181.00  zM 18148644.00 10601181.00 L 17960849.00 10601181.00 L 17960849.00 10501181.00 L 18048644.00 10501181.00 L 18048644.00 10403543.00 L 18148644.00 10403543.00 L 18148644.00 10601181.00  zM 18402030.00 14999116.00 L 18402030.00 14970156.04 L 18379681.86 14933367.54 L 18347712.19 14918268.00 L 18315316.00 14918268.00 A 141458.06 141458.06 0 0 1 18225295.00 14700938.00 L 18241273.00 14684960.00 L 18241273.00 12215634.05 L 17628784.05 11603146.00 L 16031678.87 11603146.00 L 15715832.00 11754479.00 L 15678562.10 11676693.46 L 14899156.58 12050135.38 L 14936427.00 12127922.00 L 14579673.00 12298855.00 L 14400233.00 11924348.00 L 14756987.00 11753415.00 L 14794254.45 11831195.44 L 15573659.97 11457753.53 L 15536392.00 11379972.00 L 15893146.00 11209039.00 L 15965655.17 11360372.00 L 17679065.00 11360371.00 L 17725518.00 11369612.00 L 17764899.00 11395925.00 L 18363949.79 11994976.67 L 18419383.00 11972015.51 L 18419383.00 11124536.00 L 18108644.00 11124536.00 L 18108644.00 11210787.00 L 17713054.00 11210787.00 L 17713054.00 10795511.00 L 18108644.00 10795511.00 L 18108644.00 10881762.00 L 18972896.00 10881762.00 L 18972896.00 10795511.00 L 19368486.00 10795511.00 L 19368486.00 11210787.00 L 18972896.00 11210787.00 L 18972896.00 11124536.00 L 18662157.00 11124536.00 L 18662157.00 11972015.73 L 18717590.19 11994976.93 L 19316642.00 11395925.00 L 19356023.00 11369612.00 L 19402481.03 11360372.00 L 21116234.83 11360372.00 L 21188744.00 11209039.00 L 21545498.00 11379972.00 L 21508228.93 11457755.81 L 22287634.79 11831197.01 L 22324903.00 11753415.00 L 22681657.00 11924348.00 L 22502217.00 12298855.00 L 22145463.00 12127922.00 L 22182732.66 12050136.95 L 21403326.80 11676695.75 L 21366058.00 11754479.00 L 21050211.13 11603146.00 L 19452756.05 11603146.00 L 18840267.00 12215635.95 L 18840267.00 14684960.00 L 18856245.00 14700938.00 A 141458.06 141458.06 0 0 1 18766224.00 14918268.00 L 18733827.81 14918268.00 L 18701858.14 14933367.54 L 18679510.00 14970156.04 L 18679510.00 14999116.00 A 141458.06 141458.06 0 0 1 18402030.00 14999116.00  zM 18993730.00 16772315.00 L 19008451.11 16736775.11 L 18553002.00 16281326.00 L 18516437.00 16281326.00 A 141458.06 141458.06 0 1 1 18682774.00 16114989.00 L 18682774.00 16151554.00 L 19178705.00 16647485.00 L 19198483.04 16677084.45 L 19211060.00 16682294.00 A 141458.06 141458.06 0 1 1 18993730.00 16772315.00  zM 19120691.00 10601181.00 L 18932896.00 10601181.00 L 18932896.00 10403543.00 L 19032896.00 10403543.00 L 19032896.00 10501181.00 L 19120691.00 10501181.00 L 19120691.00 10601181.00  zM 19408486.00 10601181.00 L 19220691.00 10601181.00 L 19220691.00 10501181.00 L 19308486.00 10501181.00 L 19308486.00 10403543.00 L 19408486.00 10403543.00 L 19408486.00 10601181.00  zM 21405998.67 11097648.66 L 21236640.00 11016503.00 L 21322039.24 10838267.49 L 21412222.10 10881477.43 L 21370033.00 10969530.00 L 21449208.52 11007465.97 L 21405998.67 11097648.66  zM 21665540.00 11222004.00 L 21496181.38 11140858.36 L 21539391.15 11050675.87 L 21618567.00 11088612.00 L 21660756.17 11000559.28 L 21750938.92 11043769.16 L 21665540.00 11222004.00  zM 22542157.76 11642024.71 L 22372799.00 11560879.00 L 22458198.05 11382643.88 L 22548380.91 11425853.82 L 22506192.00 11513906.00 L 22585367.61 11551842.02 L 22542157.76 11642024.71  zM 22801699.00 11766380.00 L 22632340.47 11685234.40 L 22675550.23 11595051.91 L 22754726.00 11632988.00 L 22796914.99 11544935.67 L 22887097.73 11588145.55 L 22801699.00 11766380.00  zM 21846805.00 13501426.00 L 21846805.00 13464163.94 L 21819498.99 13444464.21 L 21791371.83 13434711.17 L 21787643.00 13438440.00 L 21774771.29 13443771.64 L 21763187.00 13451512.00 L 21749522.39 13454230.08 L 21736650.00 13459562.00 L 21722717.21 13459562.00 L 21709053.00 13462280.00 L 21695388.79 13459562.00 L 21681456.00 13459562.00 L 21668583.61 13454230.08 L 21654919.00 13451512.00 L 21643334.71 13443771.64 L 21630463.00 13438440.00 L 21620611.51 13428588.51 L 21609027.00 13420848.00 L 21601286.49 13409263.49 L 21591435.00 13399412.00 L 21586103.36 13386540.29 L 21578363.00 13374956.00 L 21575644.92 13361291.39 L 21570313.00 13348419.00 L 21570313.00 13334486.21 L 21567595.00 13320822.00 L 21567595.00 13114323.00 L 21578363.00 13060189.00 L 21609027.00 13014297.00 L 22065404.00 12557920.00 L 22076988.76 12550179.24 L 22086840.00 12540328.00 L 22099710.73 12534996.77 L 22111297.00 12527255.00 L 22124963.39 12524536.77 L 22137833.00 12519206.00 L 22151764.77 12519206.00 L 22165430.00 12516488.00 L 22179095.48 12519206.00 L 22193027.00 12519206.00 L 22205895.92 12524536.48 L 22219564.00 12527255.00 L 22231151.23 12534997.58 L 22244020.00 12540328.00 L 22253870.73 12550178.73 L 22265456.00 12557920.00 L 22273197.27 12569505.27 L 22283048.00 12579356.00 L 22288378.42 12592224.77 L 22296121.00 12603812.00 L 22298839.52 12617480.08 L 22304170.00 12630349.00 L 22304170.00 12644280.52 L 22306888.00 12657946.00 L 22304170.00 12671611.23 L 22304170.00 12685543.00 L 22298839.23 12698412.61 L 22296121.00 12712079.00 L 22288379.23 12723665.27 L 22283048.00 12736536.00 L 22273196.76 12746387.24 L 22265456.00 12757972.00 L 21850511.00 13172917.00 L 21850511.00 13320822.00 L 21848777.89 13329534.86 L 21853367.39 13335455.58 L 21906955.73 13356210.70 L 21948847.68 13338858.48 L 22167682.99 13120023.85 L 22185036.00 13078130.00 A 141458.06 141458.06 0 1 1 22339350.15 13291691.01 L 22120515.52 13510526.32 L 22103163.00 13552419.00 A 141458.06 141458.06 0 0 1 21846805.00 13501426.00  zM 22228649.00 13557230.00 L 22270541.68 13539877.48 L 22489376.99 13321042.85 L 22506730.00 13279149.00 A 141458.06 141458.06 0 1 1 22661044.15 13492710.01 L 22442209.52 13711545.32 L 22424857.00 13753438.00 A 141458.06 141458.06 0 1 1 22228649.00 13557230.00  zM 20500492.00 18785583.00 L 20504255.00 18781820.00 L 20504254.00 18730957.00 L 20508614.00 18709039.99 L 20508613.00 16095306.00 L 20517854.00 16048853.00 L 20544167.00 16009472.00 L 20671039.72 15882599.92 L 20687558.00 15871563.00 L 20698594.64 15855045.13 L 20707197.00 15846442.82 L 20707197.00 15834275.53 L 20711072.00 15814794.00 L 20707197.00 15795312.47 L 20707197.00 15783145.17 L 20698594.62 15774542.83 L 20687558.00 15758025.00 L 20671039.78 15746988.12 L 20532434.00 15608383.00 L 20506121.00 15569002.00 L 20496881.00 15522543.97 L 20496881.00 14910596.83 L 20479528.00 14868703.00 A 141458.06 141458.06 0 0 1 20757008.00 14813509.00 L 20757008.00 14859346.28 L 20769469.55 14879910.52 L 20804324.38 14911260.00 L 20843660.00 14911260.00 A 141458.06 141458.06 0 0 1 20933681.00 15128590.00 L 20917765.00 15144506.00 L 20917765.00 15398493.17 L 21092528.00 15573256.00 L 21118841.00 15612637.00 L 21128081.00 15659095.03 L 21128082.00 15970498.00 L 21118841.00 16016951.00 L 21092524.99 16056334.01 L 20929498.00 16219361.82 L 20929498.00 18352565.47 L 20925623.00 18372047.00 L 20929498.00 18391528.53 L 20929498.00 18403695.00 L 20938098.79 18412295.79 L 20949137.00 18428816.00 L 20965657.21 18439854.21 L 20995166.00 18482431.00 L 21004406.00 18528889.03 L 21004406.00 18584970.00 L 21008169.00 18588733.00 A 141458.06 141458.06 0 0 1 20811961.70 18784941.29 L 20766328.32 18824161.84 L 20756850.00 18836576.82 A 141457.00 141457.00 0 1 1 20500492.00 18785583.00  zM 25140583.00 18026808.33 m -191636.82 0 a 191636.82 191636.82 0 1 1 383273.65 0a 191636.82 191636.82 0 1 1 -383273.65 0M 14251054.00 20608069.17 L 14251054.00 19979309.35 L 14191053.48 19941943.35 L 14172448.00 19949650.00 A 141458.06 141458.06 0 0 1 14027233.00 19732320.00 L 14053088.00 19706465.00 L 14053088.00 19522087.00 L 14060073.00 19486971.00 L 14079965.00 19457201.00 L 14702052.00 18835114.00 L 14731822.00 18815222.00 L 14766938.00 18808237.00 L 15095555.00 18808237.00 L 15121410.00 18782382.00 A 141458.06 141458.06 0 1 1 15121410.00 19017618.00 L 15095555.00 18991763.00 L 14804947.00 18991763.00 L 14715352.20 19081357.80 L 14726938.60 19139606.60 A 141456.97 141456.97 0 0 1 14726938.00 19374842.00 L 14685044.19 19392194.99 L 14493828.00 19583411.87 L 14493828.00 20608069.17 L 14511181.00 20649963.00 A 141458.06 141458.06 0 1 1 14251054.00 20608069.17  zM 15744193.00 21363929.00 L 15770048.00 21338074.00 L 15770048.00 20720980.00 L 15744193.00 20695125.00 A 141458.06 141458.06 0 1 1 15979429.00 20695125.00 L 15953574.00 20720980.00 L 15953574.00 21338074.00 L 15979429.00 21363929.00 A 141458.06 141458.06 0 1 1 15744193.00 21363929.00  zM 14011338.00 23516131.00 L 14011338.00 23506718.87 L 13958181.67 23453608.61 L 13951141.82 23453267.48 L 13942576.00 23459525.23 L 13942576.00 23495153.00 A 141458.06 141458.06 0 0 1 13664431.06 23439172.64 L 13621519.54 23388373.00 L 13601948.00 23388373.00 A 141458.06 141458.06 0 0 1 13601948.00 23110893.00 L 13608596.40 23110893.00 L 13618950.00 23095398.00 L 13833992.00 22880356.00 L 13833992.00 21898995.00 L 13840977.00 21863879.00 L 13860869.00 21834109.00 L 13959715.00 21735263.00 L 13987354.66 21716793.85 L 13978090.00 21694427.00 A 141458.06 141458.06 0 1 1 14195420.00 21784448.00 L 14191949.43 21785885.56 L 14177690.84 21842757.11 L 14212507.60 21886924.88 L 14234424.12 21888108.11 L 14274519.08 21884171.96 L 14282776.00 21864238.00 A 141458.06 141458.06 0 1 1 14427991.00 22081568.00 L 14391426.00 22081568.00 L 14257518.00 22215476.00 L 14257518.00 22834315.62 L 14312951.20 22857276.80 L 15361260.00 21808968.00 L 15361260.00 21772403.00 A 141458.06 141458.06 0 1 1 15527597.00 21938740.00 L 15491032.00 21938740.00 L 14377518.00 23052254.00 L 14377518.00 23067480.00 L 14370533.00 23102596.00 L 14350642.00 23132366.00 L 14254778.00 23228229.22 L 14254778.00 23328078.00 L 14247793.00 23363194.00 L 14241841.00 23372101.65 L 14241841.00 23384089.00 L 14267696.00 23409944.00 A 141458.06 141458.06 0 1 1 14011338.00 23516131.00  zM 12612006.00 23139017.00 L 11998189.00 23139017.00 L 11984524.79 23136299.00 L 11970592.00 23136299.00 L 11957719.61 23130967.08 L 11944055.00 23128249.00 L 11932470.71 23120508.64 L 11919599.00 23115177.00 L 11909747.51 23105325.51 L 11898163.00 23097585.00 L 11890422.49 23086000.49 L 11880571.00 23076149.00 L 11875239.36 23063277.29 L 11867499.00 23051693.00 L 11864780.92 23038028.39 L 11859449.00 23025156.00 L 11859449.00 23011223.21 L 11856731.00 22997559.00 L 11859449.00 22983894.79 L 11859449.00 22969962.00 L 11864780.92 22957089.61 L 11867499.00 22943425.00 L 11875239.36 22931840.71 L 11880571.00 22918969.00 L 11890422.49 22909117.51 L 11898163.00 22897533.00 L 11909747.51 22889792.49 L 11919599.00 22879941.00 L 11932470.71 22874609.36 L 11944055.00 22866869.00 L 11957719.61 22864150.92 L 11970592.00 22858819.00 L 11984524.79 22858819.00 L 11998189.00 22856101.00 L 12553412.00 22856101.00 L 13094559.00 22314954.00 L 13106143.00 22307214.00 L 13115995.00 22297362.00 L 13128868.68 22292029.55 L 13140452.00 22284290.00 L 13154114.92 22281572.21 L 13166988.00 22276240.00 L 13180921.04 22276240.00 L 13194585.00 22273522.00 L 13208248.96 22276240.00 L 13222182.00 22276240.00 L 13235055.08 22281572.21 L 13248718.00 22284290.00 L 13260301.32 22292029.55 L 13273175.00 22297362.00 L 13283027.00 22307214.00 L 13294611.00 22314954.00 L 13302351.00 22326538.00 L 13312203.00 22336390.00 L 13317535.45 22349263.68 L 13325275.00 22360847.00 L 13327992.79 22374509.92 L 13333325.00 22387383.00 L 13333325.00 22401316.04 L 13336043.00 22414980.00 L 13333325.00 22428643.96 L 13333325.00 22442577.00 L 13327992.79 22455450.08 L 13325275.00 22469113.00 L 13317535.45 22480696.32 L 13312203.00 22493570.00 L 13302351.00 22503422.00 L 13294611.00 22515006.00 L 12712032.00 23097585.00 L 12666140.00 23128249.00 L 12612006.00 23139017.00  zM 13264479.00 24618842.00 L 13124691.00 24618842.00 L 13089574.00 24611857.00 L 13059804.00 24591965.00 L 12935706.85 24467929.62 L 12873308.37 24463260.45 L 12857654.47 24467891.53 L 12849589.00 24475957.00 A 141458.06 141458.06 0 0 1 12692409.00 24475957.00 L 12666554.00 24450102.00 L 12318572.00 24450102.00 L 12283456.00 24443117.00 L 12253686.00 24423225.00 L 11675508.00 23845047.00 L 11655616.00 23815277.00 L 11648631.00 23780161.00 L 11648631.00 23505074.00 L 11622776.00 23479219.00 A 141458.06 141458.06 0 1 1 11858012.00 23479219.00 L 11832157.00 23505074.00 L 11832157.00 23742152.00 L 12189922.80 24099917.80 L 12248171.60 24088331.40 A 141456.97 141456.97 0 0 1 12483407.00 24088332.00 L 12487343.69 24097836.00 L 12840893.00 24097836.00 L 12876009.00 24104821.00 L 12905779.00 24124713.00 L 13029694.19 24248627.32 L 13052006.42 24263315.96 L 13102822.00 24237375.14 L 13102822.00 23715913.94 L 13082311.00 23707418.00 A 141458.06 141458.06 0 1 1 13299641.00 23617397.00 L 13283096.14 23657339.80 L 13286348.00 23673688.00 L 13286348.00 24213816.50 L 13346348.43 24238669.44 L 13568655.00 24016362.21 L 13568655.00 23979798.00 A 141458.06 141458.06 0 1 1 13734992.00 24146135.00 L 13698427.79 24146135.00 L 13455088.00 24389474.08 L 13455088.00 24428233.00 L 13448103.00 24463350.00 L 13428211.00 24493119.00 L 13329365.00 24591965.00 L 13299595.00 24611857.00 L 13264479.00 24618842.00  zM 13357963.00 24856684.00 L 13383818.00 24830829.00 L 13383818.00 24756862.00 L 13390803.00 24721746.00 L 13410695.00 24691976.00 L 13563448.00 24539223.00 L 13593217.00 24519331.00 L 13628334.00 24512346.00 L 13768122.00 24512346.00 L 13803238.00 24519331.00 L 13833008.00 24539223.00 L 13854871.00 24561086.00 L 14340687.00 24561086.00 L 14467559.00 24434214.00 L 14467559.00 24397649.00 A 141458.06 141458.06 0 0 1 14723916.40 24346655.40 L 14772953.19 24356409.42 L 14790695.90 24351085.66 L 14816322.00 24333962.00 L 14842409.06 24328773.11 L 14850000.00 24330283.00 L 14866620.89 24326977.00 L 14989461.00 24326977.00 L 15022136.00 24294302.00 A 141458.06 141458.06 0 1 1 15022136.00 24529538.00 L 15003101.00 24510503.00 L 14889448.00 24510503.00 L 14741079.00 24658872.00 L 14711309.00 24678764.00 L 14671776.85 24685749.00 L 14519790.00 24837735.00 L 14490020.00 24857627.00 L 14454904.00 24864612.00 L 13802673.00 24864612.00 L 13776818.00 24890467.00 L 13725825.00 24911589.00 L 13670631.83 24911589.00 L 13614321.00 24953208.72 L 13614321.00 24962871.00 A 141458.06 141458.06 0 1 1 13357963.00 24856684.00  zM 15292913.00 26591630.94 m -221743.80 0 a 221743.80 221743.80 0 1 1 443487.59 0a 221743.80 221743.80 0 1 1 -443487.59 0M 15451692.35 29928287.76 A 377746.96 377746.96 0 0 1 15631522.56 29504630.47 L 15670502.89 29601110.13 L 15651241.00 29612008.00 A 277964.94 277964.94 0 0 0 15542631.00 29867879.00 L 15548172.51 29889307.22 L 15451692.35 29928287.76  zM 15818528.38 29833997.09 m -140500.91 0 a 140500.91 140500.91 0 1 1 281001.82 0a 140500.91 140500.91 0 1 1 -281001.82 0M 15489153.19 30021006.07 L 15585632.91 29982025.71 L 15596531.00 30001288.00 A 277964.94 277964.94 0 0 0 15852402.00 30109898.00 L 15873827.97 30104357.07 L 15912808.39 30200836.94 A 378826.45 378826.45 0 0 1 15489153.19 30021006.07  zM 16191919.00 21345582.00 L 16218518.00 21318983.00 L 16218518.00 20541497.00 L 16193406.00 20516385.00 A 141458.06 141458.06 0 0 1 16193406.00 20359205.00 L 16223677.64 20328933.36 L 16223487.63 20273819.08 L 16221409.40 20263049.40 A 141456.97 141456.97 0 0 1 16182382.00 20066842.00 L 16207398.00 20041826.00 L 16207398.00 18800717.00 L 16180704.00 18774023.00 A 141458.06 141458.06 0 1 1 16415940.00 18774023.00 L 16390924.00 18799039.00 L 16390924.00 20040148.00 L 16417618.00 20066842.00 A 141458.06 141458.06 0 0 1 16417618.00 20224022.00 L 16387346.36 20254293.64 L 16387536.37 20309407.92 L 16389614.60 20320177.60 A 141456.97 141456.97 0 0 1 16428642.00 20516385.00 L 16402044.00 20542983.00 L 16402044.00 21320471.00 L 16427155.00 21345582.00 A 141458.06 141458.06 0 1 1 16191919.00 21345582.00  zM 20867718.00 21889614.00 L 20863955.00 21885851.00 L 20790413.00 21885851.00 L 20743960.00 21876611.00 L 20704576.99 21850294.99 L 20569995.87 21715714.60 L 20528103.00 21698362.00 A 141458.06 141458.06 0 1 1 20741663.60 21544046.87 L 20840693.19 21643077.00 L 20895001.02 21643077.00 L 20918711.00 21633256.00 A 141458.06 141458.06 0 1 1 20867718.00 21889614.00  zM 21362508.00 21541882.00 L 21336800.19 21516174.19 L 21301365.37 21507666.28 L 21263905.28 21515816.72 L 21238703.00 21541019.00 A 141458.06 141458.06 0 0 1 21021373.00 21450998.00 L 21021373.00 21428489.27 L 20930532.00 21337649.00 L 20904219.00 21298268.00 L 20894979.00 21251809.97 L 20894979.00 21204071.00 L 20879063.00 21188155.00 A 141458.06 141458.06 0 0 1 20879063.00 21030975.00 L 20910178.39 20999859.61 L 20923514.24 20964679.93 L 20929543.06 20934370.84 L 20879701.00 20884529.00 L 20853388.00 20845148.00 L 20844427.12 20800103.12 L 20840385.00 20796061.00 A 141458.06 141458.06 0 1 1 21096743.00 20745068.00 L 21092886.42 20754378.60 L 21280310.00 20941802.00 L 21306623.00 20981183.00 L 21315863.00 21027636.00 L 21315863.00 21127759.14 L 21477114.80 21289011.59 L 21519688.00 21306646.00 A 141458.06 141458.06 0 1 1 21362508.00 21541882.00  zM 25140583.00 20302398.33 m -191636.82 0 a 191636.82 191636.82 0 1 1 383273.65 0a 191636.82 191636.82 0 1 1 -383273.65 0M 25715378.00 22217618.00 L 25689523.00 22191763.00 L 25463453.00 22191763.00 L 25437598.00 22217618.00 A 141458.06 141458.06 0 1 1 25437598.00 21982382.00 L 25463453.00 22008237.00 L 25689523.00 22008237.00 L 25715378.00 21982382.00 A 141458.06 141458.06 0 1 1 25715378.00 22217618.00  zM 17596555.00 26539220.00 L 17585372.77 26512223.72 L 17551486.43 26486843.84 L 17515432.53 26484760.31 L 17485864.00 26497008.00 L 17430670.00 26497008.00 L 17401102.47 26484760.73 L 17365047.79 26486844.05 L 17331161.94 26512224.43 L 17319980.00 26539220.00 A 141458.06 141458.06 0 0 1 17084744.00 26539220.00 L 17073561.77 26512223.72 L 17039675.43 26486843.84 L 17003621.53 26484760.31 L 16974053.00 26497008.00 L 16918859.00 26497008.00 L 16889291.47 26484760.73 L 16853236.79 26486844.05 L 16819350.94 26512224.43 L 16808169.00 26539220.00 A 141458.06 141458.06 0 0 1 16572933.00 26539220.00 L 16561750.77 26512223.72 L 16527864.43 26486843.84 L 16491810.53 26484760.31 L 16462242.00 26497008.00 L 16407048.00 26497008.00 L 16377480.47 26484760.73 L 16341425.79 26486844.05 L 16307539.94 26512224.43 L 16296358.00 26539220.00 A 141458.06 141458.06 0 1 1 16151143.00 26321890.00 L 16174146.00 26321890.00 L 16174146.00 26288375.00 L 16181131.00 26253259.00 L 16201023.00 26223489.00 L 16299866.00 26124646.00 L 16329636.00 26104754.00 L 16364752.00 26097769.00 L 16499143.00 26097769.00 L 16562686.00 26034226.00 L 16562686.00 24135423.11 L 16518844.57 24096157.54 L 16464624.40 24106942.60 L 16425597.00 24145970.00 L 16374604.00 24167092.00 L 16319410.00 24167092.00 L 16307940.23 24162341.06 L 16303702.00 24165173.00 L 16268586.00 24172158.00 L 15603106.00 24172158.00 L 15577251.00 24198013.00 A 141458.06 141458.06 0 1 1 15577251.00 23962777.00 L 15603106.00 23988632.00 L 16213288.51 23988632.00 L 16229389.00 23949762.00 L 16268416.40 23910734.60 L 16280002.80 23852485.80 L 15810626.00 23383109.00 L 15790734.00 23353339.00 L 15783749.00 23318223.00 L 15783749.00 22325083.00 L 15790734.00 22289967.00 L 15810626.00 22260197.00 L 18446112.00 19624711.00 L 18446112.00 18252126.00 L 18433427.00 18252126.00 A 141458.06 141458.06 0 0 1 18433427.00 17974646.00 L 18465198.68 17974646.00 L 18498069.07 17958449.94 L 18519135.00 17922341.26 L 18519135.00 17892877.00 A 141458.06 141458.06 0 0 1 18796615.00 17892877.00 L 18796615.00 17922340.85 L 18817680.06 17958449.52 L 18850551.32 17974646.00 L 18858899.68 17974646.00 L 18891770.07 17958449.94 L 18912836.00 17922341.26 L 18912836.00 17892877.00 A 141458.06 141458.06 0 1 1 19169194.00 17999064.00 L 19143339.00 18024919.00 L 19143339.00 18155169.00 L 19136354.00 18190285.00 L 19116462.00 18220055.00 L 18991763.00 18344754.00 L 18991763.00 19679486.62 L 19047196.20 19702447.80 L 19627214.00 19122430.00 L 19627214.00 18252126.00 L 19614529.00 18252126.00 A 141458.06 141458.06 0 0 1 19614529.00 17974646.00 L 19646300.68 17974646.00 L 19679171.07 17958449.94 L 19700237.00 17922341.26 L 19700237.00 17892877.00 A 141458.06 141458.06 0 0 1 19977717.00 17892877.00 L 19977717.00 17922340.85 L 19998782.06 17958449.52 L 20031653.32 17974646.00 L 20040001.68 17974646.00 L 20072872.07 17958449.94 L 20093938.00 17922341.26 L 20093938.00 17892877.00 A 141458.06 141458.06 0 1 1 20350296.00 17999064.00 L 20324441.00 18024919.00 L 20324441.00 18155169.00 L 20317456.00 18190285.00 L 20297564.00 18220055.00 L 20170740.00 18346879.00 L 20170740.00 19309554.00 L 20163755.00 19344670.00 L 20143864.00 19374440.00 L 18151759.20 21366544.80 L 18163345.60 21424793.60 A 141456.97 141456.97 0 0 1 18112352.00 21681151.00 L 18075787.00 21681151.00 L 17885601.00 21871337.00 L 17855831.00 21891229.00 L 17820715.00 21898214.00 L 17789795.00 21898214.00 L 17599835.47 22088173.53 L 17614568.00 22123741.00 A 141458.06 141458.06 0 0 1 17358210.60 22229928.60 L 17299961.80 22218342.20 L 17177403.30 22340900.70 L 17163312.00 22350316.00 L 17153896.70 22364407.30 L 16807275.00 22711029.00 L 16807275.00 22883773.11 L 16803969.00 22900394.00 L 16807275.00 22917014.89 L 16807275.00 22932279.00 L 16818067.70 22943071.70 L 16827483.00 22957163.00 L 16841574.30 22966578.30 L 17559335.00 23684339.00 L 17579227.00 23714108.00 L 17586212.00 23749225.00 L 17586212.00 23855380.78 L 17635592.85 23888376.00 L 17672156.87 23888376.00 L 18157429.00 23403103.00 L 18187199.00 23383212.00 L 18222315.00 23376227.00 L 18563501.00 23376227.00 L 18589356.00 23350372.00 A 141458.06 141458.06 0 1 1 18589356.00 23585608.00 L 18563501.00 23559753.00 L 18260324.95 23559753.00 L 17801929.00 24018148.13 L 17801929.00 24054713.00 A 141458.06 141458.06 0 0 1 17635592.85 24165856.00 L 17586212.00 24198851.22 L 17586212.00 25948106.93 L 17885121.95 26247016.05 L 17891488.00 26240650.00 A 141458.06 141458.06 0 1 1 17942481.00 26497008.00 L 17912913.47 26484760.73 L 17876858.79 26486844.05 L 17842972.94 26512224.43 L 17831791.00 26539220.00 A 141458.06 141458.06 0 0 1 17596555.00 26539220.00  zM 23567636.00 27529170.00 L 23553972.04 27526452.00 L 23540039.00 27526452.00 L 23527165.92 27521119.79 L 23513503.00 27518402.00 L 23501919.68 27510662.45 L 23489046.00 27505330.00 L 23479194.00 27495478.00 L 23467610.00 27487738.00 L 23140211.00 27160339.00 L 23109547.00 27114447.00 L 23098779.00 27060313.00 L 23098779.00 24298831.00 L 22632377.00 23832429.00 L 22601713.00 23786537.00 L 22590945.00 23732403.00 L 22590945.00 22370394.96 L 22592435.00 22362904.00 L 22590945.00 22355413.04 L 22590945.00 21550000.00 L 22593663.00 21536335.79 L 22593663.00 21522403.00 L 22598994.92 21509530.61 L 22601713.00 21495866.00 L 22609453.36 21484281.71 L 22614785.00 21471410.00 L 22624636.49 21461558.51 L 22632377.00 21449974.00 L 22643961.51 21442233.49 L 22653813.00 21432382.00 L 22666684.71 21427050.36 L 22678269.00 21419310.00 L 22691933.61 21416591.92 L 22704806.00 21411260.00 L 22718738.79 21411260.00 L 22732403.00 21408542.00 L 22746067.21 21411260.00 L 22760000.00 21411260.00 L 22772872.39 21416591.92 L 22786537.00 21419310.00 L 22798121.29 21427050.36 L 22810993.00 21432382.00 L 22820844.49 21442233.49 L 22832429.00 21449974.00 L 22840169.51 21461558.51 L 22850021.00 21471410.00 L 22855352.64 21484281.71 L 22863093.00 21495866.00 L 22865811.08 21509530.61 L 22871143.00 21522403.00 L 22871143.00 21536335.79 L 22873861.00 21550000.00 L 22873861.00 23673809.00 L 23340263.00 24140211.00 L 23370927.00 24186103.00 L 23381695.00 24240237.00 L 23381695.00 26823275.86 L 23377434.00 26844698.00 L 23381695.00 26866120.14 L 23381695.00 27001719.00 L 23667662.00 27287686.00 L 23675402.00 27299270.00 L 23685254.00 27309122.00 L 23690586.45 27321995.68 L 23698326.00 27333579.00 L 23701043.79 27347241.92 L 23706376.00 27360115.00 L 23706376.00 27374048.04 L 23709094.00 27387712.00 L 23706376.00 27401375.96 L 23706376.00 27415309.00 L 23701043.79 27428182.08 L 23698326.00 27441845.00 L 23690586.45 27453428.32 L 23685254.00 27466302.00 L 23675402.00 27476154.00 L 23667662.00 27487738.00 L 23656078.00 27495478.00 L 23646226.00 27505330.00 L 23633352.32 27510662.45 L 23621769.00 27518402.00 L 23608106.08 27521119.79 L 23595233.00 27526452.00 L 23581299.96 27526452.00 L 23567636.00 27529170.00  zM 16051420.01 29685981.91 L 16040521.00 29666718.00 A 277964.94 277964.94 0 0 0 15784650.00 29558108.00 L 15763221.34 29563649.63 L 15724240.78 29467169.41 A 377747.85 377747.85 0 0 1 16147899.97 29647001.46 L 16051420.01 29685981.91  zM 16005527.17 30163377.25 L 15966546.69 30066897.24 L 15985811.00 30055998.00 A 277964.94 277964.94 0 0 0 16094421.00 29800127.00 L 16088879.96 29778700.59 L 16185359.88 29739720.15 A 377743.29 377743.29 0 0 1 16005527.17 30163377.25  zM 16113495.12 30564058.13 m -338496.79 0 a 338496.79 338496.79 0 1 1 676993.58 0a 338496.79 338496.79 0 1 1 -676993.58 0"/>
<path id="N" d="M 12703495.09 28271385.75 L 12734883.00 28252532.79 L 12732165.00 28235433.00 L 12734883.00 28221767.79 L 12734883.00 28207836.00 L 12740214.54 28194964.53 L 12742933.00 28181298.00 L 12750674.45 28169712.08 L 12756005.00 28156843.00 L 12765854.48 28146993.52 L 12773597.00 28135406.00 L 12880985.00 28028018.00 L 12881770.00 26304507.00 L 11243515.00 24666252.00 L 11212851.00 24620360.00 L 11202083.00 24566226.00 L 11202083.00 23241201.00 L 11207614.53 23213392.34 L 11192881.16 23195439.65 A 141456.89 141456.89 0 0 1 11081739.34 23084297.81 L 11062193.54 23069452.28 L 11003644.46 23054012.54 A 260077.51 260077.51 0 1 1 10642910.40 22693278.60 L 10650953.02 22652845.02 L 10610133.06 22612025.06 L 10580153.00 22624443.00 L 10494651.00 22624443.00 L 10436903.12 22600523.45 L 10383397.57 22638361.37 L 10441337.13 22909177.99 L 10520842.74 23251994.01 L 10606384.18 23590946.62 L 10697939.18 23925981.74 L 10795442.84 24256898.51 L 10898822.02 24583606.91 L 11007848.84 24905574.30 L 11122449.71 25222746.75 L 11242473.79 25534834.74 L 11367728.97 25841466.54 L 11498213.36 26142728.70 L 11633703.65 26438163.85 L 11774015.81 26727445.36 L 11919118.16 27010555.36 L 12068726.84 27286977.20 L 12222853.36 27556754.88 L 12381320.45 27819577.64 L 12543859.46 28075005.48 L 12679449.88 28277787.40 L 12703495.09 28271385.75  z"/>
<path id="N" d="M 10314344.41 21943103.06 L 10322481.00 21934107.63 L 10322481.00 21866771.00 L 10355200.00 21787779.00 L 10415659.00 21727320.00 L 10448682.33 21713641.52 L 10448682.73 21648697.53 L 10393001.00 21625633.00 L 10321291.00 21553923.00 L 10282481.00 21459521.99 L 10389391.90 21459521.99 L 10391470.00 21469969.00 A 157947.31 157947.31 0 1 0 10391470.00 21349075.00 L 10389391.90 21359521.99 L 10282481.00 21358815.00 L 10321291.00 21265121.00 L 10361811.59 21224600.41 L 10342962.29 21164599.70 L 10260702.40 21130525.97 L 10200701.90 21155651.17 L 10200702.00 21610137.65 L 10250275.45 21923561.84 L 10309403.22 21943666.36 L 10314344.41 21943103.06  z"/>
<path id="N" d="M 18614942.00 14940796.00 L 18604691.00 14925453.96 L 18604691.00 11067070.00 L 19032896.00 11067070.00 L 19032896.00 11150787.00 L 19308486.00 11150787.00 L 19308486.00 10855511.00 L 19032896.00 10855511.00 L 19032896.00 10939228.00 L 18048644.00 10939228.00 L 18048644.00 10855511.00 L 17773054.00 10855511.00 L 17773054.00 11150787.00 L 18048644.00 11150787.00 L 18048644.00 11067070.00 L 18476849.00 11067070.00 L 18476849.00 14925453.96 L 18466598.00 14940796.00 A 80285.31 80285.31 0 1 0 18614942.00 14940796.00  z"/>
<path id="N" d="M 13508053.00 24862270.62 L 13508053.00 24770312.00 L 13641784.00 24636581.00 L 13754672.00 24636581.00 L 13793901.00 24675810.00 L 13816862.00 24685321.00 L 14378696.00 24685321.00 L 14401657.00 24675810.00 L 14577638.71 24499828.29 A 77592.02 77592.02 0 1 0 14526016.00 24425246.00 L 14531716.71 24453906.29 L 14365246.00 24620377.00 L 13830312.00 24620377.00 L 13791083.00 24581148.00 L 13768122.00 24571637.00 L 13628334.00 24571637.00 L 13605373.00 24581148.00 L 13452620.00 24733901.00 L 13443109.00 24756862.00 L 13443109.00 24862270.62 A 77585.82 77585.82 0 1 0 13508053.00 24862270.62  z"/>
<path id="N" d="M 17532597.00 22094569.00 L 17526951.00 22090796.55 L 17526951.00 22077208.00 L 17765236.00 21838923.00 L 17820715.00 21838923.00 L 17843676.00 21829412.00 L 18056094.71 21616993.29 A 77592.02 77592.02 0 1 0 18004472.00 21542411.00 L 18010172.71 21571071.29 L 17807265.00 21773979.00 L 17751786.00 21773979.00 L 17728825.00 21783490.00 L 17471518.00 22040797.00 L 17462007.00 22063758.00 L 17462007.00 22073804.08 L 17445105.00 22077166.00 A 80279.37 80279.37 0 1 0 17532597.00 22094569.00  z"/>
<path id="N" d="M 12697995.62 24325867.00 L 12332022.00 24325867.00 L 11772866.00 23766711.00 L 11772866.00 23473632.38 A 77585.82 77585.82 0 1 0 11683625.00 23457398.00 L 11707922.00 23473632.38 L 11707922.00 23780161.00 L 11717433.00 23803122.00 L 12295611.00 24381300.00 L 12318572.00 24390811.00 L 12697995.62 24390811.00 A 77585.82 77585.82 0 1 0 12697995.62 24325867.00  z"/>
<path id="N" d="M 17202362.00 26380347.00 L 17187026.72 26383397.28 L 17166921.00 26363291.86 L 17166921.00 23898340.00 L 17157410.00 23875379.00 L 16387984.00 23105953.00 L 16387984.00 22537354.00 L 19741938.00 19183400.00 L 19751449.00 19160439.00 L 19751449.00 18197274.00 L 19741938.00 18174313.00 L 19714469.94 18146844.94 L 19716298.00 18144109.00 A 80285.31 80285.31 0 1 0 19642126.00 18193669.00 L 19664916.77 18189135.77 L 19686505.00 18210724.00 L 19686505.00 19146989.00 L 16332551.00 22500943.00 L 16323040.00 22523904.00 L 16323040.00 23119403.00 L 16332551.00 23142364.00 L 17101977.00 23911790.00 L 17101977.00 26376742.00 L 17111488.00 26399703.00 L 17133597.94 26421813.27 L 17128190.00 26429907.00 A 80285.31 80285.31 0 1 0 17202362.00 26380347.00  z"/>
<path id="N" d="M 13836308.00 23394552.62 L 13836308.00 23223439.00 L 14068716.00 22991031.00 L 14078227.00 22968070.00 L 14078227.00 22141212.00 L 14113206.00 22106233.00 L 14122717.00 22083272.00 L 14122717.00 22043558.46 A 77672.34 77672.34 0 1 0 14037726.00 22025658.00 L 14057773.00 22039052.68 L 14057773.00 22069822.00 L 14022794.00 22104801.00 L 14013283.00 22127762.00 L 14013283.00 22954620.00 L 13780875.00 23187028.00 L 13771364.00 23209989.00 L 13771364.00 23394552.62 A 77585.82 77585.82 0 1 0 13836308.00 23394552.62  z"/>
<path id="N" d="M 17020628.00 26327545.00 L 17015251.97 26319499.03 L 17037410.00 26297341.00 L 17046921.00 26274380.00 L 17046921.00 23948045.00 L 17037410.00 23925084.00 L 16267984.00 23155658.00 L 16267984.00 22487649.00 L 18922961.00 19832672.00 L 18932472.00 19809711.00 L 18932472.00 18320195.00 L 19074537.00 18178130.00 L 19084048.00 18155169.00 L 19084048.00 17993477.38 A 77585.82 77585.82 0 1 0 18994807.00 17977243.00 L 19019104.00 17993477.38 L 19019104.00 18141719.00 L 18877039.00 18283784.00 L 18867528.00 18306745.00 L 18867528.00 19796261.00 L 16212551.00 22451238.00 L 16203040.00 22474199.00 L 16203040.00 23169108.00 L 16212551.00 23192069.00 L 16981977.00 23961495.00 L 16981977.00 26260930.00 L 16961858.37 26281048.63 L 16946456.00 26277985.00 A 80284.08 80284.08 0 1 0 17020628.00 26327545.00  z"/>
<path id="N" d="M 18795396.00 14722759.00 L 18782801.00 14714343.47 L 18782801.00 12191832.00 L 19428953.00 11545680.00 L 21093978.99 11545680.00 L 21089340.00 11555362.00 L 21337874.00 11674444.00 L 21374047.88 11598945.75 L 22261673.33 12024238.82 L 22225499.00 12099738.00 L 22474033.00 12218820.00 L 22601621.00 11952532.00 L 22353087.00 11833450.00 L 22316913.71 11908947.01 L 21429288.27 11483653.94 L 21465462.00 11408156.00 L 21216928.00 11289074.00 L 21155232.61 11417838.00 L 19402476.00 11417838.00 L 19357277.00 11436560.00 L 18673681.00 12120156.00 L 18654959.00 12165355.00 L 18654959.00 14749127.00 L 18661331.06 14764510.56 L 18658344.00 14779528.00 A 80284.08 80284.08 0 1 0 18795396.00 14722759.00  z"/>
<path id="N" d="M 17429606.71 26283685.71 L 17286921.00 26141000.00 L 17286921.00 23848635.00 L 17277410.00 23825674.00 L 16507984.00 23056248.00 L 16507984.00 22587059.00 L 19861938.00 19233105.00 L 19871449.00 19210144.00 L 19871449.00 17993477.38 A 77585.82 77585.82 0 1 0 19782208.00 17977243.00 L 19806505.00 17993477.38 L 19806505.00 19196694.00 L 16452551.00 22550648.00 L 16443040.00 22573609.00 L 16443040.00 23069698.00 L 16452551.00 23092659.00 L 17221977.00 23862085.00 L 17221977.00 26154450.00 L 17231488.00 26177411.00 L 17383684.71 26329607.71 A 77592.02 77592.02 0 1 0 17429606.71 26283685.71  z"/>
<path id="N" d="M 12930394.01 28292198.99 L 13079212.00 28143381.00 L 13096615.00 28117335.00 L 13102726.00 28086612.00 L 13103511.00 26245913.00 L 13097400.00 26215190.00 L 13079997.00 26189144.00 L 11423824.00 24532971.00 L 11423824.00 23274456.00 L 11494728.00 23203552.00 L 11512131.00 23177506.00 L 11518242.00 23146783.00 L 11518242.00 23036724.99 L 13468834.00 21086133.00 L 13486237.00 21060087.00 L 13492348.00 21029364.00 L 13492348.00 16005050.99 L 15671732.00 13825667.00 A 80284.08 80284.08 0 1 0 15558191.99 13712132.01 L 13355296.00 15915027.00 L 13337893.00 15941073.00 L 13331782.00 15971796.00 L 13331782.00 20996109.99 L 11381190.00 22946701.00 L 11363787.00 22972747.00 L 11357676.00 23003470.00 L 11357676.00 23113528.00 L 11286772.00 23184432.00 L 11269369.00 23210478.00 L 11263258.00 23241201.00 L 11263258.00 24566226.00 L 11269369.00 24596949.00 L 11286772.00 24622995.00 L 12942945.00 26279168.00 L 12942160.00 28053357.84 L 12816854.00 28178663.00 A 80284.08 80284.08 0 1 0 12930394.01 28292198.99  z"/>
<path id="N" d="M 16113489.40 30564064.47 m -277972.90 0 a 277972.90 277972.90 0 1 1 555945.80 0a 277972.90 277972.90 0 1 1 -555945.80 0M 16113494.38 30564063.09 m -140500.91 0 a 140500.91 140500.91 0 1 1 281001.82 0a 140500.91 140500.91 0 1 1 -281001.82 0"/>
<path id="N" d="M 23624405.00 27330943.00 L 23320520.00 27027058.00 L 23320521.00 24240237.00 L 23314409.00 24209514.00 L 23297002.99 24183465.99 L 22812686.00 23699148.05 L 22812686.00 21550000.00 A 80284.08 80284.08 0 0 0 22652120.00 21550000.00 L 22652120.00 23732403.00 L 22658231.00 23763126.00 L 22675634.00 23789172.00 L 23159954.00 24273491.05 L 23159954.00 27060313.00 L 23166065.00 27091036.00 L 23183468.00 27117082.00 L 23510867.00 27444481.00 A 80284.08 80284.08 0 1 0 23624405.00 27330943.00  z"/>
<path id="N" d="M 15894283.00 21369515.62 L 15894283.00 20689538.38 A 77585.82 77585.82 0 1 0 15805042.00 20673304.00 L 15829339.00 20689538.38 L 15829339.00 21369515.62 A 77585.82 77585.82 0 1 0 15894283.00 21369515.62  z"/>
<path id="N" d="M 13703717.00 23218910.00 L 13694142.13 23204579.87 L 13706797.00 23191925.00 L 13712934.95 23177107.05 L 13948716.00 22941326.00 L 13958227.00 22918365.00 L 13958227.00 21912445.00 L 14038051.00 21832621.00 L 14061220.00 21832621.00 L 14084181.00 21823110.00 L 14121140.00 21786151.00 L 14130651.00 21763190.00 L 14130651.00 21744363.92 L 14147553.00 21741002.00 A 80279.37 80279.37 0 1 0 14060061.00 21723599.00 L 14065707.00 21727371.45 L 14065707.00 21749740.00 L 14047770.00 21767677.00 L 14024601.00 21767677.00 L 14001640.00 21777188.00 L 13902794.00 21876034.00 L 13893283.00 21898995.00 L 13893283.00 22904915.00 L 13660875.00 23137323.00 L 13654737.05 23152140.95 L 13636203.57 23170674.43 L 13629545.00 23169350.00 A 80284.08 80284.08 0 1 0 13703717.00 23218910.00  z"/>
<path id="N" d="M 16765133.29 26431969.71 L 16800681.00 26396422.00 L 16810192.00 26373461.00 L 16810192.00 26301825.00 L 16917410.00 26194607.00 L 16926921.00 26171646.00 L 16926921.00 23997750.00 L 16917410.00 23974789.00 L 16147984.00 23205363.00 L 16147984.00 22437943.00 L 18800836.00 19785091.00 L 18810347.00 19762130.00 L 18810347.00 18210724.00 L 18831935.06 18189135.94 L 18854725.00 18193669.00 A 80284.08 80284.08 0 1 0 18780553.00 18144109.00 L 18782381.46 18146845.54 L 18754914.00 18174313.00 L 18745403.00 18197274.00 L 18745403.00 19748680.00 L 16092551.00 22401532.00 L 16083040.00 22424493.00 L 16083040.00 23218813.00 L 16092551.00 23241774.00 L 16861977.00 24011200.00 L 16861977.00 26158196.00 L 16754759.00 26265414.00 L 16745248.00 26288375.00 L 16745248.00 26360011.00 L 16719211.29 26386047.71 A 77592.02 77592.02 0 1 0 16765133.29 26431969.71  z"/>
<path id="N" d="M 14177323.00 19737906.62 L 14177323.00 19535537.00 L 14780388.00 18932472.00 L 15126996.62 18932472.00 A 77585.82 77585.82 0 1 0 15143231.00 18843231.00 L 15126996.62 18867528.00 L 14766938.00 18867528.00 L 14743977.00 18877039.00 L 14121890.00 19499126.00 L 14112379.00 19522087.00 L 14112379.00 19737906.62 A 77585.82 77585.82 0 1 0 14177323.00 19737906.62  z"/>
<path id="N" d="M 10429060.00 22104125.00 L 10418325.00 22096952.26 L 10418325.00 22074523.00 L 10453239.69 22039608.31 L 10476955.00 22055454.00 A 157951.45 157951.45 0 1 0 10391470.00 21969969.00 L 10407317.29 21993686.71 L 10362892.00 22038112.00 L 10353381.00 22061073.00 L 10353381.00 22084372.32 L 10341568.00 22086722.00 A 80279.37 80279.37 0 1 0 10429060.00 22104125.00  z"/>
<path id="N" d="M 11496847.94 20164597.94 m -200709.51 0 a 200709.51 200709.51 0 1 1 401419.02 0a 200709.51 200709.51 0 1 1 -401419.02 0M 11496850.88 20164595.97 m -127854.03 0 a 127854.03 127854.03 0 1 1 255708.07 0a 127854.03 127854.03 0 1 1 -255708.07 0"/>
<path id="N" d="M 18423196.00 14779528.00 L 18420208.94 14764510.56 L 18426581.00 14749127.00 L 18426581.00 12165354.00 L 18407859.00 12120155.00 L 17724264.00 11436560.00 L 17679065.00 11417838.00 L 15926657.39 11417838.00 L 15864962.00 11289074.00 L 15616428.00 11408156.00 L 15652600.61 11483651.59 L 14764975.53 11908945.43 L 14728803.00 11833450.00 L 14480269.00 11952532.00 L 14607857.00 12218820.00 L 14856391.00 12099738.00 L 14820215.92 12024237.24 L 15707841.00 11598943.41 L 15744016.00 11674444.00 L 15992550.00 11555362.00 L 15987911.01 11545680.00 L 17652588.00 11545680.00 L 18298739.00 12191831.00 L 18298739.00 14714343.47 L 18286144.00 14722759.00 A 80284.08 80284.08 0 1 0 18423196.00 14779528.00  z"/>
<path id="N" d="M 16253866.63 26434706.37 L 16288870.00 26399703.00 L 16298381.00 26376742.00 L 16298381.00 26301825.00 L 16378202.00 26222004.00 L 16537152.00 26222004.00 L 16560113.00 26212493.00 L 16677410.00 26095197.00 L 16686921.00 26072235.00 L 16686921.00 24097160.00 L 16677410.00 24074199.00 L 15907984.00 23304773.00 L 15907984.00 22338533.00 L 18560836.00 19685681.00 L 18570347.00 19662720.00 L 18570347.00 18197274.00 L 18560836.00 18174313.00 L 18533367.94 18146844.94 L 18535196.00 18144109.00 A 80285.31 80285.31 0 1 0 18461024.00 18193669.00 L 18483814.77 18189135.77 L 18505403.00 18210724.00 L 18505403.00 19649270.00 L 15852551.00 22302122.00 L 15843040.00 22325083.00 L 15843040.00 23318223.00 L 15852551.00 23341184.00 L 16621977.00 24110610.00 L 16621977.00 26058785.00 L 16523702.00 26157060.00 L 16364752.00 26157060.00 L 16341791.00 26166571.00 L 16242948.00 26265414.00 L 16233437.00 26288375.00 L 16233437.00 26363292.00 L 16209463.00 26386458.00 A 80285.31 80285.31 0 1 0 16253866.63 26434706.37  z"/>
<path id="N" d="M 20692282.00 18833450.00 L 20689563.00 18829380.64 L 20689563.00 18737121.58 L 20693922.00 18726598.00 L 20693922.00 16121783.00 L 20873783.00 15941922.00 L 20892505.00 15896723.00 L 20892505.00 15732865.00 L 20873783.00 15687666.00 L 20682189.00 15496072.00 L 20682189.00 14887171.04 L 20692440.00 14871829.00 A 80285.31 80285.31 0 1 0 20544096.00 14871829.00 L 20554347.00 14887171.04 L 20554347.00 15522549.00 L 20573069.00 15567748.00 L 20764663.00 15759342.00 L 20764663.00 15870246.00 L 20584802.00 16050107.00 L 20566080.00 16095306.00 L 20566080.00 18720433.42 L 20561721.00 18730957.00 L 20561341.00 18807404.00 A 80284.08 80284.08 0 1 0 20692282.00 18833450.00  z"/>
<path id="N" d="M 22059717.00 13504552.00 L 22063316.51 13486455.49 L 22315280.49 13234491.51 L 22333377.00 13230892.00 A 80279.37 80279.37 0 1 0 22228482.00 13125997.00 L 22224882.49 13144093.51 L 21972918.51 13396057.49 L 21954822.00 13399657.00 A 80279.37 80279.37 0 1 0 22059717.00 13504552.00  z"/>
<path id="N" d="M 13287440.00 24550040.00 L 13386286.00 24451194.00 L 13395797.00 24428233.00 L 13395797.00 24364915.00 L 13678734.71 24081977.29 A 77592.02 77592.02 0 1 0 13627112.00 24007395.00 L 13632812.71 24036055.29 L 13340364.00 24328504.00 L 13330853.00 24351465.00 L 13330853.00 24414783.00 L 13251029.00 24494607.00 L 13138141.93 24494607.00 L 13015264.00 24371729.93 L 13015264.00 24331498.00 L 13005753.00 24308536.00 L 12863854.00 24166638.00 L 12840893.00 24157127.00 L 12455370.38 24157127.00 L 12443322.92 24153101.00 L 12439961.00 24136199.00 A 80279.37 80279.37 0 1 0 12422558.00 24223691.00 L 12426330.45 24218045.00 L 12439957.62 24218045.00 L 12449677.00 24222071.00 L 12827442.93 24222071.00 L 12950320.00 24344948.93 L 12950320.00 24385180.00 L 12959831.00 24408141.00 L 13101729.00 24550040.00 L 13124691.00 24559551.00 L 13264479.00 24559551.00 L 13287440.00 24550040.00  z"/>
<path id="N" d="M 14182550.00 23415530.62 L 14182550.00 23354465.00 L 14185976.00 23351039.00 L 14195487.00 23328078.00 L 14195487.00 23203670.00 L 14308716.00 23090441.00 L 14318227.00 23067480.00 L 14318227.00 23027695.00 L 15471339.71 21874582.29 A 77592.02 77592.02 0 1 0 15419717.00 21800000.00 L 15425417.71 21828660.29 L 14262794.00 22991284.00 L 14253283.00 23014245.00 L 14253283.00 23054030.00 L 14140054.00 23167259.00 L 14130543.00 23190220.00 L 14130543.00 23314628.00 L 14127117.00 23318054.00 L 14117606.00 23341015.00 L 14117606.00 23415530.62 A 77585.82 77585.82 0 1 0 14182550.00 23415530.62  z"/>
<path id="N" d="M 16342753.00 21351665.73 L 16342753.00 20511294.83 A 78729.62 78729.62 0 1 0 16254255.00 20494564.00 L 16277809.00 20510301.94 L 16277809.00 21350671.50 A 78731.16 78731.16 0 1 0 16342753.00 21351665.73  z"/>
<path id="N" d="M 11183334.00 22349075.00 L 11167487.51 22325358.49 L 11305285.00 22187561.00 L 11314796.00 22164600.00 L 11314796.00 21847755.00 L 11926662.00 21235889.00 L 11936173.00 21212928.00 L 11936173.00 18571451.00 L 11926662.00 18548490.00 L 11657164.83 18278992.83 L 11682279.00 18241407.00 A 200704.69 200704.69 0 1 0 11573657.00 18350029.00 L 11611242.83 18324914.83 L 11871229.00 18584901.00 L 11871229.00 21199478.00 L 11259363.00 21811344.00 L 11249852.00 21834305.00 L 11249852.00 22151150.00 L 11121565.51 22279436.49 L 11097849.00 22263590.00 A 157951.45 157951.45 0 1 0 11183334.00 22349075.00  zM 11496850.88 18164595.97 m -127854.03 0 a 127854.03 127854.03 0 1 1 255708.07 0a 127854.03 127854.03 0 1 1 -255708.07 0"/>
<path id="N" d="M 15840346.00 20004356.62 L 15840346.00 19887939.00 L 15830835.00 19864978.00 L 15439224.00 19473367.00 L 15416263.00 19463856.00 L 15311861.38 19463856.00 A 77585.82 77585.82 0 1 0 15295627.00 19553097.00 L 15311861.38 19528800.00 L 15402813.00 19528800.00 L 15775402.00 19901389.00 L 15775402.00 20004356.62 A 77585.82 77585.82 0 1 0 15840346.00 20004356.62  z"/>
<path id="N" d="M 16508817.00 26388991.00 L 16509976.43 26383162.00 L 16545700.00 26383162.00 L 16568661.00 26373651.00 L 16797410.00 26144902.00 L 16806921.00 26121941.00 L 16806921.00 24047455.00 L 16797410.00 24024494.00 L 16027984.00 23255068.00 L 16027984.00 22388238.00 L 18680836.00 19735386.00 L 18690347.00 19712425.00 L 18690347.00 17993477.38 A 77585.82 77585.82 0 1 0 18601106.00 17977243.00 L 18625403.00 17993477.38 L 18625403.00 19698975.00 L 15972551.00 22351827.00 L 15963040.00 22374788.00 L 15963040.00 23268518.00 L 15972551.00 23291479.00 L 16741977.00 24060905.00 L 16741977.00 26108491.00 L 16532250.00 26318218.00 L 16502585.03 26318218.00 L 16491414.00 26301499.00 A 80284.08 80284.08 0 1 0 16508817.00 26388991.00  z"/>
<path id="N" d="M 14029102.00 27978197.00 L 14029102.00 27180049.00 L 14074324.00 27134827.00 L 14917323.00 27134827.00 A 80284.08 80284.08 0 0 0 14917323.00 26974261.00 L 14041069.00 26974261.00 L 14010346.00 26980372.00 L 13984300.00 26997775.00 L 13892050.00 27090025.00 L 13874647.00 27116071.00 L 13868536.00 27146794.00 L 13868536.00 27978197.00 A 80284.08 80284.08 0 0 0 14029102.00 27978197.00  z"/>
<path id="N" d="M 20946940.00 18610300.10 L 20946940.00 18528884.00 L 20928218.00 18483685.00 L 20872032.00 18427499.00 L 20872032.00 16195558.00 L 21051893.00 16015697.00 L 21070615.00 15970498.00 L 21070615.00 15659090.00 L 21051893.00 15613891.00 L 20860299.00 15422297.00 L 20860299.00 15115143.10 L 20872832.00 15106769.00 A 80284.08 80284.08 0 1 0 20735780.00 15050000.00 L 20738778.85 15065076.68 L 20732457.00 15080339.00 L 20732457.00 15448774.00 L 20751179.00 15493973.00 L 20942773.00 15685567.00 L 20942773.00 15944021.00 L 20762912.00 16123882.00 L 20744190.00 16169081.00 L 20744190.00 18453976.00 L 20762912.00 18499175.00 L 20819098.00 18555361.00 L 20819098.00 18632530.64 L 20816379.00 18636600.00 A 80285.31 80285.31 0 1 0 20946940.00 18610300.10  z"/>
<path id="N" d="M 22381411.00 13705571.00 L 22385010.51 13687474.49 L 22636974.49 13435510.51 L 22655071.00 13431911.00 A 80279.37 80279.37 0 1 0 22550176.00 13327016.00 L 22546576.49 13345112.51 L 22294612.51 13597076.49 L 22276516.00 13600676.00 A 80279.37 80279.37 0 1 0 22381411.00 13705571.00  z"/>
<path id="N" d="M 10996847.94 20164597.94 m -200709.51 0 a 200709.51 200709.51 0 1 1 401419.02 0a 200709.51 200709.51 0 1 1 -401419.02 0M 10996850.88 20164595.97 m -127854.03 0 a 127854.03 127854.03 0 1 1 255708.07 0a 127854.03 127854.03 0 1 1 -255708.07 0"/>
<path id="N" d="M 11496847.94 19664597.94 m -200709.51 0 a 200709.51 200709.51 0 1 1 401419.02 0a 200709.51 200709.51 0 1 1 -401419.02 0M 11496850.88 19664595.97 m -127854.03 0 a 127854.03 127854.03 0 1 1 255708.07 0a 127854.03 127854.03 0 1 1 -255708.07 0"/>
<path id="N" d="M 10996847.94 19664597.94 m -200709.51 0 a 200709.51 200709.51 0 1 1 401419.02 0a 200709.51 200709.51 0 1 1 -401419.02 0M 10996850.88 19664595.97 m -127854.03 0 a 127854.03 127854.03 0 1 1 255708.07 0a 127854.03 127854.03 0 1 1 -255708.07 0"/>
<path id="N" d="M 11496847.94 19164597.94 m -200709.51 0 a 200709.51 200709.51 0 1 1 401419.02 0a 200709.51 200709.51 0 1 1 -401419.02 0M 11496850.88 19164595.97 m -127854.03 0 a 127854.03 127854.03 0 1 1 255708.07 0a 127854.03 127854.03 0 1 1 -255708.07 0"/>
<path id="N" d="M 11037408.39 21409528.39 m -157947.31 0 a 157947.31 157947.31 0 1 1 315894.61 0a 157947.31 157947.31 0 1 1 -315894.61 0"/>
<path id="N" d="M 11183334.00 21849075.00 L 11167487.51 21825358.49 L 11806662.00 21186184.00 L 11816173.00 21163223.00 L 11816173.00 18951451.00 L 11806662.00 18928490.00 L 11657164.83 18778992.83 L 11682279.00 18741407.00 A 200704.69 200704.69 0 1 0 11573657.00 18850029.00 L 11611242.83 18824914.83 L 11751229.00 18964901.00 L 11751229.00 21149773.00 L 11121565.51 21779436.49 L 11097849.00 21763590.00 A 157951.45 157951.45 0 1 0 11183334.00 21849075.00  zM 11496850.88 18664595.97 m -127854.03 0 a 127854.03 127854.03 0 1 1 255708.07 0a 127854.03 127854.03 0 1 1 -255708.07 0"/>
<path id="N" d="M 15559198.00 19834448.00 L 15544867.87 19844022.87 L 15491097.00 19790252.00 L 15468136.00 19780741.00 L 15394156.92 19780741.00 L 15390795.00 19763839.00 A 80279.37 80279.37 0 1 0 15373392.00 19851331.00 L 15377164.45 19845685.00 L 15454686.00 19845685.00 L 15510962.43 19901961.43 L 15509638.00 19908620.00 A 80284.08 80284.08 0 1 0 15559198.00 19834448.00  z"/>
<path id="N" d="M 14051044.00 23201415.00 L 14045398.00 23197642.55 L 14045398.00 23184054.00 L 14188716.00 23040736.00 L 14198227.00 23017775.00 L 14198227.00 22190917.00 L 14371733.71 22017410.29 A 77592.02 77592.02 0 1 0 14320111.00 21942828.00 L 14325811.71 21971488.29 L 14142794.00 22154506.00 L 14133283.00 22177467.00 L 14133283.00 23004325.00 L 13989965.00 23147643.00 L 13980454.00 23170604.00 L 13980454.00 23180650.08 L 13963552.00 23184012.00 A 80279.37 80279.37 0 1 0 14051044.00 23201415.00  z"/>
<path id="N" d="M 21471821.00 21350092.00 L 21453227.67 21346393.67 L 21258397.00 21151563.00 L 21258397.00 21027636.00 L 21239675.00 20982437.00 L 21029456.00 20772218.00 L 21029456.00 20752263.36 L 21032175.00 20748194.00 A 80285.31 80285.31 0 1 0 20901614.00 20774493.90 L 20901614.00 20798695.00 L 20920336.00 20843894.00 L 21130555.00 21054113.00 L 21130555.00 21178040.00 L 21149277.00 21223239.00 L 21363425.31 21437387.31 L 21366926.00 21454987.00 A 80279.37 80279.37 0 1 0 21471821.00 21350092.00  z"/>
<path id="N" d="M 21194258.19 21351515.59 L 21185627.00 21330678.00 L 21080287.00 21225338.00 L 21080287.00 21139904.00 L 21073965.15 21124641.68 L 21076964.00 21109565.00 A 80284.08 80284.08 0 1 0 20939912.00 21166334.00 L 20952445.00 21174708.10 L 20952445.00 21251815.00 L 20971167.00 21297014.00 L 21082770.53 21408617.53 L 21079830.00 21423401.00 A 80284.08 80284.08 0 1 0 21194258.19 21351515.59  z"/>
<path id="N" d="M 20915585.00 21697824.00 L 20911515.64 21700543.00 L 20816890.00 21700543.00 L 20684464.51 21568117.51 L 20680865.00 21550021.00 A 80279.37 80279.37 0 1 0 20575970.00 21654916.00 L 20594066.51 21658515.51 L 20745214.00 21809663.00 L 20790413.00 21828385.00 L 20889539.00 21828765.00 A 80284.08 80284.08 0 1 0 20915585.00 21697824.00  z"/>
<path id="N" d="M 25720964.62 22067528.00 L 25432011.38 22067528.00 A 77585.82 77585.82 0 1 0 25415777.00 22156769.00 L 25432011.38 22132472.00 L 25720964.62 22132472.00 A 77585.82 77585.82 0 1 0 25720964.62 22067528.00  z"/>
<path id="N" d="M 17744896.00 26386458.00 L 17729871.00 26383469.43 L 17729871.00 26358771.00 L 17720360.00 26335810.00 L 17406921.00 26022371.00 L 17406921.00 23798930.00 L 17397410.00 23775969.00 L 16627984.00 23006543.00 L 16627984.00 22636765.00 L 19981938.00 19282810.00 L 19991449.00 19259849.00 L 19991449.00 18210724.00 L 20013037.06 18189135.94 L 20035827.00 18193669.00 A 80284.08 80284.08 0 1 0 19961655.00 18144109.00 L 19963483.46 18146845.54 L 19936016.00 18174313.00 L 19926505.00 18197274.00 L 19926505.00 19246399.00 L 16572551.00 22600354.00 L 16563040.00 22623315.00 L 16563040.00 23019993.00 L 16572551.00 23042954.00 L 17341977.00 23812380.00 L 17341977.00 26035821.00 L 17351488.00 26058782.00 L 17664927.00 26372221.00 L 17664927.00 26398834.40 L 17657404.00 26403861.00 A 80284.08 80284.08 0 1 0 17744896.00 26386458.00  z"/>
</g>
</svg>
