**ABCDEFGHIJKLMNOPQRSTUVWXYZabcdefghijklmnopqrstuvwxyz**************************
**PARASOLID !"#$%&'()*+,-./:;<=>?@[\]^_`{|}~0123456789**************************
**PART1;
MC=AMD64;
MC_MODEL=AMD64 Family 23 Model 1 Stepping 2, AuthenticAMD;
MC_ID=unknown;
OS=Windows_NT;
OS_RELEASE=unknown;
FRU=CAD Exchanger 3.10.1 (cadexchanger.com);
APPL=unknown;
SITE=unknown;
USER=unknown;
FORMAT=text;
GUISE=transmit;
KEY=LTST-S270KRKT_LTST-S270KRKT;
FILE=LTST-S270KRKT_LTST-S270KRKT.x_t;
DATE=Wed Jul 13 20:17:07 2022;
**PART2;
SCH=SCH_1200000_12103;
USFLD_SIZE=0;
**PART3;
**END_OF_HEADER*****************************************************************
T51 : TRANSMIT FILE created by modeller version 120000017 SCH_1200000_121030 74
 4 1 4 0 2 105 386 667 12 2 68 0 3 0 0 0 0 1000 1e-008 0 0 0 1 0 1 1 12 14 20 18
 9 19 17 70 3 0 2 0 0 4 1 20 0 4 4 1 T74 20 4 1 0 5 0 0 0 0 0 0 0 0 0 0 0 0 0 0
 0 0 0 0 0 81 1 5 7 6 13 0 0 42 0 8 80 1 6 0 7 8001 0 0 0 0 3 5 0 0 0 FFFFTFTFFF
FFFF2 79 15 7 SDL/TYSA_COLOUR83 3 8 0.9372549057006836 0.9372549057006836 0.9372
549057006836 19 9 1 0 2 11 0 10 V13 10 2 0 2 0 0 0 0 9 13 19 11 3 0 2 0 9 12 S13
 12 4 0 2 0 13 0 0 11 0 14 13 5 5 1e-008 40 0 15 12 14 +0 0 40 0 10 50 14 6 0 13
 41 0 0 +0.0006436552791076834 -0.0003122366076811719 9.999979999999999e-006 0.9
927075992781806 -0.1205471788776134 0 -0.1205471788776134 -0.9927075992781806 0
 15 15 8 0 16 13 0 17 16 0 15 24 36 17 21 19 0 29 +18 17 9 0 16 0 22 18 ?2 29 18
 10 0 17 23 0 0.0006436552791076834 -0.0003122366076811719 0.00069000116 16 19 1
1 0 ?16 0 27 20 0 0 2 30 20 12 0 19 28 0 0 +0.0006436552791076834 -0.00031223660
76811719 9.999979999999999e-006 0 0 1 17 21 0 86 91 87 22 16 19 0 36 -18 22 13 0
 21 17 25 23 ?2 29 23 14 0 22 26 18 0.0006436552791076834 -0.0003122366076811719
 9.999979999999999e-006 17 24 0 15 30 16 25 29 27 0 35 +18 25 15 0 24 22 31 26 ?
2 29 26 16 0 25 32 23 0.0005686537705341999 -0.0009298750145824031 0.00069000116
 16 27 17 0 ?24 19 33 28 0 0 2 30 28 18 0 27 34 20 0 +0.0006436552791076834 -0.0
003122366076811719 0.00069000116 -0.1205471788776134 -0.9927075992781806 0 17 29
 0 104 90 50 17 24 27 0 87 -17 30 0 15 36 24 31 35 33 0 39 -18 31 19 0 30 25 46
 32 ?2 29 32 20 0 31 47 26 0.0005686537705341999 -0.0009298750145824031 9.999979
999999999e-006 16 33 21 0 ?35 27 37 34 0 0 2 30 34 22 0 33 38 28 0 +0.0005686537
705341999 -0.0009298750145824031 9.999979999999999e-006 0 0 1 17 35 0 44 45 57 2
5 30 33 0 50 +17 36 0 15 16 30 22 39 37 0 94 -16 37 23 0 ?39 33 48 38 0 0 2 30 3
8 24 0 37 49 34 0 +0.0006436552791076834 -0.0003122366076811719 9.99997999999999
9e-006 -0.1205471788776134 -0.9927075992781806 0 17 39 0 99 60 94 31 36 37 0 57
 +14 40 25 42 1e-008 61 13 44 12 41 +0 0 61 13 10 50 41 26 0 40 62 14 0 +0.00056
86537705341999 -0.0009298750145824033 9.999979999999999e-006 -6.07226734783417e-
007 -0.9999999999998157 0 -0.9999999999998157 6.07226734783417e-007 0 81 1 42 27
 6 40 0 0 63 5 43 83 3 43 0.9372549057006836 0.9372549057006836 0.93725490570068
36 15 44 28 0 35 40 0 17 45 0 44 51 35 46 50 48 0 56 +18 46 29 0 45 31 52 47 ?2
 29 47 30 0 46 53 32 -0.0005050534047855075 -0.0009298743625988013 0.00069000116
 16 48 31 0 ?45 37 54 49 0 0 2 30 49 32 0 48 55 38 0 +0.0005686537705341999 -0.0
009298750145824031 0.00069000116 -0.9999999999998157 6.07226734783417e-007 0 17
 50 0 104 29 71 25 45 48 0 0 -17 51 0 44 57 45 52 56 54 0 60 -18 52 33 0 51 46 6
7 53 ?2 29 53 34 0 52 68 47 -0.0005050534047855075 -0.0009298743625988013 9.9999
79999999999e-006 16 54 35 0 ?56 48 58 55 0 0 2 30 55 36 0 54 59 49 0 +-0.0005050
534047855075 -0.0009298743625988013 9.999979999999999e-006 0 0 1 17 56 0 65 66 7
8 46 51 54 0 71 +17 57 0 44 35 51 31 60 58 0 0 -16 58 37 0 ?60 54 69 59 0 0 2 30
 59 38 0 58 70 55 0 +0.0005686537705341999 -0.0009298750145824031 9.999979999999
999e-006 -0.9999999999998157 6.07226734783417e-007 0 17 60 0 99 81 39 52 57 58 0
 78 +14 61 39 63 1e-008 82 40 65 12 62 +0 0 82 40 10 50 62 40 0 61 83 41 0 +-0.0
005050534047855075 -0.0009298743625988013 9.999979999999999e-006 -0.992708140633
9284 -0.1205427207222768 0 -0.1205427207222768 0.9927081406339284 0 81 1 63 41 6
 61 0 0 84 42 64 83 3 64 0.9372549057006836 0.9372549057006836 0.937254905700683
6 15 65 42 0 56 61 0 17 66 0 65 72 56 67 71 69 0 77 +18 67 43 0 66 52 73 68 ?2 2
9 68 44 0 67 74 53 -0.0005800517059620598 -0.0003122391900586814 0.00069000116 1
6 69 45 0 ?66 58 75 70 0 0 2 30 70 46 0 69 76 59 0 +-0.0005050534047855075 -0.00
09298743625988013 0.00069000116 -0.1205427207222768 0.9927081406339284 0 17 71 0
 104 50 90 46 66 69 0 0 -17 72 0 65 78 66 73 77 75 0 81 -18 73 47 0 72 67 0 74 ?
2 29 74 48 0 73 0 68 -0.0005800517059620598 -0.0003122391900586814 9.99997999999
9999e-006 16 75 49 0 ?77 69 79 76 0 0 2 30 76 50 0 75 80 70 0 +-0.00058005170596
20598 -0.0003122391900586814 9.999979999999999e-006 0 0 1 17 77 0 86 87 91 67 72
 75 0 90 +17 78 0 65 56 72 52 81 79 0 0 -16 79 51 0 ?81 75 88 80 0 0 2 30 80 52
 0 79 89 76 0 +-0.0005050534047855075 -0.0009298743625988013 9.999979999999999e-
006 -0.1205427207222768 0.9927081406339284 0 17 81 0 99 94 60 73 78 79 0 91 +14
 82 53 84 1e-008 95 61 86 12 83 +0 0 95 61 10 50 83 54 0 82 96 62 0 +-0.00058005
17059620598 -0.0003122391900586814 9.999979999999999e-006 -2.110290761137001e-00
6 0.9999999999977733 0 0.9999999999977733 2.110290761137001e-006 0 81 1 84 55 6
 82 0 0 97 63 85 83 3 85 0.9372549057006836 0.9372549057006836 0.937254905700683
6 15 86 56 0 77 82 0 17 87 0 86 21 77 17 90 88 0 0 +16 88 57 0 ?87 79 92 89 0 0
 2 30 89 58 0 88 93 80 0 +-0.0005800517059620598 -0.0003122391900586814 0.000690
00116 0.9999999999977733 2.110290761137001e-006 0 17 90 0 104 71 29 67 87 88 0 0
 -17 91 0 86 77 21 73 94 92 0 0 -16 92 59 0 ?94 88 0 93 0 0 2 30 93 60 0 92 0 89
 0 +-0.0005800517059620598 -0.0003122391900586814 9.999979999999999e-006 0.99999
99999977733 2.110290761137001e-006 0 17 94 0 99 39 81 22 91 92 0 0 +14 95 61 97
 1e-008 100 82 99 12 96 -0 0 100 82 10 50 96 62 0 95 101 83 0 +0.000643655279107
6834 -0.0003122366076811719 9.999979999999999e-006 0 0 1 -0.2756373558169989 -0.
961261695938319 0 81 1 97 63 6 95 0 0 102 84 98 83 3 98 0.9372549057006836 0.937
2549057006836 0.9372549057006836 15 99 64 0 39 95 0 14 100 65 102 1e-008 0 95 10
4 12 101 +0 0 0 95 10 50 101 66 0 100 0 96 0 +0.0006436552791076834 -0.000312236
6076811719 0.00069000116 0 0 1 -0.2756373558169989 -0.961261695938319 0 81 1 102
 67 6 100 0 0 0 97 103 83 3 103 0.9372549057006836 0.9372549057006836 0.93725490
57006836 15 104 68 0 90 100 0 12 105 188 0 106 0 0 0 0 1000 1e-008 0 0 0 1 0 1 1
 113 115 121 119 110 120 118 70 106 0 105 0 0 4 1 20 0 107 107 1 T74 20 107 1 0
 108 0 0 0 0 0 0 0 0 0 0 0 0 0 0 0 0 0 0 0 81 1 108 7 6 114 0 0 143 0 109 83 3 1
09 0.800000011920929 0.800000011920929 0.800000011920929 19 110 1 0 105 112 0 11
1 V13 111 2 0 105 0 0 0 0 110 114 19 112 3 0 105 0 110 113 S13 113 4 0 105 0 114
 0 0 112 0 14 114 5 108 1e-008 141 0 116 113 115 -0 0 141 0 111 50 115 6 0 114 1
42 0 0 +-0.0008750000000000001 -0.0003899999999999998 0 1 -2.449293598294706e-01
6 0 0 0 1 15 116 8 0 117 114 0 17 117 0 116 125 137 118 122 120 0 200 +18 118 9
 0 130 0 123 119 ?105 29 119 10 0 118 124 0 -0.0008749999999999999 0.00034000000
00000002 0.00065 16 120 11 0 ?117 0 128 121 0 0 105 30 121 12 0 120 129 0 0 +-0.
0008750000000000001 -0.0003899999999999998 0.00065 2.449293598294706e-016 1 0 17
 122 0 187 188 200 123 117 120 0 158 -18 123 13 0 137 118 126 124 ?105 29 124 14
 0 123 127 119 -0.0008750000000000001 -0.0003399999999999998 0.00065 17 125 0 11
6 131 117 126 130 128 0 172 -18 126 15 0 136 123 132 127 ?105 29 127 16 0 126 13
3 124 -0.0008749999999999999 0.0003400000000000002 5e-005 16 128 17 0 ?130 120 1
34 129 0 0 105 30 129 18 0 128 135 121 0 +-0.0008749999999999999 0.0003400000000
000002 0 0 0 1 17 130 0 208 209 221 118 125 128 0 117 +17 131 0 116 137 125 132
 136 134 0 151 -18 132 19 0 140 126 147 133 ?105 29 133 20 0 132 148 127 -0.0008
750000000000001 -0.0003399999999999998 5e-005 16 134 21 0 ?136 128 138 135 0 0 1
05 30 135 22 0 134 139 129 0 +-0.0008750000000000001 -0.0003899999999999998 5e-0
05 2.449293598294706e-016 1 0 17 136 0 166 167 179 126 131 134 0 125 +17 137 0 1
16 117 131 123 140 138 0 122 +16 138 23 0 ?137 134 149 139 0 0 105 30 139 24 0 1
38 150 135 0 +-0.0008750000000000001 -0.0003399999999999998 0 0 0 1 17 140 0 145
 146 158 132 137 138 0 131 -14 141 25 143 1e-008 162 114 145 113 142 +0 0 162 11
4 111 51 142 26 0 141 163 115 0 +-0.0008250000000000001 -0.0003399999999999998 0
 0 0 1 5e-005 -1 2.449293598294706e-016 0 81 1 143 27 6 141 0 0 164 108 144 83 3
 144 0.800000011920929 0.800000011920929 0.800000011920929 15 145 28 0 140 141 0
 17 146 0 145 152 140 147 151 149 0 157 +18 147 29 0 146 132 153 148 ?105 29 148
 30 0 147 154 133 -0.0008250000000000001 -0.0003899999999999998 5e-005 16 149 31
 0 ?146 138 155 150 0 0 105 31 150 32 0 149 156 139 0 +-0.0008250000000000001 -0
.0003399999999999998 5e-005 0 0 1 -1 2.449293598294706e-016 0 5e-005 17 151 0 22
9 182 230 132 146 149 0 179 -17 152 0 145 158 146 153 157 155 0 161 +18 153 33 0
 152 147 168 154 ?105 29 154 34 0 153 169 148 -0.0008250000000000001 -0.00038999
99999999998 0.00065 16 155 35 0 ?152 149 159 156 0 0 105 30 156 36 0 155 160 150
 0 +-0.0008250000000000001 -0.0003899999999999998 0 0 0 1 17 157 0 247 260 256 1
47 152 155 0 230 -17 158 0 145 140 152 123 161 159 0 193 -16 159 37 0 ?161 155 1
70 160 0 0 105 31 160 38 0 159 171 156 0 +-0.0008250000000000001 -0.000339999999
9999998 0.0006500000000000001 0 0 1 -1 2.449293598294706e-016 0 5e-005 17 161 0
 238 239 193 153 158 159 0 242 +14 162 39 164 1e-008 183 141 166 113 163 +0 0 18
3 141 111 51 163 40 0 162 184 142 0 +-0.0008250000000000001 -0.00038999999999999
98 5e-005 2.449293598294706e-016 1 0 5e-005 -1 2.449293598294706e-016 0 81 1 164
 41 6 162 0 0 185 143 165 83 3 165 0.800000011920929 0.800000011920929 0.8000000
11920929 15 166 42 0 136 162 0 17 167 0 166 173 136 168 172 170 0 178 -18 168 43
 0 167 153 174 169 ?105 29 169 44 0 168 175 154 -0.000825 0.0003400000000000002
 0 16 170 45 0 ?172 159 176 171 0 0 105 31 171 46 0 170 177 160 0 +-0.000825 0.0
003400000000000002 5e-005 2.449293598294706e-016 1 -0 -1 2.449293598294706e-016
 0 5e-005 17 172 0 289 224 290 126 167 170 0 221 +17 173 0 166 179 167 174 178 1
76 0 182 -18 174 47 0 173 168 189 175 ?105 29 175 48 0 174 190 169 -0.0008250000
000000001 -0.0003399999999999998 0 16 176 49 0 ?178 170 180 177 0 0 105 30 177 5
0 0 176 181 171 0 +-0.0008250000000000001 -0.0003899999999999998 -6.938893903907
e-021 2.449293598294706e-016 1 0 17 178 0 268 269 281 168 173 176 0 274 +17 179
 0 166 136 173 132 182 180 0 0 +16 180 51 0 ?179 176 191 181 0 0 105 31 181 52 0
 180 192 177 0 +-0.0008250000000000001 -0.0003399999999999998 5e-005 2.449293598
294706e-016 1 -0 -1 2.449293598294706e-016 0 5e-005 17 182 0 229 230 151 174 179
 180 0 233 -14 183 53 185 1e-008 204 162 187 113 184 +0 0 204 162 111 51 184 54
 0 183 205 163 0 +-0.0008250000000000001 -0.0003899999999999998 0.00065000000000
00001 2.449293598294706e-016 1 0 5e-005 -1 2.449293598294706e-016 0 81 1 185 55
 6 183 0 0 206 164 186 83 3 186 0.800000011920929 0.800000011920929 0.8000000119
20929 15 187 56 0 188 183 0 17 188 0 187 194 122 189 193 191 0 199 -18 189 57 0
 188 174 195 190 ?105 29 190 58 0 189 196 175 -0.0008250000000000001 -0.00033999
99999999998 0.0007 16 191 59 0 ?193 180 197 192 0 0 105 31 192 60 0 191 198 181
 0 +-0.0008250000000000001 -0.0003399999999999998 0.0006500000000000001 -2.44929
3598294706e-016 -1 0 -1 2.449293598294706e-016 0 5e-005 17 193 0 238 161 239 123
 188 191 0 0 +17 194 0 187 200 188 195 199 197 0 203 +18 195 61 0 194 189 210 19
6 ?105 29 196 62 0 195 211 190 -0.000825 0.0003400000000000002 0.0007 16 197 63
 0 ?194 191 201 198 0 0 105 30 198 64 0 197 202 192 0 +-0.0008250000000000001 -0
.0003899999999999998 0.0007 2.449293598294706e-016 1 0 17 199 0 298 299 311 189
 194 197 0 239 -17 200 0 187 122 194 118 203 201 0 214 -16 201 65 0 ?203 197 212
 202 0 0 105 31 202 66 0 201 213 198 0 +-0.000825 0.0003400000000000002 0.000650
0000000000001 2.449293598294706e-016 1 -0 -1 2.449293598294706e-016 0 5e-005 17
 203 0 319 320 214 195 200 201 0 311 +14 204 67 206 1e-008 225 183 208 113 205 +
0 0 225 183 111 51 205 68 0 204 226 184 0 +-0.000825 0.0003400000000000002 0 0 0
 1 5e-005 -1 2.449293598294706e-016 0 81 1 206 69 6 204 0 0 227 185 207 83 3 207
 0.800000011920929 0.800000011920929 0.800000011920929 15 208 70 0 209 204 0 17
 209 0 208 215 130 210 214 212 0 220 -18 210 71 0 209 195 216 211 ?105 29 211 72
 0 210 217 196 -0.000825 0.0003900000000000002 0.00065 16 212 73 0 ?214 201 218
 213 0 0 105 31 213 74 0 212 219 202 0 +-0.000825 0.0003400000000000002 0.000650
0000000000001 0 0 1 -1 2.449293598294706e-016 0 5e-005 17 214 0 319 203 320 118
 209 212 0 0 +17 215 0 208 221 209 216 220 218 0 224 -18 216 75 0 215 210 249 21
7 ?105 29 217 76 0 216 250 211 -0.000825 0.0003900000000000002 5e-005 16 218 77
 0 ?220 212 222 219 0 0 105 30 219 78 0 218 223 213 0 +-0.000825 0.0003900000000
000002 0 0 0 1 17 220 0 328 335 329 210 215 218 0 320 +17 221 0 208 130 215 126
 224 222 0 0 -16 222 79 0 ?224 218 231 223 0 0 105 31 223 80 0 222 232 219 0 +-0
.000825 0.0003400000000000002 5e-005 0 0 -1 -1 2.449293598294706e-016 0 5e-005 1
7 224 0 289 290 172 216 221 222 0 329 +14 225 81 227 1e-008 234 204 229 113 226
 +0 0 234 204 111 53 226 82 0 225 235 205 0 +-0.0008250000000000001 -0.000339999
9999999998 5e-005 5e-005 0 0 1 -1 2.449293598294706e-016 0 81 1 227 83 6 225 0 0
 236 206 228 83 3 228 0.800000011920929 0.800000011920929 0.800000011920929 15 2
29 84 0 182 225 0 17 230 0 229 151 182 147 233 231 0 263 +16 231 85 0 ?230 222 2
40 232 0 0 105 31 232 86 0 231 241 223 0 +-0.0008250000000000001 -0.000339999999
9999998 5e-005 -1 3.061616997868406e-016 0 -3.061616997868406e-016 -1 0 5e-005 1
7 233 0 349 284 263 174 230 231 0 281 -14 234 87 236 1e-008 243 225 238 113 235
 +0 0 243 225 111 53 235 88 0 234 244 226 0 +-0.0008250000000000001 -0.000339999
9999999998 0.0006500000000000001 5e-005 -0 0 -1 -1 2.449293598294706e-016 0 81 1
 236 89 6 234 0 0 245 227 237 83 3 237 0.800000011920929 0.800000011920929 0.800
000011920929 15 238 90 0 161 234 0 17 239 0 238 193 161 189 242 240 0 304 -16 24
0 91 0 ?242 231 251 241 0 0 105 31 241 92 0 240 252 232 0 +-0.000825000000000000
1 -0.0003399999999999998 0.0006500000000000001 1 -3.061616997868406e-016 0 -3.06
1616997868406e-016 -1 0 5e-005 17 242 0 358 259 304 153 239 240 0 256 +14 243 93
 245 1e-008 264 234 247 113 244 -0 0 264 234 111 50 244 94 0 243 265 235 0 +-0.0
008750000000000001 -0.0003899999999999998 0 2.449293598294706e-016 1 0 0 0 1 81
 1 245 95 6 243 0 0 266 236 246 83 3 246 0.800000011920929 0.800000011920929 0.8
00000011920929 15 247 96 0 248 243 0 17 248 0 247 256 260 249 253 251 0 362 +18
 249 97 0 259 216 254 250 ?105 29 250 98 0 249 255 217 -0.0006450000000000002 -0
.0003899999999999998 0.00065 16 251 99 0 ?248 240 257 252 0 0 105 30 252 100 0 2
51 258 241 0 +-0.0006450000000000002 -0.0003899999999999998 0 0 0 1 17 253 0 367
 353 362 254 248 251 0 350 -18 254 101 0 260 249 270 255 ?105 29 255 102 0 254 2
71 250 -0.0006450000000000002 -0.0003899999999999998 5e-005 17 256 0 247 157 248
 153 259 257 0 0 -16 257 103 0 ?259 251 261 258 0 0 105 30 258 104 0 257 262 252
 0 +-0.0008750000000000001 -0.0003899999999999998 0.00065 1 -2.449293598294706e-
016 0 17 259 0 358 359 242 249 256 257 0 248 +17 260 0 247 248 157 254 263 261 0
 253 +16 261 105 0 ?260 257 272 262 0 0 105 30 262 106 0 261 273 258 0 +-0.00087
50000000000001 -0.0003899999999999998 5e-005 1 -2.449293598294706e-016 0 17 263
 0 349 233 350 147 260 261 0 0 -14 264 107 266 1e-008 285 243 268 113 265 -0 0 2
85 243 111 50 265 108 0 264 286 244 0 +-0.0008750000000000001 -0.000389999999999
9998 0 0 0 1 1 -2.449293598294706e-016 0 81 1 266 109 6 264 0 0 287 245 267 83 3
 267 0.800000011920929 0.800000011920929 0.800000011920929 15 268 110 0 269 264
 0 17 269 0 268 275 178 270 274 272 0 371 +18 270 111 0 280 254 276 271 ?105 29
 271 112 0 270 277 255 -0.000645 0.0003400000000000001 -3.469446951954e-021 16 2
72 113 0 ?269 261 278 273 0 0 105 30 273 114 0 272 279 262 0 +-0.000874999999999
9999 0.0003400000000000002 -6.938893903907e-021 1 -2.449293598294706e-016 0 17 2
74 0 380 293 371 168 269 272 0 290 -17 275 0 268 281 269 276 280 278 0 353 -18 2
76 115 0 284 270 300 277 ?105 29 277 116 0 276 301 271 -0.0006450000000000002 -0
.0003399999999999999 -3.469446951954e-021 16 278 117 0 ?280 272 282 279 0 0 105
 30 279 118 0 278 283 273 0 +-0.0006450000000000002 -0.0003899999999999998 0 2.4
49293598294706e-016 1 0 17 280 0 367 368 353 270 275 278 0 269 +17 281 0 268 178
 275 174 284 282 0 0 -16 282 119 0 ?284 278 291 283 0 0 105 30 283 120 0 282 292
 279 0 +-0.0008750000000000001 -0.0003399999999999998 -6.938893903907e-021 1 -2.
449293598294706e-016 0 17 284 0 349 350 233 276 281 282 0 275 +14 285 121 287 1e
-008 294 264 289 113 286 +0 0 294 264 111 53 286 122 0 285 295 265 0 +-0.000825
 0.0003400000000000002 5e-005 5e-005 0 0 1 -1 2.449293598294706e-016 0 81 1 287
 123 6 285 0 0 296 266 288 83 3 288 0.800000011920929 0.800000011920929 0.800000
011920929 15 289 124 0 224 285 0 17 290 0 289 172 224 168 293 291 0 0 -16 291 12
5 0 ?293 282 302 292 0 0 105 31 292 126 0 291 303 283 0 +-0.000825 0.00034000000
00000002 5e-005 1 -1.836970198721007e-016 0 1.836970198721007e-016 1 0 5e-005 17
 293 0 380 332 274 216 290 291 0 0 +14 294 127 296 1e-008 315 285 298 113 295 +0
 0 315 285 111 50 295 128 0 294 316 286 0 +-0.0008750000000000001 -0.00038999999
99999998 0.0007 0 0 1 1 -2.449293598294706e-016 0 81 1 296 129 6 294 0 0 317 287
 297 83 3 297 0.800000011920929 0.800000011920929 0.800000011920929 15 298 130 0
 199 294 0 17 299 0 298 305 199 300 304 302 0 310 +18 300 131 0 299 276 306 301
 ?105 29 301 132 0 300 307 277 -0.0006450000000000002 -0.0003399999999999999 0.0
007 16 302 133 0 ?299 291 308 303 0 0 105 30 303 134 0 302 309 292 0 +-0.0008750
000000000001 -0.0003399999999999998 0.0007 1 -2.449293598294706e-016 0 17 304 0
 358 242 359 189 299 302 0 0 -17 305 0 298 311 299 306 310 308 0 372 +18 306 135
 0 314 300 333 307 ?105 29 307 136 0 306 334 301 -0.000645 0.0003400000000000001
 0.0007 16 308 137 0 ?305 302 312 309 0 0 105 30 309 138 0 308 313 303 0 +-0.000
6450000000000002 -0.0003899999999999998 0.0007 2.449293598294706e-016 1 0 17 310
 0 367 362 372 300 305 308 0 359 -17 311 0 298 199 305 195 314 312 0 323 -16 312
 139 0 ?314 308 321 313 0 0 105 30 313 140 0 312 322 309 0 +-0.00087499999999999
99 0.0003400000000000002 0.0007 1 -2.449293598294706e-016 0 17 314 0 385 375 323
 306 311 312 0 305 +14 315 141 317 1e-008 324 294 319 113 316 +0 0 324 294 111 5
3 316 142 0 315 325 295 0 +-0.000825 0.0003400000000000002 0.0006500000000000001
 5e-005 -2.449293598294706e-016 -1 0 -1 2.449293598294706e-016 0 81 1 317 143 6
 315 0 0 326 296 318 83 3 318 0.800000011920929 0.800000011920929 0.800000011920
929 15 319 144 0 203 315 0 17 320 0 319 214 203 210 323 321 0 340 -16 321 145 0
 ?323 312 330 322 0 0 105 31 322 146 0 321 331 313 0 +-0.000825 0.00034000000000
00002 0.0006500000000000001 1 -2.449293598294706e-016 6.123233995737e-017 -6.123
233995737e-017 1.499759782661915e-032 1 5e-005 17 323 0 385 314 340 195 320 321
 0 0 +14 324 147 326 1e-008 345 315 328 113 325 +0 0 345 315 111 50 325 148 0 32
4 346 316 0 +-0.0008749999999999999 0.0003900000000000003 0 2.449293598294706e-0
16 1 0 0 0 1 81 1 326 149 6 324 0 0 347 317 327 83 3 327 0.800000011920929 0.800
000011920929 0.800000011920929 15 328 150 0 329 324 0 17 329 0 328 220 341 216 3
32 330 0 293 -16 330 151 0 ?332 321 338 331 0 0 105 30 331 152 0 330 339 322 0 +
-0.0008749999999999999 0.0003900000000000002 5e-005 1 -2.449293598294706e-016 0
 17 332 0 380 371 293 333 329 330 0 341 +18 333 153 0 332 306 336 334 ?105 29 33
4 154 0 333 337 307 -0.000645 0.0003900000000000001 5e-005 17 335 0 328 341 220
 336 340 338 0 344 +18 336 155 0 335 333 0 337 ?105 29 337 156 0 336 0 334 -0.00
0645 0.0003900000000000001 0.00065 16 338 157 0 ?335 330 342 339 0 0 105 30 339
 158 0 338 343 331 0 +-0.0008749999999999999 0.0003900000000000002 0.00065 1 -2.
449293598294706e-016 0 17 340 0 385 323 375 210 335 338 0 0 -17 341 0 328 329 33
5 333 344 342 0 368 -16 342 159 0 ?344 338 351 343 0 0 105 30 343 160 0 342 352
 339 0 +-0.000645 0.0003900000000000001 0 0 0 1 17 344 0 367 372 368 336 341 342
 0 375 +14 345 161 347 1e-008 354 324 349 113 346 +0 0 354 324 111 51 346 162 0
 345 355 325 0 +-0.0008750000000000001 -0.0003399999999999998 5e-005 1 -2.449293
598294706e-016 0 5e-005 -2.449293598294706e-016 -1 0 81 1 347 163 6 345 0 0 356
 326 348 83 3 348 0.800000011920929 0.800000011920929 0.800000011920929 15 349 1
64 0 233 345 0 17 350 0 349 263 284 254 353 351 0 0 -16 351 165 0 ?353 342 360 3
52 0 0 105 31 352 166 0 351 361 343 0 +-0.0006450000000000002 -0.000339999999999
9999 5e-005 1 -2.449293598294706e-016 0 -2.449293598294706e-016 -1 0 5e-005 17 3
53 0 367 280 253 276 350 351 0 0 +14 354 167 356 1e-008 363 345 358 113 355 +0 0
 363 345 111 51 355 168 0 354 364 346 0 +-0.0008750000000000001 -0.0003399999999
999998 0.0006500000000000001 1 -2.449293598294706e-016 0 5e-005 -2.4492935982947
06e-016 -1 0 81 1 356 169 6 354 0 0 365 347 357 83 3 357 0.800000011920929 0.800
000011920929 0.800000011920929 15 358 170 0 259 354 0 17 359 0 358 304 259 300 3
62 360 0 0 -16 360 171 0 ?362 351 369 361 0 0 105 31 361 172 0 360 370 352 0 +-0
.0006450000000000002 -0.0003399999999999999 0.0006500000000000001 1 -2.449293598
294706e-016 0 -2.449293598294706e-016 -1 0 5e-005 17 362 0 367 253 310 249 359 3
60 0 0 +14 363 173 365 1e-008 376 354 367 113 364 +0 0 376 354 111 50 364 174 0
 363 377 355 0 +-0.0006450000000000002 -0.0003899999999999998 0 1 -2.44929359829
4706e-016 0 0 0 1 81 1 365 175 6 363 0 0 378 356 366 83 3 366 0.800000011920929
 0.800000011920929 0.800000011920929 15 367 176 0 253 363 0 17 368 0 367 344 280
 333 371 369 0 0 +16 369 177 0 ?368 360 373 370 0 0 105 31 370 178 0 369 374 361
 0 +-0.000645 0.0003400000000000001 5e-005 1 -2.449293598294706e-016 0 2.4492935
98294706e-016 1 0 5e-005 17 371 0 380 274 332 270 368 369 0 0 -17 372 0 367 310
 344 306 375 373 0 0 +16 373 179 0 ?372 369 0 374 0 0 105 31 374 180 0 373 0 370
 0 +-0.000645 0.0003400000000000001 0.0006500000000000001 1 -2.449293598294706e-
016 0 2.449293598294706e-016 1 0 5e-005 17 375 0 385 340 314 336 372 373 0 0 -14
 376 181 378 1e-008 381 363 380 113 377 +0 0 381 363 111 51 377 182 0 376 382 36
4 0 +-0.0008749999999999999 0.0003400000000000002 5e-005 1 -2.449293598294706e-0
16 0 5e-005 2.449293598294706e-016 1 0 81 1 378 183 6 376 0 0 383 365 379 83 3 3
79 0.800000011920929 0.800000011920929 0.800000011920929 15 380 184 0 332 376 0
 14 381 185 383 1e-008 0 376 385 113 382 +0 0 0 376 111 51 382 186 0 381 0 377 0
 +-0.0008749999999999999 0.0003400000000000002 0.0006500000000000001 1 -2.449293
598294706e-016 0 5e-005 2.449293598294706e-016 1 0 81 1 383 187 6 381 0 0 0 378
 384 83 3 384 0.800000011920929 0.800000011920929 0.800000011920929 15 385 188 0
 340 381 0 12 386 188 0 387 0 0 0 0 1000 1e-008 0 0 0 1 0 1 1 394 396 402 400 39
1 401 399 70 387 0 386 0 0 4 1 20 0 388 388 1 T74 20 388 1 0 389 0 0 0 0 0 0 0 0
 0 0 0 0 0 0 0 0 0 0 0 81 1 389 7 6 395 0 0 424 0 390 83 3 390 0.800000011920929
 0.800000011920929 0.800000011920929 19 391 1 0 386 393 0 392 V13 392 2 0 386 0
 0 0 0 391 395 19 393 3 0 386 0 391 394 S13 394 4 0 386 0 395 0 0 393 0 14 395 5
 389 1e-008 422 0 397 394 396 -0 0 422 0 392 50 396 6 0 395 423 0 0 +-0.00087500
00000000001 -0.0003899999999999998 0 2.449293598294706e-016 1 0 0 0 1 15 397 8 0
 398 395 0 17 398 0 397 406 418 399 403 401 0 448 +18 399 9 0 411 0 404 400 ?386
 29 400 10 0 399 405 0 0.0008249999999999999 -0.0003900000000000002 0.00065 16 4
01 11 0 ?398 0 409 402 0 0 386 30 402 12 0 401 410 0 0 +0.0008249999999999999 -0
.0003900000000000002 0 0 0 1 17 403 0 447 454 448 404 398 401 0 439 -18 404 13 0
 418 399 407 405 ?386 29 405 14 0 404 408 400 0.0008249999999999999 -0.000390000
0000000002 5e-005 17 406 0 397 412 398 407 411 409 0 481 -18 407 15 0 417 404 41
3 408 ?386 29 408 16 0 407 414 405 0.000645 -0.0003900000000000002 0.00065 16 40
9 17 0 ?411 401 415 410 0 0 386 30 410 18 0 409 416 402 0 +-0.000875000000000000
1 -0.0003899999999999998 0.00065 1 -2.449293598294706e-016 0 17 411 0 468 469 48
1 399 406 409 0 398 +17 412 0 397 418 406 413 417 415 0 432 -18 413 19 0 421 407
 428 414 ?386 29 414 20 0 413 429 408 0.000645 -0.0003900000000000002 5e-005 16
 415 21 0 ?417 409 419 416 0 0 386 30 416 22 0 415 420 410 0 +0.000645 -0.000390
0000000000002 0 0 0 1 17 417 0 489 484 432 407 412 415 0 406 +17 418 0 397 398 4
12 404 421 419 0 403 +16 419 23 0 ?418 415 430 420 0 0 386 30 420 24 0 419 431 4
16 0 +-0.0008750000000000001 -0.0003899999999999998 5e-005 1 -2.449293598294706e
-016 0 17 421 0 426 427 439 413 418 419 0 412 -14 422 25 424 1e-008 443 395 426
 394 423 +0 0 443 395 392 51 423 26 0 422 444 396 0 +-0.0008750000000000001 -0.0
003399999999999998 5e-005 1 -2.449293598294706e-016 0 5e-005 -2.449293598294706e
-016 -1 0 81 1 424 27 6 422 0 0 445 389 425 83 3 425 0.800000011920929 0.8000000
11920929 0.800000011920929 15 426 28 0 427 422 0 17 427 0 426 433 421 428 432 43
0 0 438 +18 428 29 0 427 413 434 429 ?386 29 429 30 0 428 435 414 0.000645 -0.00
03400000000000002 -3.469446951954e-021 16 430 31 0 ?427 419 436 431 0 0 386 31 4
31 32 0 430 437 420 0 +0.000645 -0.0003400000000000002 5e-005 1 -2.4492935982947
06e-016 0 -2.449293598294706e-016 -1 0 5e-005 17 432 0 489 417 514 413 427 430 0
 0 -17 433 0 426 439 427 434 438 436 0 442 +18 434 33 0 538 428 452 435 ?386 29
 435 34 0 434 453 429 0.0008249999999999999 -0.0003400000000000002 0 16 436 35 0
 ?433 430 440 437 0 0 386 30 437 36 0 436 441 431 0 +-0.0008750000000000001 -0.0
003399999999999998 -6.938893903907e-021 1 -2.449293598294706e-016 0 17 438 0 531
 517 538 428 433 436 0 514 -17 439 0 426 421 433 404 442 440 0 459 +16 440 37 0
 ?439 436 449 441 0 0 386 31 441 38 0 440 450 437 0 +0.0008249999999999999 -0.00
03400000000000002 5e-005 -1 1.836970198721007e-016 0 -1.836970198721007e-016 -1
 0 5e-005 17 442 0 522 523 459 434 439 440 0 526 -14 443 39 445 1e-008 464 422 4
47 394 444 +0 0 464 422 392 51 444 40 0 443 465 423 0 +0.0008249999999999999 -0.
0003400000000000002 0 0 0 1 5e-005 1 -2.449293598294706e-016 0 81 1 445 41 6 443
 0 0 466 424 446 83 3 446 0.800000011920929 0.800000011920929 0.800000011920929
 15 447 42 0 448 443 0 17 448 0 447 403 460 399 451 449 0 474 +16 449 43 0 ?448
 440 457 450 0 0 386 31 450 44 0 449 458 441 0 +0.0008249999999999999 -0.0003400
000000000002 0.0006500000000000001 0 -0 -1 1 -2.449293598294706e-016 0 5e-005 17
 451 0 567 568 474 452 448 449 0 460 -18 452 45 0 559 434 455 453 ?386 29 453 46
 0 452 456 435 0.0008749999999999999 -0.0003400000000000002 0.00065 17 454 0 447
 460 403 455 459 457 0 463 -18 455 47 0 552 452 470 456 ?386 29 456 48 0 455 471
 453 0.0008749999999999999 -0.0003400000000000002 5e-005 16 457 49 0 ?459 449 46
1 458 0 0 386 31 458 50 0 457 462 450 0 +0.0008249999999999999 -0.00034000000000
00002 5e-005 0 -0 -1 1 -2.449293598294706e-016 0 5e-005 17 459 0 522 442 523 404
 454 457 0 0 +17 460 0 447 448 454 452 463 461 0 0 +16 461 51 0 ?460 457 472 462
 0 0 386 30 462 52 0 461 473 458 0 +0.0008749999999999999 -0.0003400000000000002
 0 0 0 1 17 463 0 546 547 559 455 460 461 0 523 -14 464 53 466 1e-008 485 443 46
8 394 465 +0 0 485 443 392 51 465 54 0 464 486 444 0 +-0.0008750000000000001 -0.
0003399999999999998 0.0006500000000000001 1 -2.449293598294706e-016 0 5e-005 -2.
449293598294706e-016 -1 0 81 1 466 55 6 464 0 0 487 445 467 83 3 467 0.800000011
920929 0.800000011920929 0.800000011920929 15 468 56 0 411 464 0 17 469 0 468 47
5 411 470 474 472 0 480 -18 470 57 0 568 455 476 471 ?386 29 471 58 0 470 477 45
6 0.0008249999999999999 -0.0003400000000000002 0.0007 16 472 59 0 ?474 461 478 4
73 0 0 386 31 473 60 0 472 479 462 0 +0.0008249999999999999 -0.00034000000000000
02 0.0006500000000000001 1 -1.836970198721007e-016 0 -1.836970198721007e-016 -1
 0 5e-005 17 474 0 567 451 568 399 469 472 0 0 +17 475 0 468 481 469 476 480 478
 0 484 -18 476 61 0 475 470 491 477 ?386 29 477 62 0 476 492 471 0.000645 -0.000
3400000000000002 0.0007 16 478 63 0 ?480 472 482 479 0 0 386 30 479 64 0 478 483
 473 0 +-0.0008750000000000001 -0.0003399999999999998 0.0007 1 -2.44929359829470
6e-016 0 17 480 0 576 577 495 470 475 478 0 0 +17 481 0 468 411 475 407 484 482
 0 0 +16 482 65 0 ?481 478 493 483 0 0 386 31 483 66 0 482 494 479 0 +0.000645 -
0.0003400000000000002 0.0006500000000000001 1 -2.449293598294706e-016 0 -2.44929
3598294706e-016 -1 0 5e-005 17 484 0 489 490 417 476 481 482 0 495 -14 485 67 48
7 1e-008 518 464 489 394 486 -0 0 518 464 392 50 486 68 0 485 519 465 0 +0.00064
5 -0.0003900000000000002 0 1 -2.449293598294706e-016 0 0 0 1 81 1 487 69 6 485 0
 0 520 466 488 83 3 488 0.800000011920929 0.800000011920929 0.800000011920929 15
 489 70 0 484 485 0 17 490 0 489 496 484 491 495 493 0 0 +18 491 71 0 583 476 49
7 492 ?386 29 492 72 0 491 498 477 0.0006450000000000002 0.0003399999999999999 0
.0007 16 493 73 0 ?490 482 499 494 0 0 386 30 494 74 0 493 500 483 0 +0.000645 -
0.0003900000000000002 0.0007 2.449293598294706e-016 1 0 17 495 0 576 480 583 476
 490 493 0 0 -17 496 0 489 502 490 497 501 499 0 607 -18 497 75 0 507 491 503 49
8 ?386 29 498 76 0 497 504 492 0.0006450000000000002 0.0003899999999999999 0.000
65 16 499 77 0 ?501 493 505 500 0 0 386 31 500 78 0 499 506 494 0 +0.00064500000
00000002 0.0003399999999999999 0.0006500000000000001 1 -2.449293598294706e-016 0
 2.449293598294706e-016 1 0 5e-005 17 501 0 606 586 607 491 496 499 0 490 +17 50
2 0 489 508 496 503 507 505 0 0 -18 503 79 0 597 497 509 504 ?386 29 504 80 0 50
3 510 498 0.0006450000000000002 0.0003899999999999999 5e-005 16 505 81 0 ?507 49
9 511 506 0 0 386 30 506 82 0 505 512 500 0 +0.0006450000000000002 0.00038999999
99999999 0 0 0 1 17 507 0 621 610 597 497 502 505 0 496 +17 508 0 489 514 502 50
9 513 511 0 0 -18 509 83 0 537 503 533 510 ?386 29 510 84 0 509 534 504 0.000645
0000000000002 0.0003399999999999999 -3.469446951954e-021 16 511 85 0 ?513 505 51
5 512 0 0 386 31 512 86 0 511 516 506 0 +0.0006450000000000002 0.000339999999999
9999 5e-005 1 -2.449293598294706e-016 0 2.449293598294706e-016 1 0 5e-005 17 513
 0 591 592 537 503 508 511 0 502 +17 514 0 489 432 508 428 517 515 0 0 -16 515 8
7 0 ?517 511 524 516 0 0 386 30 516 88 0 515 525 512 0 +0.000645 -0.000390000000
0000002 0 2.449293598294706e-016 1 0 17 517 0 531 532 438 509 514 515 0 508 +14
 518 89 520 1e-008 527 485 522 394 519 +0 0 527 485 392 53 519 90 0 518 528 486
 0 +0.0008249999999999999 -0.0003400000000000002 5e-005 5e-005 0 0 1 1 -2.449293
598294706e-016 0 81 1 520 91 6 518 0 0 529 487 521 83 3 521 0.800000011920929 0.
800000011920929 0.800000011920929 15 522 92 0 459 518 0 17 523 0 522 459 442 455
 526 524 0 0 +16 524 93 0 ?523 515 535 525 0 0 386 31 525 94 0 524 536 516 0 +0.
0008249999999999999 -0.0003400000000000002 5e-005 -2.449293598294706e-016 -1 0 1
 -2.449293598294706e-016 0 5e-005 17 526 0 630 541 552 434 523 524 0 0 -14 527 9
5 529 1e-008 542 518 531 394 528 -0 0 542 518 392 50 528 96 0 527 543 519 0 +-0.
0008750000000000001 -0.0003899999999999998 0 0 0 1 1 -2.449293598294706e-016 0 8
1 1 529 97 6 527 0 0 544 520 530 83 3 530 0.800000011920929 0.800000011920929 0.
800000011920929 15 531 98 0 532 527 0 17 532 0 531 538 517 533 537 535 0 598 +18
 533 99 0 541 509 548 534 ?386 29 534 100 0 533 549 510 0.0008250000000000001 0.
0003399999999999998 0 16 535 101 0 ?532 524 539 536 0 0 386 30 536 102 0 535 540
 525 0 +-0.0008749999999999999 0.0003400000000000002 -6.938893903907e-021 1 -2.4
49293598294706e-016 0 17 537 0 591 513 598 509 532 535 0 517 -17 538 0 531 438 5
32 434 541 539 0 433 -16 539 103 0 ?541 535 550 540 0 0 386 30 540 104 0 539 551
 536 0 +0.0008249999999999999 -0.0003900000000000002 -6.938893903907e-021 2.4492
93598294706e-016 1 0 17 541 0 630 631 526 533 538 539 0 532 +14 542 105 544 1e-0
08 563 527 546 394 543 +0 0 563 527 392 50 543 106 0 542 564 528 0 +0.0008749999
999999999 -0.0003900000000000003 0 1 -2.449293598294706e-016 0 0 0 1 81 1 544 10
7 6 542 0 0 565 529 545 83 3 545 0.800000011920929 0.800000011920929 0.800000011
920929 15 546 108 0 463 542 0 17 547 0 546 553 463 548 552 550 0 558 +18 548 109
 0 547 533 554 549 ?386 29 549 110 0 548 555 534 0.0008750000000000001 0.0003399
999999999998 5e-005 16 550 111 0 ?547 539 556 551 0 0 386 30 551 112 0 550 557 5
40 0 +0.0008749999999999999 -0.0003900000000000002 5e-005 2.449293598294706e-016
 1 0 17 552 0 630 526 631 455 547 550 0 454 -17 553 0 546 559 547 554 558 556 0
 562 +18 554 113 0 553 548 578 555 ?386 29 555 114 0 554 579 549 0.0008750000000
000001 0.0003399999999999998 0.00065 16 556 115 0 ?553 550 560 557 0 0 386 30 55
7 116 0 556 561 551 0 +0.0008750000000000001 0.0003399999999999998 0 0 0 1 17 55
8 0 648 649 653 548 553 556 0 652 -17 559 0 546 463 553 452 562 560 0 571 -16 56
0 117 0 ?562 556 569 561 0 0 386 30 561 118 0 560 570 557 0 +0.00087499999999999
99 -0.0003900000000000002 0.00065 2.449293598294706e-016 1 0 17 562 0 639 640 57
1 554 559 560 0 643 +14 563 119 565 1e-008 572 542 567 394 564 +0 0 572 542 392
 53 564 120 0 563 573 543 0 +0.0008249999999999999 -0.0003400000000000002 0.0006
500000000000001 5e-005 -0 0 -1 1 -2.449293598294706e-016 0 81 1 565 121 6 563 0
 0 574 544 566 83 3 566 0.800000011920929 0.800000011920929 0.800000011920929 15
 567 122 0 568 563 0 17 568 0 567 474 451 470 571 569 0 582 -16 569 123 0 ?571 5
60 580 570 0 0 386 31 570 124 0 569 581 561 0 +0.0008249999999999999 -0.00034000
00000000002 0.0006500000000000001 2.449293598294706e-016 1 0 1 -2.44929359829470
6e-016 0 5e-005 17 571 0 639 562 582 452 568 569 0 451 +14 572 125 574 1e-008 58
7 563 576 394 573 +0 0 587 563 392 50 573 126 0 572 588 564 0 +-0.00087500000000
00001 -0.0003899999999999998 0.0007 0 0 1 1 -2.449293598294706e-016 0 81 1 574 1
27 6 572 0 0 589 565 575 83 3 575 0.800000011920929 0.800000011920929 0.80000001
1920929 15 576 128 0 495 572 0 17 577 0 576 583 480 578 582 580 0 586 +18 578 12
9 0 577 554 593 579 ?386 29 579 130 0 578 594 555 0.0008250000000000001 0.000339
9999999999998 0.0007 16 580 131 0 ?577 569 584 581 0 0 386 30 581 132 0 580 585
 570 0 +0.0008249999999999999 -0.0003900000000000002 0.0007 2.449293598294706e-0
16 1 0 17 582 0 639 571 640 470 577 580 0 469 -17 583 0 576 495 577 491 586 584
 0 501 -16 584 133 0 ?586 580 595 585 0 0 386 30 585 134 0 584 596 581 0 +-0.000
8749999999999999 0.0003400000000000002 0.0007 1 -2.449293598294706e-016 0 17 586
 0 606 613 501 578 583 584 0 640 +14 587 135 589 1e-008 602 572 591 394 588 +0 0
 602 572 392 51 588 136 0 587 603 573 0 +-0.0008749999999999999 0.00034000000000
00002 5e-005 1 -2.449293598294706e-016 0 5e-005 2.449293598294706e-016 1 0 81 1
 589 137 6 587 0 0 604 574 590 83 3 590 0.800000011920929 0.800000011920929 0.80
0000011920929 15 591 138 0 592 587 0 17 592 0 591 598 513 593 597 595 0 601 +18
 593 139 0 592 578 611 594 ?386 29 594 140 0 593 612 579 0.0008250000000000001 0
.0003899999999999998 5e-005 16 595 141 0 ?592 584 599 596 0 0 386 30 596 142 0 5
95 600 585 0 +-0.0008749999999999999 0.0003900000000000002 5e-005 1 -2.449293598
294706e-016 0 17 597 0 621 507 622 503 592 595 0 513 -17 598 0 591 537 592 533 6
01 599 0 634 -16 599 143 0 ?601 595 608 600 0 0 386 31 600 144 0 599 609 596 0 +
0.0008250000000000001 0.0003399999999999998 5e-005 1 -3.061616997868406e-016 0 3
.061616997868406e-016 1 0 5e-005 17 601 0 661 652 634 593 598 599 0 649 +14 602
 145 604 1e-008 617 587 606 394 603 +0 0 617 587 392 51 603 146 0 602 618 588 0
 +-0.0008749999999999999 0.0003400000000000002 0.0006500000000000001 1 -2.449293
598294706e-016 0 5e-005 2.449293598294706e-016 1 0 81 1 604 147 6 602 0 0 619 58
9 605 83 3 605 0.800000011920929 0.800000011920929 0.800000011920929 15 606 148
 0 607 602 0 17 607 0 606 501 613 497 610 608 0 0 -16 608 149 0 ?610 599 614 609
 0 0 386 30 609 150 0 608 615 600 0 +-0.0008749999999999999 0.000390000000000000
2 0.00065 1 -2.449293598294706e-016 0 17 610 0 621 622 507 611 607 608 0 613 +18
 611 151 0 610 593 0 612 ?386 29 612 152 0 611 0 594 0.0008250000000000001 0.000
3899999999999998 0.00065 17 613 0 606 607 586 611 616 614 0 656 -16 614 153 0 ?6
16 608 623 615 0 0 386 31 615 154 0 614 624 609 0 +0.0008250000000000001 0.00033
99999999999998 0.0006500000000000001 1 -2.449293598294706e-016 -6.123233995737e-
017 6.123233995737e-017 -1.499759782661915e-032 1 5e-005 17 616 0 666 643 656 57
8 613 614 0 0 +14 617 155 619 1e-008 626 602 621 394 618 +0 0 626 602 392 50 618
 156 0 617 627 603 0 +-0.0008749999999999999 0.0003900000000000003 0 2.449293598
294706e-016 1 0 0 0 1 81 1 619 157 6 617 0 0 628 604 620 83 3 620 0.800000011920
929 0.800000011920929 0.800000011920929 15 621 158 0 597 617 0 17 622 0 621 597
 610 593 625 623 0 0 -16 623 159 0 ?625 614 632 624 0 0 386 30 624 160 0 623 633
 615 0 +0.0008250000000000001 0.0003899999999999998 0 0 0 1 17 625 0 648 653 649
 611 622 623 0 0 +14 626 161 628 1e-008 635 617 630 394 627 +0 0 635 617 392 51
 627 162 0 626 636 618 0 +0.0008249999999999999 -0.0003900000000000003 5e-005 2.
449293598294706e-016 1 0 5e-005 1 -2.449293598294706e-016 0 81 1 628 163 6 626 0
 0 637 619 629 83 3 629 0.800000011920929 0.800000011920929 0.800000011920929 15
 630 164 0 526 626 0 17 631 0 630 552 541 548 634 632 0 0 +16 632 165 0 ?631 623
 641 633 0 0 386 31 633 166 0 632 642 624 0 +0.0008250000000000001 0.00033999999
99999998 5e-005 -2.449293598294706e-016 -1 0 1 -2.449293598294706e-016 0 5e-005
 17 634 0 661 601 652 533 631 632 0 0 -14 635 167 637 1e-008 644 626 639 394 636
 +0 0 644 626 392 51 636 168 0 635 645 627 0 +0.0008249999999999999 -0.000390000
0000000003 0.0006500000000000001 2.449293598294706e-016 1 0 5e-005 1 -2.44929359
8294706e-016 0 81 1 637 169 6 635 0 0 646 628 638 83 3 638 0.800000011920929 0.8
00000011920929 0.800000011920929 15 639 170 0 562 635 0 17 640 0 639 582 562 578
 643 641 0 616 +16 641 171 0 ?640 632 650 642 0 0 386 31 642 172 0 641 651 633 0
 +0.0008250000000000001 0.0003399999999999998 0.0006500000000000001 -2.449293598
294706e-016 -1 0 1 -2.449293598294706e-016 0 5e-005 17 643 0 666 656 616 554 640
 641 0 653 -14 644 173 646 1e-008 657 635 648 394 645 +0 0 657 635 392 51 645 17
4 0 644 658 636 0 +0.0008250000000000001 0.0003399999999999998 0 0 0 1 5e-005 1
 -2.449293598294706e-016 0 81 1 646 175 6 644 0 0 659 637 647 83 3 647 0.8000000
11920929 0.800000011920929 0.800000011920929 15 648 176 0 558 644 0 17 649 0 648
 625 558 593 652 650 0 622 +16 650 177 0 ?649 641 654 651 0 0 386 31 651 178 0 6
50 655 642 0 +0.0008250000000000001 0.0003399999999999998 5e-005 -0 0 1 1 -2.449
293598294706e-016 0 5e-005 17 652 0 661 634 601 548 649 650 0 631 -17 653 0 648
 558 625 554 656 654 0 0 +16 654 179 0 ?653 650 0 655 0 0 386 31 655 180 0 654 0
 651 0 +0.0008250000000000001 0.0003399999999999998 0.0006500000000000001 0 -0 -
1 1 -2.449293598294706e-016 0 5e-005 17 656 0 666 616 643 611 653 654 0 625 -14
 657 181 659 1e-008 662 644 661 394 658 +0 0 662 644 392 53 658 182 0 657 663 64
5 0 +0.0008250000000000001 0.0003399999999999998 5e-005 5e-005 0 0 1 1 -2.449293
598294706e-016 0 81 1 659 183 6 657 0 0 664 646 660 83 3 660 0.800000011920929 0
.800000011920929 0.800000011920929 15 661 184 0 634 657 0 14 662 185 664 1e-008
 0 657 666 394 663 +0 0 0 657 392 53 663 186 0 662 0 658 0 +0.000825000000000000
1 0.0003399999999999998 0.0006500000000000001 5e-005 -2.449293598294706e-016 -1
 0 1 -2.449293598294706e-016 0 81 1 664 187 6 662 0 0 0 659 665 83 3 665 0.80000
0011920929 0.800000011920929 0.800000011920929 15 666 188 0 656 662 0 12 667 124
 0 668 0 0 0 0 1000 1e-008 0 0 0 1 0 1 1 675 677 683 681 672 682 680 70 668 0 66
7 0 0 4 1 20 0 669 669 1 T74 20 669 1 0 670 0 0 0 0 0 0 0 0 0 0 0 0 0 0 0 0 0 0
 0 81 1 670 7 6 676 0 0 705 0 671 83 3 671 0.1607843190431595 0.1607843190431595
 0.1607843190431595 19 672 1 0 667 674 0 673 V13 673 2 0 667 0 0 0 0 672 676 19
 674 3 0 667 0 672 675 S13 675 4 0 667 0 676 0 0 674 0 14 676 5 670 1e-008 703 0
 678 675 677 -0 0 703 0 673 50 677 6 0 676 704 0 0 +-0.0008750000000000001 -0.00
03899999999999998 0 2.449293598294706e-016 1 0 0 0 1 15 678 8 0 679 676 0 17 679
 0 678 687 699 680 684 682 0 759 +18 680 9 0 692 0 685 681 ?667 29 681 10 0 680
 686 0 0.000645 -0.0003900000000000002 0.00065 16 682 11 0 ?679 0 690 683 0 0 66
7 30 683 12 0 682 691 0 0 +0.000645 -0.0003900000000000002 0 0 0 1 17 684 0 728
 723 759 685 679 682 0 720 -18 685 13 0 699 680 688 686 ?667 29 686 14 0 685 689
 681 0.000645 -0.0003900000000000002 5e-005 17 687 0 678 693 679 688 692 690 0 7
74 -18 688 15 0 698 685 694 689 ?667 29 689 16 0 688 695 686 -0.0006450000000000
002 -0.0003899999999999998 0.00065 16 690 17 0 ?692 682 696 691 0 0 667 30 691 1
8 0 690 697 683 0 +-0.0008750000000000001 -0.0003899999999999998 0.00065 1 -2.44
9293598294706e-016 0 17 692 0 767 762 774 680 687 690 0 679 +17 693 0 678 699 68
7 694 698 696 0 713 -18 694 19 0 702 688 709 695 ?667 29 695 20 0 694 710 689 -0
.0006450000000000002 -0.0003899999999999998 5e-005 16 696 21 0 ?698 690 700 697
 0 0 667 30 697 22 0 696 701 691 0 +-0.0006450000000000002 -0.000389999999999999
8 0 0 0 1 17 698 0 782 777 713 688 693 696 0 687 +17 699 0 678 679 693 685 702 7
00 0 684 +16 700 23 0 ?699 696 711 701 0 0 667 30 701 24 0 700 712 697 0 +-0.000
8750000000000001 -0.0003899999999999998 5e-005 1 -2.449293598294706e-016 0 17 70
2 0 707 708 720 694 699 700 0 693 -14 703 25 705 1e-008 724 676 707 675 704 +0 0
 724 676 673 51 704 26 0 703 725 677 0 +-0.0008750000000000001 -0.00033999999999
99998 5e-005 1 -2.449293598294706e-016 0 5e-005 -2.449293598294706e-016 -1 0 81
 1 705 27 6 703 0 0 726 670 706 83 3 706 0.1607843190431595 0.1607843190431595 0
.1607843190431595 15 707 28 0 702 703 0 17 708 0 707 714 702 709 713 711 0 719 +
18 709 29 0 708 694 715 710 ?667 29 710 30 0 709 716 695 -0.0006450000000000002
 -0.0003399999999999999 -3.469446951954e-021 16 711 31 0 ?708 700 717 712 0 0 66
7 31 712 32 0 711 718 701 0 +-0.0006450000000000002 -0.0003399999999999999 5e-00
5 1 -2.449293598294706e-016 0 -2.449293598294706e-016 -1 0 5e-005 17 713 0 782 6
98 807 694 708 711 0 0 -17 714 0 707 720 708 715 719 717 0 723 +18 715 33 0 714
 709 730 716 ?667 29 716 34 0 715 731 710 0.000645 -0.0003400000000000002 -3.469
446951954e-021 16 717 35 0 ?714 711 721 718 0 0 667 30 718 36 0 717 722 712 0 +-
0.0008750000000000001 -0.0003399999999999998 -6.938893903907e-021 1 -2.449293598
294706e-016 0 17 719 0 815 810 734 709 714 717 0 807 -17 720 0 707 702 714 685 7
23 721 0 0 -16 721 37 0 ?723 717 732 722 0 0 667 31 722 38 0 721 733 718 0 +0.00
0645 -0.0003400000000000002 5e-005 1 -2.449293598294706e-016 0 -2.44929359829470
6e-016 -1 0 5e-005 17 723 0 728 729 684 715 720 721 0 734 +14 724 39 726 1e-008
 763 703 728 675 725 +0 0 763 703 673 50 725 40 0 724 764 704 0 +0.000645 -0.000
3900000000000002 0 1 -2.449293598294706e-016 0 0 0 1 81 1 726 41 6 724 0 0 765 7
05 727 83 3 727 0.1607843190431595 0.1607843190431595 0.1607843190431595 15 728
 42 0 684 724 0 17 729 0 728 735 723 730 734 732 0 740 +18 730 43 0 729 715 736
 731 ?667 29 731 44 0 730 737 716 0.0006450000000000002 0.0003399999999999999 -3
.469446951954e-021 16 732 45 0 ?729 721 738 733 0 0 667 30 733 46 0 732 739 722
 0 +0.000645 -0.0003900000000000002 0 2.449293598294706e-016 1 0 17 734 0 815 71
9 816 715 729 732 0 0 -17 735 0 728 741 729 736 740 738 0 746 +18 736 47 0 735 7
30 742 737 ?667 29 737 48 0 736 743 731 0.0006450000000000002 0.0003899999999999
999 5e-005 16 738 49 0 ?735 732 744 739 0 0 667 31 739 50 0 738 745 733 0 +0.000
6450000000000002 0.0003399999999999999 5e-005 1 -2.449293598294706e-016 0 2.4492
93598294706e-016 1 0 5e-005 17 740 0 851 819 846 730 735 738 0 816 -17 741 0 728
 747 735 742 746 744 0 752 +18 742 51 0 741 736 748 743 ?667 29 743 52 0 742 749
 737 0.0006450000000000002 0.0003899999999999999 0.00065 16 744 53 0 ?741 738 75
0 745 0 0 667 30 745 54 0 744 751 739 0 +0.0006450000000000002 0.000389999999999
9999 0 0 0 1 17 746 0 842 843 837 736 741 744 0 846 -17 747 0 728 753 741 748 75
2 750 0 758 +18 748 55 0 747 742 754 749 ?667 29 749 56 0 748 755 743 0.00064500
00000000002 0.0003399999999999999 0.0007 16 750 57 0 ?747 744 756 751 0 0 667 31
 751 58 0 750 757 745 0 +0.0006450000000000002 0.0003399999999999999 0.000650000
0000000001 1 -2.449293598294706e-016 0 2.449293598294706e-016 1 0 5e-005 17 752
 0 833 834 828 742 747 750 0 837 -17 753 0 728 759 747 754 758 756 0 762 -18 754
 59 0 753 748 769 755 ?667 29 755 60 0 754 770 749 0.000645 -0.00034000000000000
02 0.0007 16 756 61 0 ?758 750 760 757 0 0 667 30 757 62 0 756 761 751 0 +0.0006
45 -0.0003900000000000002 0.0007 2.449293598294706e-016 1 0 17 758 0 824 825 773
 748 753 756 0 828 +17 759 0 728 684 753 680 762 760 0 0 +16 760 63 0 ?759 756 7
71 761 0 0 667 31 761 64 0 760 772 757 0 +0.000645 -0.0003400000000000002 0.0006
500000000000001 1 -2.449293598294706e-016 0 -2.449293598294706e-016 -1 0 5e-005
 17 762 0 767 768 692 754 759 760 0 773 -14 763 65 765 1e-008 778 724 767 675 76
4 +0 0 778 724 673 51 764 66 0 763 779 725 0 +-0.0008750000000000001 -0.00033999
99999999998 0.0006500000000000001 1 -2.449293598294706e-016 0 5e-005 -2.44929359
8294706e-016 -1 0 81 1 765 67 6 763 0 0 780 726 766 83 3 766 0.1607843190431595
 0.1607843190431595 0.1607843190431595 15 767 68 0 692 763 0 17 768 0 767 774 76
2 769 773 771 0 777 -18 769 69 0 768 754 784 770 ?667 29 770 70 0 769 785 755 -0
.0006450000000000002 -0.0003399999999999999 0.0007 16 771 71 0 ?773 760 775 772
 0 0 667 30 772 72 0 771 776 761 0 +-0.0008750000000000001 -0.000339999999999999
8 0.0007 1 -2.449293598294706e-016 0 17 773 0 824 758 788 754 768 771 0 0 +17 77
4 0 767 692 768 688 777 775 0 0 +16 775 73 0 ?774 771 786 776 0 0 667 31 776 74
 0 775 787 772 0 +-0.0006450000000000002 -0.0003399999999999999 0.00065000000000
00001 1 -2.449293598294706e-016 0 -2.449293598294706e-016 -1 0 5e-005 17 777 0 7
82 783 698 769 774 775 0 788 -14 778 75 780 1e-008 811 763 782 675 779 -0 0 811
 763 673 50 779 76 0 778 812 764 0 +-0.0006450000000000002 -0.000389999999999999
8 0 1 -2.449293598294706e-016 0 0 0 1 81 1 780 77 6 778 0 0 813 765 781 83 3 781
 0.1607843190431595 0.1607843190431595 0.1607843190431595 15 782 78 0 777 778 0
 17 783 0 782 789 777 784 788 786 0 825 +18 784 79 0 794 769 790 785 ?667 29 785
 80 0 784 791 770 -0.000645 0.0003400000000000001 0.0007 16 786 81 0 ?783 775 79
2 787 0 0 667 30 787 82 0 786 793 776 0 +-0.0006450000000000002 -0.0003899999999
999998 0.0007 2.449293598294706e-016 1 0 17 788 0 824 773 825 769 783 786 0 0 -1
7 789 0 782 795 783 790 794 792 0 834 -18 790 83 0 800 784 796 791 ?667 29 791 8
4 0 790 797 785 -0.000645 0.0003900000000000001 0.00065 16 792 85 0 ?794 786 798
 793 0 0 667 31 793 86 0 792 799 787 0 +-0.000645 0.0003400000000000001 0.000650
0000000000001 1 -2.449293598294706e-016 0 2.449293598294706e-016 1 0 5e-005 17 7
94 0 833 828 834 784 789 792 0 783 +17 795 0 782 801 789 796 800 798 0 843 -18 7
96 87 0 806 790 802 797 ?667 29 797 88 0 796 803 791 -0.000645 0.000390000000000
0001 5e-005 16 798 89 0 ?800 792 804 799 0 0 667 30 799 90 0 798 805 793 0 +-0.0
00645 0.0003900000000000001 0 0 0 1 17 800 0 842 837 843 790 795 798 0 789 +17 8
01 0 782 807 795 802 806 804 0 819 -18 802 91 0 810 796 0 803 ?667 29 803 92 0 8
02 0 797 -0.000645 0.0003400000000000001 -3.469446951954e-021 16 804 93 0 ?806 7
98 808 805 0 0 667 31 805 94 0 804 809 799 0 +-0.000645 0.0003400000000000001 5e
-005 1 -2.449293598294706e-016 0 2.449293598294706e-016 1 0 5e-005 17 806 0 851
 846 819 796 801 804 0 795 +17 807 0 782 713 801 709 810 808 0 0 -16 808 95 0 ?8
10 804 817 809 0 0 667 30 809 96 0 808 818 805 0 +-0.0006450000000000002 -0.0003
899999999999998 0 2.449293598294706e-016 1 0 17 810 0 815 816 719 802 807 808 0
 801 +14 811 97 813 1e-008 820 778 815 675 812 -0 0 820 778 673 50 812 98 0 811
 821 779 0 +-0.0008750000000000001 -0.0003899999999999998 0 0 0 1 1 -2.449293598
294706e-016 0 81 1 813 99 6 811 0 0 822 780 814 83 3 814 0.1607843190431595 0.16
07843190431595 0.1607843190431595 15 815 100 0 816 811 0 17 816 0 815 734 810 73
0 819 817 0 0 +16 817 101 0 ?816 808 826 818 0 0 667 30 818 102 0 817 827 809 0
 +-0.0008749999999999999 0.0003400000000000002 -6.938893903907e-021 1 -2.4492935
98294706e-016 0 17 819 0 851 806 740 802 816 817 0 0 -14 820 103 822 1e-008 829
 811 824 675 821 +0 0 829 811 673 50 821 104 0 820 830 812 0 +-0.000875000000000
0001 -0.0003899999999999998 0.0007 0 0 1 1 -2.449293598294706e-016 0 81 1 822 10
5 6 820 0 0 831 813 823 83 3 823 0.1607843190431595 0.1607843190431595 0.1607843
190431595 15 824 106 0 788 820 0 17 825 0 824 788 758 784 828 826 0 0 -16 826 10
7 0 ?828 817 835 827 0 0 667 30 827 108 0 826 836 818 0 +-0.0008749999999999999
 0.0003400000000000002 0.0007 1 -2.449293598294706e-016 0 17 828 0 833 752 794 7
48 825 826 0 0 +14 829 109 831 1e-008 838 820 833 675 830 +0 0 838 820 673 51 83
0 110 0 829 839 821 0 +-0.0008749999999999999 0.0003400000000000002 0.0006500000
000000001 1 -2.449293598294706e-016 0 5e-005 2.449293598294706e-016 1 0 81 1 831
 111 6 829 0 0 840 822 832 83 3 832 0.1607843190431595 0.1607843190431595 0.1607
843190431595 15 833 112 0 834 829 0 17 834 0 833 794 752 790 837 835 0 0 -16 835
 113 0 ?837 826 844 836 0 0 667 30 836 114 0 835 845 827 0 +-0.00087499999999999
99 0.0003900000000000002 0.00065 1 -2.449293598294706e-016 0 17 837 0 842 746 80
0 742 834 835 0 0 +14 838 115 840 1e-008 847 829 842 675 839 +0 0 847 829 673 50
 839 116 0 838 848 830 0 +-0.0008749999999999999 0.0003900000000000003 0 2.44929
3598294706e-016 1 0 0 0 1 81 1 840 117 6 838 0 0 849 831 841 83 3 841 0.16078431
90431595 0.1607843190431595 0.1607843190431595 15 842 118 0 843 838 0 17 843 0 8
42 800 746 796 846 844 0 0 -16 844 119 0 ?846 835 0 845 0 0 667 30 845 120 0 844
 0 836 0 +-0.0008749999999999999 0.0003900000000000002 5e-005 1 -2.4492935982947
06e-016 0 17 846 0 851 740 806 736 843 844 0 0 +14 847 121 849 1e-008 0 838 851
 675 848 +0 0 0 838 673 51 848 122 0 847 0 839 0 +-0.0008749999999999999 0.00034
00000000000002 5e-005 1 -2.449293598294706e-016 0 5e-005 2.449293598294706e-016
 1 0 81 1 849 123 6 847 0 0 0 840 850 83 3 850 0.1607843190431595 0.160784319043
1595 0.1607843190431595 15 851 124 0 846 847 0 1 0 
