**ABCDEFGHIJKLMNOPQRSTUVWXYZabcdefghijklmnopqrstuvwxyz**************************
**PARASOLID !"#$%&'()*+,-./:;<=>?@[\]^_`{|}~0123456789**************************
**PART1;
MC=AMD64;
MC_MODEL=AMD64 Family 23 Model 1 Stepping 2, AuthenticAMD;
MC_ID=unknown;
OS=Windows_NT;
OS_RELEASE=unknown;
FRU=CAD Exchanger 3.10.1 (cadexchanger.com);
APPL=unknown;
SITE=unknown;
USER=unknown;
FORMAT=text;
GUISE=transmit;
KEY=RH100-16.000-8-2020-TR_RH100-16.000-8-2020-TR;
FILE=RH100-16.000-8-2020-TR_RH100-16.000-8-2020-TR.x_t;
DATE=Wed Jul 13 20:17:11 2022;
**PART2;
SCH=SCH_1200000_12103;
USFLD_SIZE=0;
**PART3;
**END_OF_HEADER*****************************************************************
T51 : TRANSMIT FILE created by modeller version 120000017 SCH_1200000_121030 74
 5 1 5 0 2 105 206 307 408 12 2 68 0 3 0 0 0 0 1000 1e-008 0 0 0 1 0 1 1 12 14 2
0 18 9 19 17 70 3 0 2 0 0 4 1 20 0 4 4 1 T74 20 4 1 0 5 0 0 0 0 0 0 0 0 0 0 0 0
 0 0 0 0 0 0 0 81 1 5 7 6 13 0 0 42 0 8 80 1 6 0 7 8001 0 0 0 0 3 5 0 0 0 FFFFTF
TFFFFFFF2 79 15 7 SDL/TYSA_COLOUR83 3 8 0.2000000029802322 0.2000000029802322 0.
2000000029802322 19 9 1 0 2 11 0 10 V13 10 2 0 2 0 0 0 0 9 13 19 11 3 0 2 0 9 12
 S13 12 4 0 2 0 13 0 0 11 0 14 13 5 5 1e-008 40 0 15 12 14 -0 0 40 0 10 50 14 6
 0 13 41 0 0 +-0.0017 -0.00135 0 1 -2.449293598294706e-016 0 0 0 1 15 15 8 0 16
 13 0 17 16 0 15 24 36 17 21 19 0 94 +18 17 9 0 29 0 22 18 ?2 29 18 10 0 17 23 0
 -0.0017 0.001350000000000001 0.0008 16 19 11 0 ?16 0 27 20 0 0 2 30 20 12 0 19
 28 0 0 +-0.0017 -0.00135 0.0008 2.449293598294706e-016 1 0 17 21 0 104 77 94 22
 16 19 0 74 -18 22 13 0 36 17 25 23 ?2 29 23 14 0 22 26 18 -0.0017 -0.00135 0.00
08 17 24 0 15 30 16 25 29 27 0 87 -18 25 15 0 35 22 31 26 ?2 29 26 16 0 25 32 23
 -0.0017 0.001350000000000001 0 16 27 17 0 ?29 19 33 28 0 0 2 30 28 18 0 27 34 2
0 0 +-0.0017 0.001350000000000001 0 0 0 1 17 29 0 86 91 87 17 24 27 0 16 +17 30
 0 15 36 24 31 35 33 0 81 -18 31 19 0 39 25 46 32 ?2 29 32 20 0 31 47 26 -0.0017
 -0.00135 0 16 33 21 0 ?35 27 37 34 0 0 2 30 34 22 0 33 38 28 0 +-0.0017 -0.0013
5 0 2.449293598294706e-016 1 0 17 35 0 99 90 81 25 30 33 0 24 +17 36 0 15 16 30
 22 39 37 0 21 +16 37 23 0 ?36 33 48 38 0 0 2 30 38 24 0 37 49 34 0 +-0.0017 -0.
00135 0 0 0 1 17 39 0 73 78 74 31 36 37 0 30 -14 40 25 42 1e-008 69 13 44 12 41
 +0 0 69 13 10 50 41 26 0 40 70 14 0 +0.0017 -0.001350000000000001 0 1 -2.449293
598294706e-016 0 0 0 1 81 1 42 27 6 40 0 0 71 5 43 83 3 43 0.2000000029802322 0.
2000000029802322 0.2000000029802322 15 44 28 0 45 40 0 17 45 0 44 53 65 46 50 48
 0 58 -18 46 29 0 45 31 51 47 ?2 29 47 30 0 46 52 32 0.0017 -0.00135000000000000
1 0 16 48 31 0 ?50 37 56 49 0 0 2 30 49 32 0 48 57 38 0 +0.0017 -0.0013500000000
00001 0 0 0 1 17 50 0 73 74 78 51 45 48 0 65 +18 51 33 0 50 46 54 52 ?2 29 52 34
 0 51 55 47 0.0017 -0.001350000000000001 0.0008 17 53 0 44 59 45 54 58 56 0 64 +
18 54 35 0 53 51 60 55 ?2 29 55 36 0 54 61 52 0.0017 0.00135 0 16 56 37 0 ?53 48
 62 57 0 0 2 30 57 38 0 56 63 49 0 +0.0017 -0.001350000000000001 0 2.44929359829
4706e-016 1 0 17 58 0 99 81 90 46 53 56 0 78 -17 59 0 44 65 53 60 64 62 0 68 +18
 60 39 0 59 54 0 61 ?2 29 61 40 0 60 0 55 0.0017 0.00135 0.0008 16 62 41 0 ?59 5
6 66 63 0 0 2 30 63 42 0 62 67 57 0 +0.0017 0.00135 0 0 0 1 17 64 0 86 87 91 54
 59 62 0 90 -17 65 0 44 45 59 51 68 66 0 77 -16 66 43 0 ?68 62 75 67 0 0 2 30 67
 44 0 66 76 63 0 +0.0017 -0.001350000000000001 0.0008 2.449293598294706e-016 1 0
 17 68 0 104 94 77 60 65 66 0 91 +14 69 45 71 1e-008 82 40 73 12 70 -0 0 82 40 1
0 50 70 46 0 69 83 41 0 +-0.0017 -0.00135 0 2.449293598294706e-016 1 0 0 0 1 81
 1 71 47 6 69 0 0 84 42 72 83 3 72 0.2000000029802322 0.2000000029802322 0.20000
00029802322 15 73 48 0 50 69 0 17 74 0 73 39 50 22 77 75 0 0 -16 75 49 0 ?77 66
 79 76 0 0 2 30 76 50 0 75 80 67 0 +-0.0017 -0.00135 0.0008 1 -2.449293598294706
e-016 0 17 77 0 104 68 21 51 74 75 0 0 +17 78 0 73 50 39 46 81 79 0 0 +16 79 51
 0 ?78 75 88 80 0 0 2 30 80 52 0 79 89 76 0 +-0.0017 -0.00135 0 1 -2.44929359829
4706e-016 0 17 81 0 99 35 58 31 78 79 0 0 -14 82 53 84 1e-008 95 69 86 12 83 +0
 0 95 69 10 50 83 54 0 82 96 70 0 +-0.0017 0.001350000000000001 0 2.449293598294
706e-016 1 0 0 0 1 81 1 84 55 6 82 0 0 97 71 85 83 3 85 0.2000000029802322 0.200
0000029802322 0.2000000029802322 15 86 56 0 87 82 0 17 87 0 86 29 64 25 90 88 0
 0 -16 88 57 0 ?90 79 92 89 0 0 2 30 89 58 0 88 93 80 0 +-0.0017 0.0013500000000
00001 0 1 -2.449293598294706e-016 0 17 90 0 99 58 35 54 87 88 0 0 +17 91 0 86 64
 29 60 94 92 0 0 +16 92 59 0 ?91 88 0 93 0 0 2 30 93 60 0 92 0 89 0 +-0.0017 0.0
01350000000000001 0.0008 1 -2.449293598294706e-016 0 17 94 0 104 21 68 17 91 92
 0 0 -14 95 61 97 1e-008 100 82 99 12 96 -0 0 100 82 10 50 96 62 0 95 101 83 0 +
-0.0017 -0.00135 0 0 0 1 1 -2.449293598294706e-016 0 81 1 97 63 6 95 0 0 102 84
 98 83 3 98 0.2000000029802322 0.2000000029802322 0.2000000029802322 15 99 64 0
 90 95 0 14 100 65 102 1e-008 0 95 104 12 101 +0 0 0 95 10 50 101 66 0 100 0 96
 0 +-0.0017 -0.00135 0.0008 0 0 1 1 -2.449293598294706e-016 0 81 1 102 67 6 100
 0 0 0 97 103 83 3 103 0.2000000029802322 0.2000000029802322 0.2000000029802322
 15 104 68 0 21 100 0 12 105 68 0 106 0 0 0 0 1000 1e-008 0 0 0 1 0 1 1 113 115
 121 119 110 120 118 70 106 0 105 0 0 4 1 20 0 107 107 1 T74 20 107 1 0 108 0 0
 0 0 0 0 0 0 0 0 0 0 0 0 0 0 0 0 0 81 1 108 7 6 114 0 0 143 0 109 83 3 109 0.800
000011920929 0.800000011920929 0.800000011920929 19 110 1 0 105 112 0 111 V13 11
1 2 0 105 0 0 0 0 110 114 19 112 3 0 105 0 110 113 S13 113 4 0 105 0 114 0 0 112
 0 14 114 5 108 1e-008 141 0 116 113 115 -0 0 141 0 111 50 115 6 0 114 142 0 0 +
0.0005999999999999996 -0.00125 -3.333333333333e-006 1 -2.449293598294706e-016 0
 0 0 1 15 116 8 0 117 114 0 17 117 0 116 125 137 118 122 120 0 195 +18 118 9 0 1
30 0 123 119 ?105 29 119 10 0 118 124 0 0.0005999999999999998 -0.000350000000000
0002 6.666666666667e-006 16 120 11 0 ?117 0 128 121 0 0 105 30 121 12 0 120 129
 0 0 +0.0005999999999999996 -0.00125 6.666666666667e-006 2.449293598294706e-016
 1 0 17 122 0 205 178 195 123 117 120 0 0 -18 123 13 0 137 118 126 124 ?105 29 1
24 14 0 123 127 119 0.0005999999999999996 -0.00125 6.666666666667e-006 17 125 0
 116 131 117 126 130 128 0 188 -18 126 15 0 136 123 132 127 ?105 29 127 16 0 126
 133 124 0.0005999999999999998 -0.0003500000000000002 -3.333333333333e-006 16 12
8 17 0 ?130 120 134 129 0 0 105 30 129 18 0 128 135 121 0 +0.0005999999999999998
 -0.0003500000000000002 -3.333333333333e-006 0 0 1 17 130 0 187 192 188 118 125
 128 0 117 +17 131 0 116 137 125 132 136 134 0 182 -18 132 19 0 140 126 147 133
 ?105 29 133 20 0 132 148 127 0.0005999999999999996 -0.00125 -3.333333333333e-00
6 16 134 21 0 ?136 128 138 135 0 0 105 30 135 22 0 134 139 129 0 +0.000599999999
9999996 -0.00125 -3.333333333333e-006 2.449293598294706e-016 1 0 17 136 0 200 19
1 182 126 131 134 0 125 +17 137 0 116 117 131 123 140 138 0 175 +16 138 23 0 ?13
7 134 149 139 0 0 105 30 139 24 0 138 150 135 0 +0.0005999999999999996 -0.00125
 -3.333333333333e-006 0 0 1 17 140 0 174 179 175 132 137 138 0 131 -14 141 25 14
3 1e-008 170 114 145 113 142 +0 0 170 114 111 50 142 26 0 141 171 115 0 +0.0016
 -0.001250000000000001 -3.333333333333e-006 1 -2.449293598294706e-016 0 0 0 1 81
 1 143 27 6 141 0 0 172 108 144 83 3 144 0.800000011920929 0.800000011920929 0.8
00000011920929 15 145 28 0 146 141 0 17 146 0 145 154 166 147 151 149 0 159 -18
 147 29 0 179 132 152 148 ?105 29 148 30 0 147 153 133 0.0016 -0.001250000000000
001 -3.333333333333e-006 16 149 31 0 ?151 138 157 150 0 0 105 30 150 32 0 149 15
8 139 0 +0.0016 -0.001250000000000001 -3.333333333333e-006 0 0 1 17 151 0 174 17
5 179 152 146 149 0 0 +18 152 33 0 166 147 155 153 ?105 29 153 34 0 152 156 148
 0.0016 -0.001250000000000001 6.666666666667e-006 17 154 0 145 160 146 155 159 1
57 0 0 +18 155 35 0 165 152 161 156 ?105 29 156 36 0 155 162 153 0.0016 -0.00035
00000000000004 -3.333333333333e-006 16 157 37 0 ?154 149 163 158 0 0 105 30 158
 38 0 157 164 150 0 +0.0016 -0.001250000000000001 -3.333333333333e-006 2.4492935
98294706e-016 1 0 17 159 0 200 182 191 147 154 157 0 0 -17 160 0 145 166 154 161
 165 163 0 169 +18 161 39 0 160 155 0 162 ?105 29 162 40 0 161 0 156 0.0016 -0.0
003500000000000004 6.666666666667e-006 16 163 41 0 ?160 157 167 164 0 0 105 30 1
64 42 0 163 168 158 0 +0.0016 -0.0003500000000000004 -3.333333333333e-006 0 0 1
 17 165 0 187 188 192 155 160 163 0 191 -17 166 0 145 146 160 152 169 167 0 178
 -16 167 43 0 ?169 163 176 168 0 0 105 30 168 44 0 167 177 164 0 +0.0016 -0.0012
50000000000001 6.666666666667e-006 2.449293598294706e-016 1 0 17 169 0 205 195 1
78 161 166 167 0 192 +14 170 45 172 1e-008 183 141 174 113 171 -0 0 183 141 111
 50 171 46 0 170 184 142 0 +0.0005999999999999996 -0.00125 -3.333333333333e-006
 2.449293598294706e-016 1 0 0 0 1 81 1 172 47 6 170 0 0 185 143 173 83 3 173 0.8
00000011920929 0.800000011920929 0.800000011920929 15 174 48 0 151 170 0 17 175
 0 174 140 151 123 178 176 0 122 -16 176 49 0 ?178 167 180 177 0 0 105 30 177 50
 0 176 181 168 0 +0.0005999999999999996 -0.00125 6.666666666667e-006 1 -2.449293
598294706e-016 0 17 178 0 205 169 122 152 175 176 0 151 +17 179 0 174 151 140 14
7 182 180 0 146 +16 180 51 0 ?179 176 189 181 0 0 105 30 181 52 0 180 190 177 0
 +0.0005999999999999996 -0.00125 -3.333333333333e-006 1 -2.449293598294706e-016
 0 17 182 0 200 136 159 132 179 180 0 0 -14 183 53 185 1e-008 196 170 187 113 18
4 +0 0 196 170 111 50 184 54 0 183 197 171 0 +0.0005999999999999998 -0.000350000
0000000002 -3.333333333333e-006 2.449293598294706e-016 1 0 0 0 1 81 1 185 55 6 1
83 0 0 198 172 186 83 3 186 0.800000011920929 0.800000011920929 0.80000001192092
9 15 187 56 0 188 183 0 17 188 0 187 130 165 126 191 189 0 0 -16 189 57 0 ?191 1
80 193 190 0 0 105 30 190 58 0 189 194 181 0 +0.0005999999999999998 -0.000350000
0000000002 -3.333333333333e-006 1 -2.449293598294706e-016 0 17 191 0 200 159 136
 155 188 189 0 154 +17 192 0 187 165 130 161 195 193 0 0 +16 193 59 0 ?192 189 0
 194 0 0 105 30 194 60 0 193 0 190 0 +0.0005999999999999998 -0.00035000000000000
02 6.666666666667e-006 1 -2.449293598294706e-016 0 17 195 0 205 122 169 118 192
 193 0 0 -14 196 61 198 1e-008 201 183 200 113 197 -0 0 201 183 111 50 197 62 0
 196 202 184 0 +0.0005999999999999996 -0.00125 -3.333333333333e-006 0 0 1 1 -2.4
49293598294706e-016 0 81 1 198 63 6 196 0 0 203 185 199 83 3 199 0.8000000119209
29 0.800000011920929 0.800000011920929 15 200 64 0 191 196 0 14 201 65 203 1e-00
8 0 196 205 113 202 +0 0 0 196 111 50 202 66 0 201 0 197 0 +0.000599999999999999
6 -0.00125 6.666666666667e-006 0 0 1 1 -2.449293598294706e-016 0 81 1 203 67 6 2
01 0 0 0 198 204 83 3 204 0.800000011920929 0.800000011920929 0.800000011920929
 15 205 68 0 122 201 0 12 206 68 0 207 0 0 0 0 1000 1e-008 0 0 0 1 0 1 1 214 216
 222 220 211 221 219 70 207 0 206 0 0 4 1 20 0 208 208 1 T74 20 208 1 0 209 0 0
 0 0 0 0 0 0 0 0 0 0 0 0 0 0 0 0 0 81 1 209 7 6 215 0 0 244 0 210 83 3 210 0.800
000011920929 0.800000011920929 0.800000011920929 19 211 1 0 206 213 0 212 V13 21
2 2 0 206 0 0 0 0 211 215 19 213 3 0 206 0 211 214 S13 214 4 0 206 0 215 0 0 213
 0 14 215 5 209 1e-008 242 0 217 214 216 -0 0 242 0 212 50 216 6 0 215 243 0 0 +
0.0006000000000000001 0.0003499999999999998 -3.333333333333e-006 1 -2.4492935982
94706e-016 0 0 0 1 15 217 8 0 218 215 0 17 218 0 217 226 238 219 223 221 0 296 +
18 219 9 0 231 0 224 220 ?206 29 220 10 0 219 225 0 0.0006000000000000003 0.0012
5 6.666666666667e-006 16 221 11 0 ?218 0 229 222 0 0 206 30 222 12 0 221 230 0 0
 +0.0006000000000000001 0.0003499999999999998 6.666666666667e-006 2.449293598294
706e-016 1 0 17 223 0 306 279 296 224 218 221 0 276 -18 224 13 0 238 219 227 225
 ?206 29 225 14 0 224 228 220 0.0006000000000000001 0.0003499999999999998 6.6666
66666667e-006 17 226 0 217 232 218 227 231 229 0 289 -18 227 15 0 237 224 233 22
8 ?206 29 228 16 0 227 234 225 0.0006000000000000003 0.00125 -3.333333333333e-00
6 16 229 17 0 ?231 221 235 230 0 0 206 30 230 18 0 229 236 222 0 +0.000600000000
0000003 0.00125 -3.333333333333e-006 0 0 1 17 231 0 288 293 289 219 226 229 0 21
8 +17 232 0 217 238 226 233 237 235 0 283 -18 233 19 0 241 227 248 234 ?206 29 2
34 20 0 233 249 228 0.0006000000000000001 0.0003499999999999998 -3.333333333333e
-006 16 235 21 0 ?237 229 239 236 0 0 206 30 236 22 0 235 240 230 0 +0.000600000
0000000001 0.0003499999999999998 -3.333333333333e-006 2.449293598294706e-016 1 0
 17 237 0 301 292 283 227 232 235 0 226 +17 238 0 217 218 232 224 241 239 0 223
 +16 239 23 0 ?238 235 250 240 0 0 206 30 240 24 0 239 251 236 0 +0.000600000000
0000001 0.0003499999999999998 -3.333333333333e-006 0 0 1 17 241 0 275 280 276 23
3 238 239 0 232 -14 242 25 244 1e-008 271 215 246 214 243 +0 0 271 215 212 50 24
3 26 0 242 272 216 0 +0.0016 0.0003499999999999996 -3.333333333333e-006 1 -2.449
293598294706e-016 0 0 0 1 81 1 244 27 6 242 0 0 273 209 245 83 3 245 0.800000011
920929 0.800000011920929 0.800000011920929 15 246 28 0 247 242 0 17 247 0 246 25
5 267 248 252 250 0 260 -18 248 29 0 247 233 253 249 ?206 29 249 30 0 248 254 23
4 0.0016 0.0003499999999999996 -3.333333333333e-006 16 250 31 0 ?252 239 258 251
 0 0 206 30 251 32 0 250 259 240 0 +0.0016 0.0003499999999999996 -3.333333333333
e-006 0 0 1 17 252 0 275 276 280 253 247 250 0 267 +18 253 33 0 252 248 256 254
 ?206 29 254 34 0 253 257 249 0.0016 0.0003499999999999996 6.666666666667e-006 1
7 255 0 246 261 247 256 260 258 0 266 +18 256 35 0 255 253 262 257 ?206 29 257 3
6 0 256 263 254 0.0016 0.00125 -3.333333333333e-006 16 258 37 0 ?255 250 264 259
 0 0 206 30 259 38 0 258 265 251 0 +0.0016 0.0003499999999999996 -3.333333333333
e-006 2.449293598294706e-016 1 0 17 260 0 301 283 292 248 255 258 0 280 -17 261
 0 246 267 255 262 266 264 0 270 +18 262 39 0 261 256 0 263 ?206 29 263 40 0 262
 0 257 0.0016 0.00125 6.666666666667e-006 16 264 41 0 ?261 258 268 265 0 0 206 3
0 265 42 0 264 269 259 0 +0.0016 0.00125 -3.333333333333e-006 0 0 1 17 266 0 288
 289 293 256 261 264 0 292 -17 267 0 246 247 261 253 270 268 0 279 -16 268 43 0
 ?270 264 277 269 0 0 206 30 269 44 0 268 278 265 0 +0.0016 0.000349999999999999
6 6.666666666667e-006 2.449293598294706e-016 1 0 17 270 0 306 296 279 262 267 26
8 0 293 +14 271 45 273 1e-008 284 242 275 214 272 -0 0 284 242 212 50 272 46 0 2
71 285 243 0 +0.0006000000000000001 0.0003499999999999998 -3.333333333333e-006 2
.449293598294706e-016 1 0 0 0 1 81 1 273 47 6 271 0 0 286 244 274 83 3 274 0.800
000011920929 0.800000011920929 0.800000011920929 15 275 48 0 252 271 0 17 276 0
 275 241 252 224 279 277 0 0 -16 277 49 0 ?279 268 281 278 0 0 206 30 278 50 0 2
77 282 269 0 +0.0006000000000000001 0.0003499999999999998 6.666666666667e-006 1
 -2.449293598294706e-016 0 17 279 0 306 270 223 253 276 277 0 0 +17 280 0 275 25
2 241 248 283 281 0 0 +16 281 51 0 ?280 277 290 282 0 0 206 30 282 52 0 281 291
 278 0 +0.0006000000000000001 0.0003499999999999998 -3.333333333333e-006 1 -2.44
9293598294706e-016 0 17 283 0 301 237 260 233 280 281 0 0 -14 284 53 286 1e-008
 297 271 288 214 285 +0 0 297 271 212 50 285 54 0 284 298 272 0 +0.0006000000000
000003 0.00125 -3.333333333333e-006 2.449293598294706e-016 1 0 0 0 1 81 1 286 55
 6 284 0 0 299 273 287 83 3 287 0.800000011920929 0.800000011920929 0.8000000119
20929 15 288 56 0 289 284 0 17 289 0 288 231 266 227 292 290 0 0 -16 290 57 0 ?2
92 281 294 291 0 0 206 30 291 58 0 290 295 282 0 +0.0006000000000000003 0.00125
 -3.333333333333e-006 1 -2.449293598294706e-016 0 17 292 0 301 260 237 256 289 2
90 0 0 +17 293 0 288 266 231 262 296 294 0 0 +16 294 59 0 ?293 290 0 295 0 0 206
 30 295 60 0 294 0 291 0 +0.0006000000000000003 0.00125 6.666666666667e-006 1 -2
.449293598294706e-016 0 17 296 0 306 223 270 219 293 294 0 0 -14 297 61 299 1e-0
08 302 284 301 214 298 -0 0 302 284 212 50 298 62 0 297 303 285 0 +0.00060000000
00000001 0.0003499999999999998 -3.333333333333e-006 0 0 1 1 -2.449293598294706e-
016 0 81 1 299 63 6 297 0 0 304 286 300 83 3 300 0.800000011920929 0.80000001192
0929 0.800000011920929 15 301 64 0 292 297 0 14 302 65 304 1e-008 0 297 306 214
 303 +0 0 0 297 212 50 303 66 0 302 0 298 0 +0.0006000000000000001 0.00034999999
99999998 6.666666666667e-006 0 0 1 1 -2.449293598294706e-016 0 81 1 304 67 6 302
 0 0 0 299 305 83 3 305 0.800000011920929 0.800000011920929 0.800000011920929 15
 306 68 0 223 302 0 12 307 68 0 308 0 0 0 0 1000 1e-008 0 0 0 1 0 1 1 315 317 32
3 321 312 322 320 70 308 0 307 0 0 4 1 20 0 309 309 1 T74 20 309 1 0 310 0 0 0 0
 0 0 0 0 0 0 0 0 0 0 0 0 0 0 0 81 1 310 7 6 316 0 0 345 0 311 83 3 311 0.8000000
11920929 0.800000011920929 0.800000011920929 19 312 1 0 307 314 0 313 V13 313 2
 0 307 0 0 0 0 312 316 19 314 3 0 307 0 312 315 S13 315 4 0 307 0 316 0 0 314 0
 14 316 5 310 1e-008 343 0 318 315 317 -0 0 343 0 313 50 317 6 0 316 344 0 0 +-0
.0016 -0.00125 -3.333333333333e-006 1 -2.449293598294706e-016 0 0 0 1 15 318 8 0
 319 316 0 17 319 0 318 327 339 320 324 322 0 397 +18 320 9 0 332 0 325 321 ?307
 29 321 10 0 320 326 0 -0.0016 -0.0003499999999999995 6.666666666667e-006 16 322
 11 0 ?319 0 330 323 0 0 307 30 323 12 0 322 331 0 0 +-0.0016 -0.00125 6.6666666
66667e-006 2.449293598294706e-016 1 0 17 324 0 407 380 397 325 319 322 0 377 -18
 325 13 0 339 320 328 326 ?307 29 326 14 0 325 329 321 -0.0016 -0.00125 6.666666
666667e-006 17 327 0 318 333 319 328 332 330 0 390 -18 328 15 0 338 325 334 329
 ?307 29 329 16 0 328 335 326 -0.0016 -0.0003499999999999995 -3.333333333333e-00
6 16 330 17 0 ?332 322 336 331 0 0 307 30 331 18 0 330 337 323 0 +-0.0016 -0.000
3499999999999995 -3.333333333333e-006 0 0 1 17 332 0 389 394 390 320 327 330 0 3
19 +17 333 0 318 339 327 334 338 336 0 384 -18 334 19 0 342 328 349 335 ?307 29
 335 20 0 334 350 329 -0.0016 -0.00125 -3.333333333333e-006 16 336 21 0 ?338 330
 340 337 0 0 307 30 337 22 0 336 341 331 0 +-0.0016 -0.00125 -3.333333333333e-00
6 2.449293598294706e-016 1 0 17 338 0 402 393 384 328 333 336 0 327 +17 339 0 31
8 319 333 325 342 340 0 324 +16 340 23 0 ?339 336 351 341 0 0 307 30 341 24 0 34
0 352 337 0 +-0.0016 -0.00125 -3.333333333333e-006 0 0 1 17 342 0 376 381 377 33
4 339 340 0 333 -14 343 25 345 1e-008 372 316 347 315 344 +0 0 372 316 313 50 34
4 26 0 343 373 317 0 +-0.0006000000000000003 -0.00125 -3.333333333333e-006 1 -2.
449293598294706e-016 0 0 0 1 81 1 345 27 6 343 0 0 374 310 346 83 3 346 0.800000
011920929 0.800000011920929 0.800000011920929 15 347 28 0 348 343 0 17 348 0 347
 356 368 349 353 351 0 361 -18 349 29 0 348 334 354 350 ?307 29 350 30 0 349 355
 335 -0.0006000000000000003 -0.00125 -3.333333333333e-006 16 351 31 0 ?353 340 3
59 352 0 0 307 30 352 32 0 351 360 341 0 +-0.0006000000000000003 -0.00125 -3.333
333333333e-006 0 0 1 17 353 0 376 377 381 354 348 351 0 368 +18 354 33 0 353 349
 357 355 ?307 29 355 34 0 354 358 350 -0.0006000000000000003 -0.00125 6.66666666
6667e-006 17 356 0 347 362 348 357 361 359 0 367 +18 357 35 0 356 354 363 358 ?3
07 29 358 36 0 357 364 355 -0.0006000000000000001 -0.0003499999999999998 -3.3333
33333333e-006 16 359 37 0 ?356 351 365 360 0 0 307 30 360 38 0 359 366 352 0 +-0
.0006000000000000003 -0.00125 -3.333333333333e-006 2.449293598294706e-016 1 0 17
 361 0 402 384 393 349 356 359 0 381 -17 362 0 347 368 356 363 367 365 0 371 +18
 363 39 0 362 357 0 364 ?307 29 364 40 0 363 0 358 -0.0006000000000000001 -0.000
3499999999999998 6.666666666667e-006 16 365 41 0 ?362 359 369 366 0 0 307 30 366
 42 0 365 370 360 0 +-0.0006000000000000001 -0.0003499999999999998 -3.3333333333
33e-006 0 0 1 17 367 0 389 390 394 357 362 365 0 393 -17 368 0 347 348 362 354 3
71 369 0 380 -16 369 43 0 ?371 365 378 370 0 0 307 30 370 44 0 369 379 366 0 +-0
.0006000000000000003 -0.00125 6.666666666667e-006 2.449293598294706e-016 1 0 17
 371 0 407 397 380 363 368 369 0 394 +14 372 45 374 1e-008 385 343 376 315 373 -
0 0 385 343 313 50 373 46 0 372 386 344 0 +-0.0016 -0.00125 -3.333333333333e-006
 2.449293598294706e-016 1 0 0 0 1 81 1 374 47 6 372 0 0 387 345 375 83 3 375 0.8
00000011920929 0.800000011920929 0.800000011920929 15 376 48 0 353 372 0 17 377
 0 376 342 353 325 380 378 0 0 -16 378 49 0 ?380 369 382 379 0 0 307 30 379 50 0
 378 383 370 0 +-0.0016 -0.00125 6.666666666667e-006 1 -2.449293598294706e-016 0
 17 380 0 407 371 324 354 377 378 0 0 +17 381 0 376 353 342 349 384 382 0 0 +16
 382 51 0 ?381 378 391 383 0 0 307 30 383 52 0 382 392 379 0 +-0.0016 -0.00125 -
3.333333333333e-006 1 -2.449293598294706e-016 0 17 384 0 402 338 361 334 381 382
 0 0 -14 385 53 387 1e-008 398 372 389 315 386 +0 0 398 372 313 50 386 54 0 385
 399 373 0 +-0.0016 -0.0003499999999999996 -3.333333333333e-006 2.44929359829470
6e-016 1 0 0 0 1 81 1 387 55 6 385 0 0 400 374 388 83 3 388 0.800000011920929 0.
800000011920929 0.800000011920929 15 389 56 0 390 385 0 17 390 0 389 332 367 328
 393 391 0 0 -16 391 57 0 ?393 382 395 392 0 0 307 30 392 58 0 391 396 383 0 +-0
.0016 -0.0003499999999999995 -3.333333333333e-006 1 -2.449293598294706e-016 0 17
 393 0 402 361 338 357 390 391 0 0 +17 394 0 389 367 332 363 397 395 0 0 +16 395
 59 0 ?394 391 0 396 0 0 307 30 396 60 0 395 0 392 0 +-0.0016 -0.000349999999999
9995 6.666666666667e-006 1 -2.449293598294706e-016 0 17 397 0 407 324 371 320 39
4 395 0 0 -14 398 61 400 1e-008 403 385 402 315 399 -0 0 403 385 313 50 399 62 0
 398 404 386 0 +-0.0016 -0.00125 -3.333333333333e-006 0 0 1 1 -2.449293598294706
e-016 0 81 1 400 63 6 398 0 0 405 387 401 83 3 401 0.800000011920929 0.800000011
920929 0.800000011920929 15 402 64 0 393 398 0 14 403 65 405 1e-008 0 398 407 31
5 404 +0 0 0 398 313 50 404 66 0 403 0 399 0 +-0.0016 -0.00125 6.666666666667e-0
06 0 0 1 1 -2.449293598294706e-016 0 81 1 405 67 6 403 0 0 0 400 406 83 3 406 0.
800000011920929 0.800000011920929 0.800000011920929 15 407 68 0 324 403 0 12 408
 68 0 409 0 0 0 0 1000 1e-008 0 0 0 1 0 1 1 416 418 424 422 413 423 421 70 409 0
 408 0 0 4 1 20 0 410 410 1 T74 20 410 1 0 411 0 0 0 0 0 0 0 0 0 0 0 0 0 0 0 0 0
 0 0 81 1 411 7 6 417 0 0 446 0 412 83 3 412 0.800000011920929 0.800000011920929
 0.800000011920929 19 413 1 0 408 415 0 414 V13 414 2 0 408 0 0 0 0 413 417 19 4
15 3 0 408 0 413 416 S13 416 4 0 408 0 417 0 0 415 0 14 417 5 411 1e-008 444 0 4
19 416 418 -0 0 444 0 414 50 418 6 0 417 445 0 0 +-0.0016 0.0003500000000000004
 -3.333333333333e-006 1 -2.449293598294706e-016 0 0 0 1 15 419 8 0 420 417 0 17
 420 0 419 428 440 421 425 423 0 498 +18 421 9 0 433 0 426 422 ?408 29 422 10 0
 421 427 0 -0.0016 0.001250000000000001 6.666666666667e-006 16 423 11 0 ?420 0 4
31 424 0 0 408 30 424 12 0 423 432 0 0 +-0.0016 0.0003500000000000004 6.66666666
6667e-006 2.449293598294706e-016 1 0 17 425 0 508 481 498 426 420 423 0 478 -18
 426 13 0 440 421 429 427 ?408 29 427 14 0 426 430 422 -0.0016 0.000350000000000
0004 6.666666666667e-006 17 428 0 419 434 420 429 433 431 0 491 -18 429 15 0 439
 426 435 430 ?408 29 430 16 0 429 436 427 -0.0016 0.001250000000000001 -3.333333
333333e-006 16 431 17 0 ?433 423 437 432 0 0 408 30 432 18 0 431 438 424 0 +-0.0
016 0.001250000000000001 -3.333333333333e-006 0 0 1 17 433 0 490 495 491 421 428
 431 0 420 +17 434 0 419 440 428 435 439 437 0 485 -18 435 19 0 443 429 450 436
 ?408 29 436 20 0 435 451 430 -0.0016 0.0003500000000000004 -3.333333333333e-006
 16 437 21 0 ?439 431 441 438 0 0 408 30 438 22 0 437 442 432 0 +-0.0016 0.00035
00000000000004 -3.333333333333e-006 2.449293598294706e-016 1 0 17 439 0 503 494
 485 429 434 437 0 428 +17 440 0 419 420 434 426 443 441 0 425 +16 441 23 0 ?440
 437 452 442 0 0 408 30 442 24 0 441 453 438 0 +-0.0016 0.0003500000000000004 -3
.333333333333e-006 0 0 1 17 443 0 477 482 478 435 440 441 0 434 -14 444 25 446 1
e-008 473 417 448 416 445 +0 0 473 417 414 50 445 26 0 444 474 418 0 +-0.0006000
000000000001 0.0003500000000000002 -3.333333333333e-006 1 -2.449293598294706e-01
6 0 0 0 1 81 1 446 27 6 444 0 0 475 411 447 83 3 447 0.800000011920929 0.8000000
11920929 0.800000011920929 15 448 28 0 449 444 0 17 449 0 448 457 469 450 454 45
2 0 462 -18 450 29 0 449 435 455 451 ?408 29 451 30 0 450 456 436 -0.00060000000
00000001 0.0003500000000000002 -3.333333333333e-006 16 452 31 0 ?454 441 460 453
 0 0 408 30 453 32 0 452 461 442 0 +-0.0006000000000000001 0.0003500000000000002
 -3.333333333333e-006 0 0 1 17 454 0 477 478 482 455 449 452 0 469 +18 455 33 0
 454 450 458 456 ?408 29 456 34 0 455 459 451 -0.0006000000000000001 0.000350000
0000000002 6.666666666667e-006 17 457 0 448 463 449 458 462 460 0 468 +18 458 35
 0 457 455 464 459 ?408 29 459 36 0 458 465 456 -0.0005999999999999998 0.00125 -
3.333333333333e-006 16 460 37 0 ?457 452 466 461 0 0 408 30 461 38 0 460 467 453
 0 +-0.0006000000000000001 0.0003500000000000002 -3.333333333333e-006 2.44929359
8294706e-016 1 0 17 462 0 503 485 494 450 457 460 0 482 -17 463 0 448 469 457 46
4 468 466 0 472 +18 464 39 0 463 458 0 465 ?408 29 465 40 0 464 0 459 -0.0005999
999999999998 0.00125 6.666666666667e-006 16 466 41 0 ?463 460 470 467 0 0 408 30
 467 42 0 466 471 461 0 +-0.0005999999999999998 0.00125 -3.333333333333e-006 0 0
 1 17 468 0 490 491 495 458 463 466 0 494 -17 469 0 448 449 463 455 472 470 0 48
1 -16 470 43 0 ?472 466 479 471 0 0 408 30 471 44 0 470 480 467 0 +-0.0006000000
000000001 0.0003500000000000002 6.666666666667e-006 2.449293598294706e-016 1 0 1
7 472 0 508 498 481 464 469 470 0 495 +14 473 45 475 1e-008 486 444 477 416 474
 -0 0 486 444 414 50 474 46 0 473 487 445 0 +-0.0016 0.0003500000000000004 -3.33
3333333333e-006 2.449293598294706e-016 1 0 0 0 1 81 1 475 47 6 473 0 0 488 446 4
76 83 3 476 0.800000011920929 0.800000011920929 0.800000011920929 15 477 48 0 45
4 473 0 17 478 0 477 443 454 426 481 479 0 0 -16 479 49 0 ?481 470 483 480 0 0 4
08 30 480 50 0 479 484 471 0 +-0.0016 0.0003500000000000004 6.666666666667e-006
 1 -2.449293598294706e-016 0 17 481 0 508 472 425 455 478 479 0 0 +17 482 0 477
 454 443 450 485 483 0 0 +16 483 51 0 ?482 479 492 484 0 0 408 30 484 52 0 483 4
93 480 0 +-0.0016 0.0003500000000000004 -3.333333333333e-006 1 -2.44929359829470
6e-016 0 17 485 0 503 439 462 435 482 483 0 0 -14 486 53 488 1e-008 499 473 490
 416 487 +0 0 499 473 414 50 487 54 0 486 500 474 0 +-0.0016 0.00125000000000000
1 -3.333333333333e-006 2.449293598294706e-016 1 0 0 0 1 81 1 488 55 6 486 0 0 50
1 475 489 83 3 489 0.800000011920929 0.800000011920929 0.800000011920929 15 490
 56 0 491 486 0 17 491 0 490 433 468 429 494 492 0 0 -16 492 57 0 ?494 483 496 4
93 0 0 408 30 493 58 0 492 497 484 0 +-0.0016 0.001250000000000001 -3.3333333333
33e-006 1 -2.449293598294706e-016 0 17 494 0 503 462 439 458 491 492 0 0 +17 495
 0 490 468 433 464 498 496 0 0 +16 496 59 0 ?495 492 0 497 0 0 408 30 497 60 0 4
96 0 493 0 +-0.0016 0.001250000000000001 6.666666666667e-006 1 -2.44929359829470
6e-016 0 17 498 0 508 425 472 421 495 496 0 0 -14 499 61 501 1e-008 504 486 503
 416 500 -0 0 504 486 414 50 500 62 0 499 505 487 0 +-0.0016 0.00035000000000000
04 -3.333333333333e-006 0 0 1 1 -2.449293598294706e-016 0 81 1 501 63 6 499 0 0
 506 488 502 83 3 502 0.800000011920929 0.800000011920929 0.800000011920929 15 5
03 64 0 494 499 0 14 504 65 506 1e-008 0 499 508 416 505 +0 0 0 499 414 50 505 6
6 0 504 0 500 0 +-0.0016 0.0003500000000000004 6.666666666667e-006 0 0 1 1 -2.44
9293598294706e-016 0 81 1 506 67 6 504 0 0 0 501 507 83 3 507 0.800000011920929
 0.800000011920929 0.800000011920929 15 508 68 0 425 504 0 1 0 
