**ABCDEFGHIJKLMNOPQRSTUVWXYZabcdefghijklmnopqrstuvwxyz**************************
**PARASOLID !"#$%&'()*+,-./:;<=>?@[\]^_`{|}~0123456789**************************
**PART1;
MC=AMD64;
MC_MODEL=AMD64 Family 23 Model 1 Stepping 2, AuthenticAMD;
MC_ID=unknown;
OS=Windows_NT;
OS_RELEASE=unknown;
FRU=CAD Exchanger 3.10.1 (cadexchanger.com);
APPL=unknown;
SITE=unknown;
USER=unknown;
FORMAT=text;
GUISE=transmit;
KEY=SC32S-7PF20PPM_SC32S-7PF20PPM;
FILE=SC32S-7PF20PPM_SC32S-7PF20PPM.x_t;
DATE=Wed Jul 13 20:17:11 2022;
**PART2;
SCH=SCH_1200000_12103;
USFLD_SIZE=0;
**PART3;
**END_OF_HEADER*****************************************************************
T51 : TRANSMIT FILE created by modeller version 120000017 SCH_1200000_121030 74
 3 1 3 0 2 105 206 12 2 68 0 3 0 0 0 0 1000 1e-008 0 0 0 1 0 1 1 12 14 20 18 9 1
9 17 70 3 0 2 0 0 4 1 20 0 4 4 1 T74 20 4 1 0 5 0 0 0 0 0 0 0 0 0 0 0 0 0 0 0 0
 0 0 0 81 1 5 7 6 13 0 0 42 0 8 80 1 6 0 7 8001 0 0 0 0 3 5 0 0 0 FFFFTFTFFFFFFF
2 79 15 7 SDL/TYSA_COLOUR83 3 8 0.2000000029802322 0.2000000029802322 0.20000000
29802322 19 9 1 0 2 11 0 10 V13 10 2 0 2 0 0 0 0 9 13 19 11 3 0 2 0 9 12 S13 12
 4 0 2 0 13 0 0 11 0 14 13 5 5 1e-008 40 0 15 12 14 -0 0 40 0 10 50 14 6 0 13 41
 0 0 +-0.00165 -0.0007999999999999996 0 1 -2.449293598294706e-016 0 0 0 1 15 15
 8 0 16 13 0 17 16 0 15 24 36 17 21 19 0 94 +18 17 9 0 29 0 22 18 ?2 29 18 10 0
 17 23 0 -0.00165 0.0008000000000000005 0.00085 16 19 11 0 ?16 0 27 20 0 0 2 30
 20 12 0 19 28 0 0 +-0.00165 -0.0007999999999999996 0.00085 2.449293598294706e-0
16 1 0 17 21 0 104 77 94 22 16 19 0 74 -18 22 13 0 36 17 25 23 ?2 29 23 14 0 22
 26 18 -0.00165 -0.0007999999999999996 0.00085 17 24 0 15 30 16 25 29 27 0 87 -1
8 25 15 0 35 22 31 26 ?2 29 26 16 0 25 32 23 -0.00165 0.0008000000000000005 0 16
 27 17 0 ?29 19 33 28 0 0 2 30 28 18 0 27 34 20 0 +-0.00165 0.000800000000000000
5 0 0 0 1 17 29 0 86 91 87 17 24 27 0 16 +17 30 0 15 36 24 31 35 33 0 81 -18 31
 19 0 39 25 46 32 ?2 29 32 20 0 31 47 26 -0.00165 -0.0007999999999999996 0 16 33
 21 0 ?35 27 37 34 0 0 2 30 34 22 0 33 38 28 0 +-0.00165 -0.0007999999999999996
 0 2.449293598294706e-016 1 0 17 35 0 99 90 81 25 30 33 0 24 +17 36 0 15 16 30 2
2 39 37 0 21 +16 37 23 0 ?36 33 48 38 0 0 2 30 38 24 0 37 49 34 0 +-0.00165 -0.0
007999999999999996 0 0 0 1 17 39 0 73 78 74 31 36 37 0 30 -14 40 25 42 1e-008 69
 13 44 12 41 +0 0 69 13 10 50 41 26 0 40 70 14 0 +0.00165 -0.0008000000000000004
 0 1 -2.449293598294706e-016 0 0 0 1 81 1 42 27 6 40 0 0 71 5 43 83 3 43 0.20000
00029802322 0.2000000029802322 0.2000000029802322 15 44 28 0 45 40 0 17 45 0 44
 53 65 46 50 48 0 58 -18 46 29 0 45 31 51 47 ?2 29 47 30 0 46 52 32 0.00165 -0.0
008000000000000004 0 16 48 31 0 ?50 37 56 49 0 0 2 30 49 32 0 48 57 38 0 +0.0016
5 -0.0008000000000000004 0 0 0 1 17 50 0 73 74 78 51 45 48 0 65 +18 51 33 0 50 4
6 54 52 ?2 29 52 34 0 51 55 47 0.00165 -0.0008000000000000004 0.00085 17 53 0 44
 59 45 54 58 56 0 64 +18 54 35 0 53 51 60 55 ?2 29 55 36 0 54 61 52 0.00165 0.00
07999999999999996 0 16 56 37 0 ?53 48 62 57 0 0 2 30 57 38 0 56 63 49 0 +0.00165
 -0.0008000000000000004 0 2.449293598294706e-016 1 0 17 58 0 99 81 90 46 53 56 0
 78 -17 59 0 44 65 53 60 64 62 0 68 +18 60 39 0 59 54 0 61 ?2 29 61 40 0 60 0 55
 0.00165 0.0007999999999999996 0.00085 16 62 41 0 ?59 56 66 63 0 0 2 30 63 42 0
 62 67 57 0 +0.00165 0.0007999999999999996 0 0 0 1 17 64 0 86 87 91 54 59 62 0 9
0 -17 65 0 44 45 59 51 68 66 0 77 -16 66 43 0 ?68 62 75 67 0 0 2 30 67 44 0 66 7
6 63 0 +0.00165 -0.0008000000000000004 0.00085 2.449293598294706e-016 1 0 17 68
 0 104 94 77 60 65 66 0 91 +14 69 45 71 1e-008 82 40 73 12 70 -0 0 82 40 10 50 7
0 46 0 69 83 41 0 +-0.00165 -0.0007999999999999996 0 2.449293598294706e-016 1 0
 0 0 1 81 1 71 47 6 69 0 0 84 42 72 83 3 72 0.2000000029802322 0.200000002980232
2 0.2000000029802322 15 73 48 0 50 69 0 17 74 0 73 39 50 22 77 75 0 0 -16 75 49
 0 ?77 66 79 76 0 0 2 30 76 50 0 75 80 67 0 +-0.00165 -0.0007999999999999996 0.0
0085 1 -2.449293598294706e-016 0 17 77 0 104 68 21 51 74 75 0 0 +17 78 0 73 50 3
9 46 81 79 0 0 +16 79 51 0 ?78 75 88 80 0 0 2 30 80 52 0 79 89 76 0 +-0.00165 -0
.0007999999999999996 0 1 -2.449293598294706e-016 0 17 81 0 99 35 58 31 78 79 0 0
 -14 82 53 84 1e-008 95 69 86 12 83 +0 0 95 69 10 50 83 54 0 82 96 70 0 +-0.0016
5 0.0008000000000000005 0 2.449293598294706e-016 1 0 0 0 1 81 1 84 55 6 82 0 0 9
7 71 85 83 3 85 0.2000000029802322 0.2000000029802322 0.2000000029802322 15 86 5
6 0 87 82 0 17 87 0 86 29 64 25 90 88 0 0 -16 88 57 0 ?90 79 92 89 0 0 2 30 89 5
8 0 88 93 80 0 +-0.00165 0.0008000000000000005 0 1 -2.449293598294706e-016 0 17
 90 0 99 58 35 54 87 88 0 0 +17 91 0 86 64 29 60 94 92 0 0 +16 92 59 0 ?91 88 0
 93 0 0 2 30 93 60 0 92 0 89 0 +-0.00165 0.0008000000000000005 0.00085 1 -2.4492
93598294706e-016 0 17 94 0 104 21 68 17 91 92 0 0 -14 95 61 97 1e-008 100 82 99
 12 96 -0 0 100 82 10 50 96 62 0 95 101 83 0 +-0.00165 -0.0007999999999999996 0
 0 0 1 1 -2.449293598294706e-016 0 81 1 97 63 6 95 0 0 102 84 98 83 3 98 0.20000
00029802322 0.2000000029802322 0.2000000029802322 15 99 64 0 90 95 0 14 100 65 1
02 1e-008 0 95 104 12 101 +0 0 0 95 10 50 101 66 0 100 0 96 0 +-0.00165 -0.00079
99999999999996 0.00085 0 0 1 1 -2.449293598294706e-016 0 81 1 102 67 6 100 0 0 0
 97 103 83 3 103 0.2000000029802322 0.2000000029802322 0.2000000029802322 15 104
 68 0 21 100 0 12 105 68 0 106 0 0 0 0 1000 1e-008 0 0 0 1 0 1 1 113 115 121 119
 110 120 118 70 106 0 105 0 0 4 1 20 0 107 107 1 T74 20 107 1 0 108 0 0 0 0 0 0
 0 0 0 0 0 0 0 0 0 0 0 0 0 81 1 108 7 6 114 0 0 143 0 109 83 3 109 0.80000001192
0929 0.800000011920929 0.800000011920929 19 110 1 0 105 112 0 111 V13 111 2 0 10
5 0 0 0 0 110 114 19 112 3 0 105 0 110 113 S13 113 4 0 105 0 114 0 0 112 0 14 11
4 5 108 1e-008 141 0 116 113 115 -0 0 141 0 111 50 115 6 0 114 142 0 0 +-0.0016
 -0.0007499999999999996 -3.333333333333e-006 1 -2.449293598294706e-016 0 0 0 1 1
5 116 8 0 117 114 0 17 117 0 116 125 137 118 122 120 0 195 +18 118 9 0 130 0 123
 119 ?105 29 119 10 0 118 124 0 -0.0016 0.0007500000000000005 6.666666666667e-00
6 16 120 11 0 ?117 0 128 121 0 0 105 30 121 12 0 120 129 0 0 +-0.0016 -0.0007499
999999999996 6.666666666667e-006 2.449293598294706e-016 1 0 17 122 0 205 178 195
 123 117 120 0 175 -18 123 13 0 137 118 126 124 ?105 29 124 14 0 123 127 119 -0.
0016 -0.0007499999999999996 6.666666666667e-006 17 125 0 116 131 117 126 130 128
 0 188 -18 126 15 0 136 123 132 127 ?105 29 127 16 0 126 133 124 -0.0016 0.00075
00000000000005 -3.333333333333e-006 16 128 17 0 ?130 120 134 129 0 0 105 30 129
 18 0 128 135 121 0 +-0.0016 0.0007500000000000005 -3.333333333333e-006 0 0 1 17
 130 0 187 192 188 118 125 128 0 117 +17 131 0 116 137 125 132 136 134 0 182 -18
 132 19 0 140 126 147 133 ?105 29 133 20 0 132 148 127 -0.0016 -0.00074999999999
99996 -3.333333333333e-006 16 134 21 0 ?136 128 138 135 0 0 105 30 135 22 0 134
 139 129 0 +-0.0016 -0.0007499999999999996 -3.333333333333e-006 2.44929359829470
6e-016 1 0 17 136 0 200 191 182 126 131 134 0 125 +17 137 0 116 117 131 123 140
 138 0 122 +16 138 23 0 ?137 134 149 139 0 0 105 30 139 24 0 138 150 135 0 +-0.0
016 -0.0007499999999999996 -3.333333333333e-006 0 0 1 17 140 0 174 179 175 132 1
37 138 0 131 -14 141 25 143 1e-008 170 114 145 113 142 +0 0 170 114 111 50 142 2
6 0 141 171 115 0 +-0.0006000000000000003 -0.0007499999999999998 -3.333333333333
e-006 1 -2.449293598294706e-016 0 0 0 1 81 1 143 27 6 141 0 0 172 108 144 83 3 1
44 0.800000011920929 0.800000011920929 0.800000011920929 15 145 28 0 146 141 0 1
7 146 0 145 154 166 147 151 149 0 159 -18 147 29 0 146 132 152 148 ?105 29 148 3
0 0 147 153 133 -0.0006000000000000003 -0.0007499999999999998 -3.333333333333e-0
06 16 149 31 0 ?151 138 157 150 0 0 105 30 150 32 0 149 158 139 0 +-0.0006000000
000000003 -0.0007499999999999998 -3.333333333333e-006 0 0 1 17 151 0 174 175 179
 152 146 149 0 166 +18 152 33 0 151 147 155 153 ?105 29 153 34 0 152 156 148 -0.
0006000000000000003 -0.0007499999999999998 6.666666666667e-006 17 154 0 145 160
 146 155 159 157 0 165 +18 155 35 0 154 152 161 156 ?105 29 156 36 0 155 162 153
 -0.0005999999999999998 0.0007500000000000002 -3.333333333333e-006 16 157 37 0 ?
154 149 163 158 0 0 105 30 158 38 0 157 164 150 0 +-0.0006000000000000003 -0.000
7499999999999998 -3.333333333333e-006 2.449293598294706e-016 1 0 17 159 0 200 18
2 191 147 154 157 0 179 -17 160 0 145 166 154 161 165 163 0 169 +18 161 39 0 160
 155 0 162 ?105 29 162 40 0 161 0 156 -0.0005999999999999998 0.00075000000000000
02 6.666666666667e-006 16 163 41 0 ?160 157 167 164 0 0 105 30 164 42 0 163 168
 158 0 +-0.0005999999999999998 0.0007500000000000002 -3.333333333333e-006 0 0 1
 17 165 0 187 188 192 155 160 163 0 191 -17 166 0 145 146 160 152 169 167 0 178
 -16 167 43 0 ?169 163 176 168 0 0 105 30 168 44 0 167 177 164 0 +-0.00060000000
00000003 -0.0007499999999999998 6.666666666667e-006 2.449293598294706e-016 1 0 1
7 169 0 205 195 178 161 166 167 0 192 +14 170 45 172 1e-008 183 141 174 113 171
 -0 0 183 141 111 50 171 46 0 170 184 142 0 +-0.0016 -0.0007499999999999996 -3.3
33333333333e-006 2.449293598294706e-016 1 0 0 0 1 81 1 172 47 6 170 0 0 185 143
 173 83 3 173 0.800000011920929 0.800000011920929 0.800000011920929 15 174 48 0
 151 170 0 17 175 0 174 140 151 123 178 176 0 0 -16 176 49 0 ?178 167 180 177 0
 0 105 30 177 50 0 176 181 168 0 +-0.0016 -0.0007499999999999996 6.666666666667e
-006 1 -2.449293598294706e-016 0 17 178 0 205 169 122 152 175 176 0 0 +17 179 0
 174 151 140 147 182 180 0 0 +16 180 51 0 ?179 176 189 181 0 0 105 30 181 52 0 1
80 190 177 0 +-0.0016 -0.0007499999999999996 -3.333333333333e-006 1 -2.449293598
294706e-016 0 17 182 0 200 136 159 132 179 180 0 0 -14 183 53 185 1e-008 196 170
 187 113 184 +0 0 196 170 111 50 184 54 0 183 197 171 0 +-0.0016 0.0007500000000
000005 -3.333333333333e-006 2.449293598294706e-016 1 0 0 0 1 81 1 185 55 6 183 0
 0 198 172 186 83 3 186 0.800000011920929 0.800000011920929 0.800000011920929 15
 187 56 0 188 183 0 17 188 0 187 130 165 126 191 189 0 0 -16 189 57 0 ?191 180 1
93 190 0 0 105 30 190 58 0 189 194 181 0 +-0.0016 0.0007500000000000005 -3.33333
3333333e-006 1 -2.449293598294706e-016 0 17 191 0 200 159 136 155 188 189 0 0 +1
7 192 0 187 165 130 161 195 193 0 0 +16 193 59 0 ?192 189 0 194 0 0 105 30 194 6
0 0 193 0 190 0 +-0.0016 0.0007500000000000005 6.666666666667e-006 1 -2.44929359
8294706e-016 0 17 195 0 205 122 169 118 192 193 0 0 -14 196 61 198 1e-008 201 18
3 200 113 197 -0 0 201 183 111 50 197 62 0 196 202 184 0 +-0.0016 -0.00074999999
99999996 -3.333333333333e-006 0 0 1 1 -2.449293598294706e-016 0 81 1 198 63 6 19
6 0 0 203 185 199 83 3 199 0.800000011920929 0.800000011920929 0.800000011920929
 15 200 64 0 191 196 0 14 201 65 203 1e-008 0 196 205 113 202 +0 0 0 196 111 50
 202 66 0 201 0 197 0 +-0.0016 -0.0007499999999999996 6.666666666667e-006 0 0 1
 1 -2.449293598294706e-016 0 81 1 203 67 6 201 0 0 0 198 204 83 3 204 0.80000001
1920929 0.800000011920929 0.800000011920929 15 205 68 0 122 201 0 12 206 68 0 20
7 0 0 0 0 1000 1e-008 0 0 0 1 0 1 1 214 216 222 220 211 221 219 70 207 0 206 0 0
 4 1 20 0 208 208 1 T74 20 208 1 0 209 0 0 0 0 0 0 0 0 0 0 0 0 0 0 0 0 0 0 0 81
 1 209 7 6 215 0 0 244 0 210 83 3 210 0.800000011920929 0.800000011920929 0.8000
00011920929 19 211 1 0 206 213 0 212 V13 212 2 0 206 0 0 0 0 211 215 19 213 3 0
 206 0 211 214 S13 214 4 0 206 0 215 0 0 213 0 14 215 5 209 1e-008 242 0 217 214
 216 -0 0 242 0 212 50 216 6 0 215 243 0 0 +0.0005999999999999997 -0.00075000000
00000001 -3.333333333333e-006 1 -2.449293598294706e-016 0 0 0 1 15 217 8 0 218 2
15 0 17 218 0 217 226 238 219 223 221 0 296 +18 219 9 0 231 0 224 220 ?206 29 22
0 10 0 219 225 0 0.0006000000000000001 0.0007499999999999999 6.666666666667e-006
 16 221 11 0 ?218 0 229 222 0 0 206 30 222 12 0 221 230 0 0 +0.00059999999999999
97 -0.0007500000000000001 6.666666666667e-006 2.449293598294706e-016 1 0 17 223
 0 306 279 296 224 218 221 0 276 -18 224 13 0 238 219 227 225 ?206 29 225 14 0 2
24 228 220 0.0005999999999999997 -0.0007500000000000001 6.666666666667e-006 17 2
26 0 217 232 218 227 231 229 0 289 -18 227 15 0 237 224 233 228 ?206 29 228 16 0
 227 234 225 0.0006000000000000001 0.0007499999999999999 -3.333333333333e-006 16
 229 17 0 ?231 221 235 230 0 0 206 30 230 18 0 229 236 222 0 +0.0006000000000000
001 0.0007499999999999999 -3.333333333333e-006 0 0 1 17 231 0 288 293 289 219 22
6 229 0 218 +17 232 0 217 238 226 233 237 235 0 283 -18 233 19 0 241 227 248 234
 ?206 29 234 20 0 233 249 228 0.0005999999999999997 -0.0007500000000000001 -3.33
3333333333e-006 16 235 21 0 ?237 229 239 236 0 0 206 30 236 22 0 235 240 230 0 +
0.0005999999999999997 -0.0007500000000000001 -3.333333333333e-006 2.449293598294
706e-016 1 0 17 237 0 301 292 283 227 232 235 0 226 +17 238 0 217 218 232 224 24
1 239 0 223 +16 239 23 0 ?238 235 250 240 0 0 206 30 240 24 0 239 251 236 0 +0.0
005999999999999997 -0.0007500000000000001 -3.333333333333e-006 0 0 1 17 241 0 27
5 280 276 233 238 239 0 232 -14 242 25 244 1e-008 271 215 246 214 243 +0 0 271 2
15 212 50 243 26 0 242 272 216 0 +0.0016 -0.0007500000000000003 -3.333333333333e
-006 1 -2.449293598294706e-016 0 0 0 1 81 1 244 27 6 242 0 0 273 209 245 83 3 24
5 0.800000011920929 0.800000011920929 0.800000011920929 15 246 28 0 247 242 0 17
 247 0 246 255 267 248 252 250 0 260 -18 248 29 0 247 233 253 249 ?206 29 249 30
 0 248 254 234 0.0016 -0.0007500000000000003 -3.333333333333e-006 16 250 31 0 ?2
52 239 258 251 0 0 206 30 251 32 0 250 259 240 0 +0.0016 -0.0007500000000000003
 -3.333333333333e-006 0 0 1 17 252 0 275 276 280 253 247 250 0 267 +18 253 33 0
 252 248 256 254 ?206 29 254 34 0 253 257 249 0.0016 -0.0007500000000000003 6.66
6666666667e-006 17 255 0 246 261 247 256 260 258 0 266 +18 256 35 0 255 253 262
 257 ?206 29 257 36 0 256 263 254 0.0016 0.0007499999999999997 -3.333333333333e-
006 16 258 37 0 ?255 250 264 259 0 0 206 30 259 38 0 258 265 251 0 +0.0016 -0.00
07500000000000003 -3.333333333333e-006 2.449293598294706e-016 1 0 17 260 0 301 2
83 292 248 255 258 0 280 -17 261 0 246 267 255 262 266 264 0 270 +18 262 39 0 26
1 256 0 263 ?206 29 263 40 0 262 0 257 0.0016 0.0007499999999999997 6.6666666666
67e-006 16 264 41 0 ?261 258 268 265 0 0 206 30 265 42 0 264 269 259 0 +0.0016 0
.0007499999999999997 -3.333333333333e-006 0 0 1 17 266 0 288 289 293 256 261 264
 0 292 -17 267 0 246 247 261 253 270 268 0 279 -16 268 43 0 ?270 264 277 269 0 0
 206 30 269 44 0 268 278 265 0 +0.0016 -0.0007500000000000003 6.666666666667e-00
6 2.449293598294706e-016 1 0 17 270 0 306 296 279 262 267 268 0 293 +14 271 45 2
73 1e-008 284 242 275 214 272 -0 0 284 242 212 50 272 46 0 271 285 243 0 +0.0005
999999999999997 -0.0007500000000000001 -3.333333333333e-006 2.449293598294706e-0
16 1 0 0 0 1 81 1 273 47 6 271 0 0 286 244 274 83 3 274 0.800000011920929 0.8000
00011920929 0.800000011920929 15 275 48 0 252 271 0 17 276 0 275 241 252 224 279
 277 0 0 -16 277 49 0 ?279 268 281 278 0 0 206 30 278 50 0 277 282 269 0 +0.0005
999999999999997 -0.0007500000000000001 6.666666666667e-006 1 -2.449293598294706e
-016 0 17 279 0 306 270 223 253 276 277 0 0 +17 280 0 275 252 241 248 283 281 0
 0 +16 281 51 0 ?280 277 290 282 0 0 206 30 282 52 0 281 291 278 0 +0.0005999999
999999997 -0.0007500000000000001 -3.333333333333e-006 1 -2.449293598294706e-016
 0 17 283 0 301 237 260 233 280 281 0 0 -14 284 53 286 1e-008 297 271 288 214 28
5 +0 0 297 271 212 50 285 54 0 284 298 272 0 +0.0006000000000000001 0.0007499999
999999999 -3.333333333333e-006 2.449293598294706e-016 1 0 0 0 1 81 1 286 55 6 28
4 0 0 299 273 287 83 3 287 0.800000011920929 0.800000011920929 0.800000011920929
 15 288 56 0 289 284 0 17 289 0 288 231 266 227 292 290 0 0 -16 290 57 0 ?292 28
1 294 291 0 0 206 30 291 58 0 290 295 282 0 +0.0006000000000000001 0.00074999999
99999999 -3.333333333333e-006 1 -2.449293598294706e-016 0 17 292 0 301 260 237 2
56 289 290 0 0 +17 293 0 288 266 231 262 296 294 0 0 +16 294 59 0 ?293 290 0 295
 0 0 206 30 295 60 0 294 0 291 0 +0.0006000000000000001 0.0007499999999999999 6.
666666666667e-006 1 -2.449293598294706e-016 0 17 296 0 306 223 270 219 293 294 0
 0 -14 297 61 299 1e-008 302 284 301 214 298 -0 0 302 284 212 50 298 62 0 297 30
3 285 0 +0.0005999999999999997 -0.0007500000000000001 -3.333333333333e-006 0 0 1
 1 -2.449293598294706e-016 0 81 1 299 63 6 297 0 0 304 286 300 83 3 300 0.800000
011920929 0.800000011920929 0.800000011920929 15 301 64 0 292 297 0 14 302 65 30
4 1e-008 0 297 306 214 303 +0 0 0 297 212 50 303 66 0 302 0 298 0 +0.00059999999
99999997 -0.0007500000000000001 6.666666666667e-006 0 0 1 1 -2.449293598294706e-
016 0 81 1 304 67 6 302 0 0 0 299 305 83 3 305 0.800000011920929 0.8000000119209
29 0.800000011920929 15 306 68 0 223 302 0 1 0 
